<svg xmlns="http://www.w3.org/2000/svg" xmlns:xlink="http://www.w3.org/1999/xlink" viewBox="0 0 2606.82 1415.86"  preserveAspectRatio="none meet"><defs><linearGradient id="未命名的渐变_2855" x1="970.06" y1="676.58" x2="2361.39" y2="676.58" gradientUnits="userSpaceOnUse"><stop offset="0" stop-color="#ff5563"/><stop offset="1" stop-color="#ea3eb9"/></linearGradient><linearGradient id="未命名的渐变" x1="969.56" y1="676.58" x2="2361.89" y2="676.58" gradientUnits="userSpaceOnUse"><stop offset="0" stop-color="#fff"/><stop offset="1"/></linearGradient><linearGradient id="未命名的渐变_2855-2" x1="970.06" y1="646.52" x2="2361.39" y2="646.52" xlink:href="#未命名的渐变_2855"/><linearGradient id="未命名的渐变-2" x1="970.04" y1="646.49" x2="2361.41" y2="646.49" xlink:href="#未命名的渐变"/><linearGradient id="未命名的渐变_2855-3" x1="970.06" y1="654.6" x2="2361.39" y2="654.6" xlink:href="#未命名的渐变_2855"/><linearGradient id="未命名的渐变-3" x1="970.04" y1="654.54" x2="2361.41" y2="654.54" xlink:href="#未命名的渐变"/><linearGradient id="未命名的渐变_2855-4" x1="970.06" y1="662.65" x2="2361.39" y2="662.65" xlink:href="#未命名的渐变_2855"/><linearGradient id="未命名的渐变-4" x1="970.04" y1="662.59" x2="2361.41" y2="662.59" xlink:href="#未命名的渐变"/><linearGradient id="未命名的渐变_2855-5" x1="970.06" y1="670.65" x2="2361.39" y2="670.65" xlink:href="#未命名的渐变_2855"/><linearGradient id="未命名的渐变-5" x1="970.04" y1="670.58" x2="2361.41" y2="670.58" xlink:href="#未命名的渐变"/><linearGradient id="未命名的渐变_2855-6" x1="970.06" y1="678.59" x2="2361.39" y2="678.59" xlink:href="#未命名的渐变_2855"/><linearGradient id="未命名的渐变-6" x1="970.04" y1="678.49" x2="2361.41" y2="678.49" xlink:href="#未命名的渐变"/><linearGradient id="未命名的渐变_2855-7" x1="970.06" y1="686.48" x2="2361.39" y2="686.48" xlink:href="#未命名的渐变_2855"/><linearGradient id="未命名的渐变-7" x1="970.04" y1="686.39" x2="2361.41" y2="686.39" xlink:href="#未命名的渐变"/><linearGradient id="未命名的渐变_2855-8" x1="970.06" y1="694.3" x2="2361.39" y2="694.3" xlink:href="#未命名的渐变_2855"/><linearGradient id="未命名的渐变-8" x1="970.04" y1="694.18" x2="2361.41" y2="694.18" xlink:href="#未命名的渐变"/><linearGradient id="未命名的渐变_2855-9" x1="970.06" y1="702.22" x2="2361.39" y2="702.22" xlink:href="#未命名的渐变_2855"/><linearGradient id="未命名的渐变-9" x1="970.04" y1="702.3" x2="2361.41" y2="702.3" xlink:href="#未命名的渐变"/><linearGradient id="未命名的渐变_2855-10" x1="970.06" y1="712.9" x2="2361.39" y2="712.9" xlink:href="#未命名的渐变_2855"/><linearGradient id="未命名的渐变-10" x1="970.04" y1="712.95" x2="2361.41" y2="712.95" xlink:href="#未命名的渐变"/><linearGradient id="未命名的渐变_2855-11" x1="970.06" y1="722.35" x2="2361.39" y2="722.35" xlink:href="#未命名的渐变_2855"/><linearGradient id="未命名的渐变-11" x1="970.04" y1="722.54" x2="2361.41" y2="722.54" xlink:href="#未命名的渐变"/><linearGradient id="未命名的渐变_2855-12" x1="970.06" y1="728.11" x2="2361.39" y2="728.11" xlink:href="#未命名的渐变_2855"/><linearGradient id="未命名的渐变-12" x1="970.04" y1="728.3" x2="2361.4" y2="728.3" xlink:href="#未命名的渐变"/><linearGradient id="未命名的渐变_2855-13" x1="970.06" y1="734.03" x2="2361.39" y2="734.03" xlink:href="#未命名的渐变_2855"/><linearGradient id="未命名的渐变-13" x1="970.04" y1="734.22" x2="2361.4" y2="734.22" xlink:href="#未命名的渐变"/><linearGradient id="未命名的渐变_2855-14" x1="519.21" y1="657.42" x2="1564.95" y2="657.42" xlink:href="#未命名的渐变_2855"/><linearGradient id="未命名的渐变-14" x1="518.71" y1="657.42" x2="1565.45" y2="657.42" xlink:href="#未命名的渐变"/><linearGradient id="未命名的渐变_2855-15" x1="519.21" y1="610.41" x2="1563.8" y2="610.41" xlink:href="#未命名的渐变_2855"/><linearGradient id="未命名的渐变-15" x1="519.18" y1="610.33" x2="1563.8" y2="610.33" xlink:href="#未命名的渐变"/><linearGradient id="未命名的渐变_2855-16" x1="519.21" y1="626.9" x2="1563.99" y2="626.9" xlink:href="#未命名的渐变_2855"/><linearGradient id="未命名的渐变-16" x1="519.18" y1="626.8" x2="1564" y2="626.8" xlink:href="#未命名的渐变"/><linearGradient id="未命名的渐变_2855-17" x1="519.21" y1="644" x2="1564.18" y2="644" xlink:href="#未命名的渐变_2855"/><linearGradient id="未命名的渐变-17" x1="519.19" y1="643.93" x2="1564.19" y2="643.93" xlink:href="#未命名的渐变"/><linearGradient id="未命名的渐变_2855-18" x1="519.21" y1="661.56" x2="1564.37" y2="661.56" xlink:href="#未命名的渐变_2855"/><linearGradient id="未命名的渐变-18" x1="519.19" y1="661.51" x2="1564.39" y2="661.51" xlink:href="#未命名的渐变"/><linearGradient id="未命名的渐变_2855-19" x1="519.21" y1="679.46" x2="1564.56" y2="679.46" xlink:href="#未命名的渐变_2855"/><linearGradient id="未命名的渐变-19" x1="519.19" y1="679.4" x2="1564.59" y2="679.4" xlink:href="#未命名的渐变"/><linearGradient id="未命名的渐变_2855-20" x1="519.21" y1="697.59" x2="1564.75" y2="697.59" xlink:href="#未命名的渐变_2855"/><linearGradient id="未命名的渐变-20" x1="519.19" y1="697.57" x2="1564.78" y2="697.57" xlink:href="#未命名的渐变"/><linearGradient id="未命名的渐变_2855-21" x1="519.21" y1="715.85" x2="1564.95" y2="715.85" xlink:href="#未命名的渐变_2855"/><linearGradient id="未命名的渐变-21" x1="519.19" y1="715.83" x2="1564.98" y2="715.83" xlink:href="#未命名的渐变"/></defs><title>资源 12lighthouse</title><g id="图层_2" data-name="图层 2"><g id="图层_1-2" data-name="图层 1"><path d="M970.06,684.59c790.5,263.79,867.15-103.94,1391.33,72.27v-33.5c-647-378.3-1089.89,78.26-1391.33-58Z" style="stroke-miterlimit:10;fill:url(#未命名的渐变_2855);stroke:url(#未命名的渐变)"/><path d="M2361.39,723.36c-647-378.3-1089.89,78.26-1391.33-58" style="fill:url(#未命名的渐变_2855-2)"/><path d="M2361.36,723.4l-19.54-11-9.77-5.51c-3.28-1.8-6.6-3.51-9.9-5.28l-19.82-10.5-20.06-10-10-5-10.16-4.74-20.34-9.44L2221.16,653l-5.15-2.22-2.57-1.11-2.6-1-10.41-4.16L2190,640.29l-5.21-2.08-5.26-1.94-21-7.74c-1.75-.66-3.52-1.26-5.29-1.85l-5.31-1.79-10.63-3.57c-3.55-1.17-7.07-2.42-10.64-3.53l-10.72-3.27-10.72-3.27-5.37-1.62-5.4-1.49-21.61-6L2051,596.79l-5.44-1.34-5.48-1.19-11-2.38c-29.24-6.23-58.74-11.27-88.43-14.84s-59.54-5.73-89.43-6.65c-59.79-1.87-119.68,1.75-179,9.5-29.65,3.87-59.17,8.74-88.53,14.37s-58.58,12-87.69,18.88c-58.23,13.67-115.94,29.43-174,43.95-29,7.23-58.13,14.19-87.49,19.94l-11,2.15-11,2c-7.35,1.38-14.76,2.44-22.14,3.64-14.81,2.13-29.65,4.1-44.57,5.25-7.45.73-14.93,1-22.4,1.47-3.74.18-7.48.2-11.22.3l-5.61.13c-1.87,0-3.74,0-5.61,0l-11.22-.15-11.21-.58c-1.87-.12-3.74-.15-5.6-.34l-5.59-.52-5.59-.52-2.79-.26c-.93-.09-1.85-.25-2.78-.37l-11.12-1.55c-1.86-.22-3.69-.61-5.53-.95l-5.51-1-5.51-1c-1.83-.4-3.64-.87-5.46-1.3l-5.45-1.32-2.73-.66c-.91-.21-1.82-.43-2.71-.72A308.44,308.44,0,0,1,970,665.42l0-.09a308.23,308.23,0,0,0,42.23,15c.89.28,1.8.49,2.71.7l2.73.64,5.45,1.29c1.82.42,3.63.88,5.46,1.27l5.51,1,5.51,1c1.84.33,3.67.72,5.52.93l11.1,1.51c.93.12,1.85.27,2.78.36l2.79.25,5.58.51,5.58.51c1.86.18,3.73.21,5.59.32l11.19.55,11.21.12c1.87,0,3.74.07,5.6,0l5.6-.14c3.73-.12,7.47-.14,11.2-.33,7.46-.46,14.93-.77,22.36-1.52,14.9-1.19,29.72-3.2,44.51-5.36,7.37-1.22,14.77-2.3,22.11-3.7l11-2,11-2.18c14.66-2.9,29.26-6.14,43.84-9.45s29.1-6.87,43.61-10.51c58-14.49,115.75-30.24,174-43.89s117-25.31,176.36-32.91c29.67-3.81,59.47-6.63,89.35-8.2s59.81-2,89.71-1.13,59.76,3,89.48,6.45,59.24,8.49,88.52,14.67l11,2.36,5.48,1.18,5.45,1.33,21.8,5.33,21.64,5.94,5.41,1.49,5.37,1.63,10.73,3.29,10.73,3.29c3.57,1.12,7.09,2.37,10.64,3.55l10.63,3.59,5.31,1.8c1.77.59,3.54,1.19,5.29,1.86l21,7.78,5.26,2,5.21,2.09,10.41,4.18,10.41,4.18,2.6,1,2.57,1.12,5.14,2.23,20.58,8.94,20.33,9.48,10.15,4.77,10,5c6.68,3.36,13.39,6.66,20,10.09l19.77,10.61c3.29,1.78,6.6,3.51,9.87,5.33l9.74,5.56,19.48,11.12Z" style="fill:url(#未命名的渐变-2)"/><path d="M2361.39,726.4C1725.58,366.48,1316,815,970.06,667.13" style="fill:url(#未命名的渐变_2855-3)"/><path d="M2361.36,726.44l-19.64-10.73-9.82-5.36-10-5.11L2302,695l-20.16-9.71c-3.37-1.6-6.7-3.28-10.1-4.82l-10.2-4.59-10.2-4.59c-3.4-1.52-6.79-3.1-10.24-4.49l-20.65-8.62c-1.73-.71-3.43-1.46-5.17-2.13l-5.22-2-10.44-4-10.44-4c-3.5-1.3-7-2.5-10.53-3.76l-10.54-3.74c-3.52-1.22-7-2.55-10.57-3.65L2136.28,628c-3.53-1.19-7.14-2.16-10.71-3.23l-10.74-3.14c-28.68-8.18-57.66-15.36-87-21A989.33,989.33,0,0,0,1850,583c-59.69-.48-119.33,4.61-178.33,13.36-29.51,4.39-58.88,9.71-88.11,15.68s-58.33,12.6-87.36,19.49c-58.06,13.79-115.79,29-174.08,41.89-29.14,6.45-58.44,12.24-88,16.65-14.75,2.28-29.59,4-44.44,5.51l-11.16.92L1173,697c-1.86.13-3.73.21-5.59.32l-11.18.62c-3.73.17-7.46.21-11.19.33-7.46.3-14.93.12-22.39.1-1.87,0-3.73-.06-5.6-.14l-5.59-.23-5.59-.23-2.8-.11-2.79-.21-11.16-.86-2.79-.21c-.93-.09-1.85-.21-2.78-.31l-5.56-.64-5.56-.64c-1.85-.21-3.71-.42-5.55-.74l-11.06-1.74c-3.7-.51-7.34-1.35-11-2.06l-5.49-1.1c-1.83-.38-3.67-.7-5.47-1.19-7.23-1.84-14.53-3.44-21.65-5.71-3.57-1.09-7.17-2.07-10.71-3.24l-10.57-3.68c-1.76-.63-3.54-1.2-5.27-1.87l-5.19-2.09L970,667.17l0-.09,10.4,4.13,5.2,2.06c1.74.67,3.52,1.23,5.28,1.85l10.58,3.63c3.54,1.16,7.15,2.12,10.72,3.19,7.12,2.24,14.42,3.8,21.65,5.6,1.8.48,3.64.79,5.47,1.16l5.49,1.09c3.66.7,7.3,1.53,11,2l11.05,1.71c1.84.31,3.69.52,5.54.72l5.56.63,5.56.63c.93.1,1.85.22,2.78.3l2.79.21,11.15.83,2.79.21,2.79.11,5.59.21,5.59.21c1.86.08,3.72.15,5.59.13,7.46,0,14.91.16,22.36-.16,3.73-.12,7.45-.17,11.18-.35l11.16-.64c1.86-.11,3.72-.2,5.58-.34l5.57-.47,11.14-.95c14.83-1.55,29.64-3.31,44.38-5.62,29.49-4.5,58.78-10.2,87.91-16.66,58.27-12.88,116-28.05,174.08-41.83s116.52-26.19,175.6-34.83c29.53-4.33,59.2-7.73,89-10s59.61-3.36,89.46-3.21a988.22,988.22,0,0,1,178,17.22l21.94,4.48,2.74.56,2.73.63,5.45,1.27,10.9,2.54c7.29,1.61,14.49,3.59,21.71,5.48l10.82,2.86c3.61.95,7.17,2.08,10.75,3.11l10.74,3.17c3.57,1.08,7.18,2.05,10.71,3.25l21.29,6.93c3.56,1.11,7,2.45,10.57,3.68l10.54,3.76c3.51,1.26,7,2.48,10.53,3.79l10.44,4c55.79,21.29,109.56,47.61,161.52,76.95Z" style="fill:url(#未命名的渐变-3)"/><path d="M2361.39,729.45c-624.64-341.55-1001,98.85-1391.33-60.57" style="fill:url(#未命名的渐变_2855-4)"/><path d="M2361.36,729.49l-19.75-10.42-9.88-5.2-10-5c-6.68-3.28-13.32-6.65-20-9.87l-20.25-9.41c-6.71-3.22-13.59-6.06-20.41-9.05s-13.62-6-20.56-8.71l-20.71-8.33-20.93-7.78c-28-10.09-56.36-19.22-85.13-26.89s-57.86-14.08-87.19-19.11a950.06,950.06,0,0,0-177.84-13.51c-59.56.89-118.93,7.32-177.66,17s-116.87,22.93-174.82,36.61-115.83,27.9-174.41,38.85c-29.29,5.42-58.76,10-88.41,12.92l-5.56.57c-1.85.18-3.71.31-5.57.46l-11.14.89-2.78.22-2.79.15-5.58.31c-3.72.19-7.44.44-11.16.58-14.89.47-29.79.76-44.69.19-3.72-.14-7.45-.18-11.17-.41l-11.15-.71-5.58-.36-5.56-.55-11.12-1.09c-3.7-.38-7.39-1-11.08-1.43l-5.54-.74c-1.85-.24-3.69-.48-5.52-.83l-11-1.89c-1.83-.32-3.67-.61-5.5-1l-5.47-1.16a482.75,482.75,0,0,1-85.37-26l0-.09a496.6,496.6,0,0,0,174,35.49c14.87.53,29.76.2,44.63-.3,3.72-.15,7.43-.41,11.14-.61l5.57-.32,2.79-.16,2.78-.23,11.12-.92c1.85-.16,3.71-.29,5.56-.48l5.55-.59c29.61-3,59.06-7.5,88.33-12.93C1380.14,676.86,1438,662.64,1496,649s116.15-26.63,174.94-36.26c29.39-4.82,58.92-8.81,88.57-11.69s59.4-4.64,89.17-5.2a949.08,949.08,0,0,1,178,13.14q44,7.52,87.29,19c28.77,7.74,57.14,16.93,85.14,27.08l20.92,7.83,20.71,8.38c6.94,2.71,13.71,5.81,20.55,8.76s13.69,5.86,20.4,9.1l20.23,9.47c6.7,3.25,13.32,6.65,20,10l10,5,9.86,5.25,19.7,10.52Z" style="fill:url(#未命名的渐变-4)"/><path d="M2361.39,732.49c-613.48-323.18-956.51,109.15-1391.33-61.87" style="fill:url(#未命名的渐变_2855-5)"/><path d="M2361.36,732.54l-19.87-10.1c-3.32-1.67-6.61-3.4-10-5l-10.06-4.8-10.06-4.8c-3.36-1.59-6.69-3.24-10.1-4.72L2281,694c-1.7-.75-3.38-1.54-5.09-2.25l-5.14-2.14-10.29-4.29L2250.17,681c-3.45-1.38-6.92-2.69-10.39-4l-10.39-4c-3.47-1.32-6.91-2.72-10.43-3.93l-21-7.47c-56.24-19.14-114.07-33.82-172.88-42.43a949.89,949.89,0,0,0-177.78-9.26c-59.41,2.31-118.49,10.09-177,20.69S1554,654.77,1496,668s-116,26.14-174.91,34.76c-29.43,4.26-59,7.47-88.73,8.94l-5.57.3-5.57.17-11.15.33-2.79.08h-2.79l-5.58,0-11.15,0-11.15-.27c-3.72-.12-7.44-.11-11.15-.36l-11.14-.6-5.57-.31-5.56-.47a606.28,606.28,0,0,1-88.11-13.44A590.12,590.12,0,0,1,970,670.67l0-.09a597.22,597.22,0,0,0,85.14,26.14,605.68,605.68,0,0,0,88.05,13.2l5.55.46,5.56.29,11.13.57c3.71.24,7.42.22,11.13.33l11.14.24,11.14-.06,5.57,0,2.78,0,2.78-.09,11.13-.36,5.57-.18,5.56-.32c29.66-1.57,59.24-4.69,88.64-9,58.82-8.59,116.89-21.53,174.85-34.69s115.91-26.57,174.44-37.06c29.26-5.26,58.65-9.8,88.17-13.3s59.17-6,88.87-7.23a948.9,948.9,0,0,1,177.9,8.89,884.07,884.07,0,0,1,87.5,17.18c28.85,7.2,57.37,15.72,85.49,25.35l21,7.52c3.51,1.21,7,2.62,10.43,4l10.39,4c3.46,1.36,6.94,2.67,10.38,4.06l10.28,4.31,10.28,4.31,5.14,2.16c1.71.72,3.39,1.51,5.09,2.27l20.33,9.16c3.4,1.49,6.72,3.16,10.08,4.77l10,4.85,10,4.85c3.33,1.64,6.62,3.38,9.93,5.07l19.82,10.2Z" style="fill:url(#未命名的渐变-5)"/><path d="M2361.39,735.54C1759.07,430.73,1449.34,855,970.06,672.37" style="fill:url(#未命名的渐变_2855-6)"/><path d="M2361.36,735.58c-26.58-13.18-53.5-25.69-80.87-37.13s-55.23-21.69-83.44-30.86-56.89-16.88-85.82-23.38-58.17-11.67-87.61-15.33A936.63,936.63,0,0,0,1846,624c-59.24,3.78-118,12.88-176.24,24.19-29.12,5.67-58.13,11.92-87.1,18.31s-57.91,13-86.94,19.15-58.11,12.11-87.35,17.24c-3.65.67-7.31,1.28-11,1.88l-11,1.82c-7.33,1.18-14.67,2.23-22,3.36s-14.7,2-22.07,2.94l-11.06,1.3c-3.68.44-7.37.87-11.07,1.21a889.86,889.86,0,0,1-88.89,4.9,741.84,741.84,0,0,1-88.88-5,704.76,704.76,0,0,1-87.53-16.08A738.86,738.86,0,0,1,970,672.41l0-.09a724.59,724.59,0,0,0,172.42,42.29c59,6.83,118.61,5.89,177.58-.17,3.69-.33,7.37-.77,11.06-1.21l11-1.29c7.36-.91,14.7-2,22.05-2.93s14.67-2.17,22-3.35l11-1.81c3.66-.6,7.32-1.21,11-1.87,29.22-5.11,58.3-11,87.32-17.2,58-12.42,115.84-25.9,174.13-37.11,29.14-5.62,58.39-10.66,87.79-14.77s58.92-7.26,88.53-9.26a914.17,914.17,0,0,1,351.32,43.29c28.21,9.24,56,19.67,83.43,31l20.43,8.84,5.1,2.22,5,2.34,10.1,4.68,10.09,4.68c3.37,1.55,6.66,3.26,10,4.88l20,9.86Z" style="fill:url(#未命名的渐变-6)"/><path d="M2361.39,738.58C1770.23,452.15,1493.8,868.33,970.06,674.11" style="fill:url(#未命名的渐变_2855-7)"/><path d="M2361.37,738.63Q2321.24,719.52,2280,703c-27.58-10.81-55.55-20.61-83.91-29.17l-10.66-3.13c-3.56-1-7.09-2.15-10.68-3l-21.47-5.69-21.61-5.11-2.7-.64-2.72-.57-5.44-1.13-10.87-2.26c-29-5.78-58.35-10.25-87.82-13.15-58.95-5.89-118.45-5.55-177.44-.28-29.51,2.59-58.9,6.44-88.15,11.18s-58.36,10.24-87.39,16.16c-58.06,11.84-115.76,25.37-174,36.64-29.09,5.64-58.29,10.76-87.64,14.9s-58.85,7.25-88.44,9a880.65,880.65,0,0,1-88.89,1,812.2,812.2,0,0,1-88.48-8.47,825.79,825.79,0,0,1-87-18.07c-28.66-7.56-56.89-16.65-84.68-26.95l0-.09c55.64,20.34,113.16,35.7,171.76,44.4s118.09,10.77,177.2,7.24c29.56-1.77,59-4.84,88.37-9s58.52-9.23,87.6-14.86c58.17-11.26,115.93-24.55,174-36.28,29-5.87,58.17-11.35,87.43-16s58.67-8.46,88.17-11.17,59.14-4.18,88.77-4.25,59.28,1.28,88.78,4.15a872.58,872.58,0,0,1,87.92,13.06l10.88,2.29,5.44,1.14,2.72.57,2.7.64,21.62,5.16,21.48,5.74c3.59.91,7.12,2,10.68,3.07l10.66,3.16c28.36,8.62,56.33,18.48,83.9,29.35,27.5,11,54.54,23.19,81.24,36Z" style="fill:url(#未命名的渐变-7)"/><path d="M2361.39,741.63c-580-268.06-823.13,140-1391.33-65.77" style="fill:url(#未命名的渐变_2855-8)"/><path d="M2361.37,741.68q-40.4-18.37-81.93-34.07l-20.86-7.55c-7-2.45-14-4.71-21-7.08s-14.1-4.45-21.17-6.64c-3.54-1.07-7.07-2.18-10.61-3.22l-10.69-3a873.4,873.4,0,0,0-263.16-32.48c-29.57.82-59.09,3.06-88.49,6.39-58.82,6.59-117,18-174.87,30.1S1552.86,709.24,1494.48,719c-29.18,4.91-58.5,9.1-87.95,12.13s-59,4.91-88.61,5.43-59.22-.3-88.73-2.67-58.9-6.16-88-11.35C1082.81,712.33,1025.69,696,970,675.91l0-.09q41.81,14.89,84.64,26.64l10.72,2.84c3.58.93,7.13,2,10.74,2.76l21.58,5.14,21.71,4.58c1.81.4,3.62.74,5.44,1.07l5.45,1,10.91,2a926.71,926.71,0,0,0,176.63,13.76c29.57-.51,59.11-2.39,88.53-5.39s58.72-7.2,87.89-12.09,58.22-10.51,87.22-16.41,57.92-12.1,86.9-18.09,58-11.81,87.13-17,58.41-9.55,87.81-13,58.93-5.7,88.51-6.59a884.46,884.46,0,0,1,88.74,1.7,837.89,837.89,0,0,1,88.1,10.85c29.15,5.18,58,11.86,86.52,19.84l10.69,3c3.55,1,7.08,2.16,10.62,3.24,7.06,2.21,14.18,4.25,21.17,6.69s14,4.65,21,7.12l20.86,7.6c27.68,10.48,54.91,22.09,81.8,34.46Z" style="fill:url(#未命名的渐变-8)"/><path d="M2361.39,744.68C1792.56,495,1582.72,895,970.06,677.61" style="fill:url(#未命名的渐变_2855-9)"/><path d="M2361.37,744.72c-54.26-23.39-110-43.64-167.31-58a868.22,868.22,0,0,0-175-26.06c-29.51-1.32-59.09-1.06-88.59.56s-58.91,4.71-88.19,8.73c-58.58,8-116.45,20.29-174.3,32.35s-115.79,24.05-174.39,32.09-117.74,12.22-176.87,10.89q-44.34-1-88.48-5.92c-29.39-3.27-58.61-8-87.59-13.82s-57.73-12.81-86.19-20.78S997.92,687.49,970,677.65l0-.09q41.87,14.57,84.53,26.68,42.71,11.85,86.2,20.55a1015.61,1015.61,0,0,0,175.94,19.48c59.07,1.35,118.21-2.69,176.73-10.82,29.27-4,58.41-8.94,87.46-14.36s58-11.37,86.94-17.36,57.88-12,86.91-17.54,58.18-10.52,87.44-14.64,58.69-7.22,88.21-8.93,59.11-2,88.65-.74a823.4,823.4,0,0,1,88.25,8.46A886.44,886.44,0,0,1,2194.22,686q43,11,84.81,25.83c27.86,9.87,55.29,20.93,82.37,32.78Z" style="fill:url(#未命名的渐变-9)"/><path d="M2361.39,747.72C1803.72,516.4,1627.18,908.36,970.06,679.35" style="fill:url(#未命名的渐变_2855-10)"/><path d="M2361.37,747.77q-41-16.75-83.08-30.61c-28-9.19-56.49-17.22-85.27-23.75a860.61,860.61,0,0,0-87.17-15.26c-7.32-.91-14.67-1.57-22-2.39s-14.7-1.22-22.06-1.83c-7.37-.41-14.73-.86-22.1-1.2l-11.06-.34c-3.69-.1-7.37-.27-11.06-.26-59-.85-118,4.74-176.3,14.19-29.16,4.65-58.16,10.19-87.09,16.06l-86.76,17.85c-57.86,11.75-116.05,22.3-174.84,28.34a1094.85,1094.85,0,0,1-177,4.2c-59-3.33-117.61-12.11-175.32-24.59-28.86-6.28-57.45-13.72-85.86-21.8l-21.24-6.28c-3.55-1-7-2.2-10.57-3.3L1012,693.45l-10.55-3.36c-3.51-1.15-7-2.37-10.49-3.55l-21-7.14,0-.09,21,7c3.5,1.16,7,2.36,10.5,3.5l10.57,3.31,10.56,3.31c3.53,1.08,7,2.25,10.58,3.25l21.25,6.21c28.41,8,57,15.36,85.87,21.57s57.93,11.39,87.16,15.49l11,1.47c3.66.47,7.31,1,11,1.4l22,2.46,22,2,22.08,1.52a1093.91,1093.91,0,0,0,176.83-4.14c29.36-3,58.61-7.09,87.74-11.88s58.14-10.29,87.09-16.09c57.88-11.64,115.6-24.28,173.9-33.75s117.27-15.31,176.37-14.58a787.51,787.51,0,0,1,88.38,5.92,861.39,861.39,0,0,1,87.22,15.45c57.61,13.18,113.71,32.33,168.24,54.94Z" style="fill:url(#未命名的渐变-10)"/><path d="M2361.39,750.77C1814.88,537.82,1671.64,921.7,970.06,681.1" style="fill:url(#未命名的渐变_2855-11)"/><path d="M2361.37,750.81c-55.08-21.1-111.58-38.74-169.43-50.39a819.72,819.72,0,0,0-175.83-16.21c-29.49.41-58.94,2.61-88.24,5.92-14.66,1.61-29.27,3.67-43.86,5.82s-29.13,4.65-43.64,7.3c-29,5.2-57.94,11.15-86.82,17.14s-57.77,12-86.77,17.49c-58,11-116.43,19.87-175.36,23.68a1118.17,1118.17,0,0,1-176.89-2.25q-44.08-4.1-87.79-11.37l-10.91-1.86c-3.64-.62-7.28-1.21-10.9-1.94L1183.21,740c-7.23-1.46-14.44-3-21.66-4.57s-14.4-3.19-21.59-4.87c-14.4-3.24-28.67-7-43-10.61-7.13-1.89-14.23-3.89-21.35-5.83L1065,711.17,1054.37,708l-21.22-6.29-21.1-6.67-10.54-3.35L991,688.2l-21-7,0-.09,21,6.94,10.5,3.47,10.56,3.3,21.13,6.57,21.23,6.22,10.62,3.1,10.67,2.91c7.12,1.92,14.22,3.91,21.36,5.77,14.31,3.58,28.58,7.3,43,10.5,7.18,1.66,14.36,3.36,21.59,4.81s14.43,3.07,21.66,4.51l21.74,4.1c3.62.72,7.26,1.29,10.89,1.91l10.91,1.83c29.11,4.74,58.35,8.62,87.72,11.34a1117.23,1117.23,0,0,0,176.74,2.31c29.43-1.93,58.78-5,88-9s58.32-8.89,87.32-14.31c58-10.88,115.57-23.85,173.62-34.46,14.51-2.69,29.06-5.1,43.63-7.4s29.2-4.27,43.86-5.92c29.31-3.38,58.78-5.63,88.29-6.11a795.85,795.85,0,0,1,88.44,3.25,821.52,821.52,0,0,1,87.54,13c28.92,5.89,57.53,13.27,85.76,21.85s56.07,18.43,83.56,29.13Z" style="fill:url(#未命名的渐变-11)"/><path d="M2361.39,753.81C1826,559.24,1716.1,935,970.06,682.85" style="fill:url(#未命名的渐变_2855-12)"/><path d="M2361.37,753.86c-55.51-19.85-112.4-36.09-170.51-46.14a791.51,791.51,0,0,0-176.12-10.81c-3.68.2-7.36.34-11,.58l-11,.79-5.51.39-5.5.5-11,1c-3.67.35-7.33.79-11,1.19s-7.33.77-11,1.27c-7.31.94-14.63,1.82-21.91,2.92-14.6,2-29.14,4.47-43.67,7s-29,5.27-43.46,8.15c-28.93,5.67-57.76,11.85-86.65,17.79s-57.81,11.65-86.89,16.56-58.28,9.14-87.6,12.28-58.78,5.17-88.26,6-59,.57-88.46-.83-58.87-4-88.15-7.51c-3.66-.44-7.33-.84-11-1.32l-11-1.52c-7.3-1-14.62-2-21.89-3.18s-14.57-2.27-21.84-3.5l-21.77-3.92c-3.63-.63-7.25-1.36-10.86-2.09l-10.85-2.17-10.85-2.17-10.8-2.37c-7.2-1.6-14.41-3.11-21.59-4.79l-21.51-5.14c-28.62-7.09-57.13-14.67-85.38-23.12C1026,701.46,998,692.24,970,682.9l0-.09,21,6.87c7,2.28,14,4.62,21.06,6.75l21.13,6.53,5.28,1.63,5.31,1.55,10.61,3.1c28.27,8.38,56.79,15.88,85.42,22.89l21.52,5.08c7.18,1.66,14.4,3.15,21.59,4.74l10.8,2.34,10.84,2.14,10.84,2.14c3.61.72,7.23,1.44,10.86,2.06q43.47,8.09,87.39,13.4c29.26,3.53,58.64,6.16,88.08,7.54s58.93,1.71,88.39.86,58.89-2.81,88.21-5.88,58.52-7.19,87.59-12.06,58-10.51,86.91-16.41,57.74-12,86.65-17.78c14.45-2.91,28.95-5.62,43.46-8.25s29.06-5,43.67-7.05c7.29-1.11,14.61-2,21.92-3,3.65-.5,7.32-.86,11-1.29s7.33-.85,11-1.21l11-1,5.51-.51,5.52-.41,11-.81c3.68-.25,7.36-.4,11-.6a756.14,756.14,0,0,1,88.45.38A802.63,802.63,0,0,1,2191,707c29.05,5.09,57.83,11.72,86.25,19.59s56.47,17.06,84.18,27.14Z" style="fill:url(#未命名的渐变-12)"/><path d="M2361.39,756.86c-524.18-176.2-600.82,191.53-1391.33-72.27" style="fill:url(#未命名的渐变_2855-13)"/><path d="M2361.37,756.91c-55.94-18.51-113.23-33.28-171.58-41.64a774.08,774.08,0,0,0-176.29-5c-58.76,4.88-116.76,16.13-174.42,28.22-28.86,6-57.67,12.22-86.59,17.92s-58,10.84-87.13,15.06a1158,1158,0,0,1-176.29,12.43q-44.22-.32-88.35-3.87c-29.39-2.38-58.69-5.78-87.87-10-58.37-8.43-116.15-20.59-173.3-35-57.12-14.61-113.63-31.53-169.51-50.3l0-.09c56,18.45,112.52,35.22,169.66,49.7,7.14,1.83,14.32,3.48,21.47,5.23s14.32,3.49,21.52,5l21.57,4.81,21.64,4.46c28.89,5.76,57.88,11.1,87.06,15.23s58.44,7.63,87.8,10,58.82,3.67,88.28,3.9,58.93-.68,88.32-2.7,58.71-5.23,87.88-9.36c58.38-8.24,116.07-20.56,173.72-32.81s115.63-23.61,174.43-28.61c3.67-.37,7.35-.57,11-.85s7.35-.56,11-.76l11-.55,5.52-.26,5.53-.15,11.05-.3c3.69-.05,7.37,0,11.06-.06,7.37-.1,14.74.15,22.11.3a753,753,0,0,1,88.07,7.75c29.18,4.25,58.12,10.08,86.72,17.21s56.86,15.62,84.8,25Z" style="fill:url(#未命名的渐变-13)"/><path d="M519.21,694.25c398.93-137.18,806.74,211,1045.73,14.43l-1.15-38.47c-354,54.52-730.53-277.31-1044.59-37.93Z" style="stroke-miterlimit:10;fill:url(#未命名的渐变_2855-14);stroke:url(#未命名的渐变-14)"/><path d="M1563.8,670.21c-354,54.52-730.53-277.31-1044.59-37.93" style="fill:url(#未命名的渐变_2855-15)"/><path d="M1563.8,670.26a528.76,528.76,0,0,1-67.14,6.14,650.83,650.83,0,0,1-67.42-1.72c-44.87-3.39-89.35-10.84-133.25-20.54s-87.36-21.39-130.64-33.54l-64.91-18.29c-21.65-6.06-43.31-12-65.05-17.76-43.48-11.41-87.28-21.7-131.62-29.08s-89.25-11.63-134.18-10.21a485.61,485.61,0,0,0-67,6.67,414.43,414.43,0,0,0-65.19,16.71c-42.5,14.62-82.32,36.59-118.18,63.68l-.06-.08a443.84,443.84,0,0,1,56.42-36.87A409.58,409.58,0,0,1,637.18,568a415.26,415.26,0,0,1,65.26-17,474.28,474.28,0,0,1,67.12-6.71c45-1.4,90,2.91,134.36,10.28S992.08,572.5,1035.53,584c21.73,5.76,43.39,11.8,65,17.91s43.24,12.31,64.91,18.3c43.32,12,86.77,23.62,130.7,33.17q32.94,7.18,66.23,12.53c22.19,3.54,44.5,6.32,66.91,8.07,44.78,3.51,90,2.84,134.49-3.84Z" style="fill:url(#未命名的渐变-15)"/><path d="M1564,676.62c-334.87,78.19-716.58-256.36-1044.78-34" style="fill:url(#未命名的渐变_2855-16)"/><path d="M1564,676.67a454.18,454.18,0,0,1-66.3,10.48,557.39,557.39,0,0,1-67.14,1.44c-22.38-.82-44.72-2.83-66.93-5.71s-44.29-6.73-66.25-11.11c-43.92-8.8-87.32-19.93-130.55-31.58L1102,622.57c-21.61-5.86-43.22-11.67-64.91-17.23-43.36-11.11-87-21.19-131.18-28.55s-88.84-11.86-133.59-11.13S682.9,572.36,640,585.24a446.67,446.67,0,0,0-120.79,57.42l-.06-.08a456,456,0,0,1,58.09-33.63,433.42,433.42,0,0,1,62.54-24.4,453.22,453.22,0,0,1,65.55-14.61,514.12,514.12,0,0,1,67-5.27c44.83-.7,89.6,3.83,133.76,11.21s87.82,17.71,131.16,28.92c21.67,5.61,43.28,11.47,64.88,17.39s43.17,11.89,64.8,17.63c43.26,11.52,86.68,22.52,130.6,31.21q32.93,6.53,66.21,11c22.18,2.94,44.48,5,66.84,5.88,44.68,1.77,89.72-1.34,133.39-11.33Z" style="fill:url(#未命名的渐变-16)"/><path d="M1564.18,683c-315.69,101.87-702.63-235.41-1045-30.09" style="fill:url(#未命名的渐变_2855-17)"/><path d="M1564.19,683.08A394.35,394.35,0,0,1,1499,698.2a479.68,479.68,0,0,1-66.78,4.79c-44.7.2-89.27-5-133.18-13.07s-87.36-18.61-130.56-29.83L1103.73,643c-21.58-5.7-43.17-11.36-64.82-16.8C995.61,615.37,952.05,605.45,908,598s-88.51-12.17-133.14-12.2-89.29,4.72-132.51,15.84A470.12,470.12,0,0,0,519.24,653l-.05-.09a473,473,0,0,1,59.62-30.42,461.82,461.82,0,0,1,63.4-21.5A491.57,491.57,0,0,1,708,588.64a560.85,560.85,0,0,1,66.88-3.77c44.7,0,89.27,4.85,133.29,12.27S995.77,614.72,1039,625.7c21.64,5.49,43.22,11.2,64.79,17s43.13,11.54,64.75,17.07c43.24,11.09,86.67,21.56,130.6,29.45,22,4,44.06,7.17,66.24,9.51a629.11,629.11,0,0,0,66.8,3.62c44.58-.05,89.34-5.8,131.93-19.32Z" style="fill:url(#未命名的渐变-17)"/><path d="M1564.37,689.44C1267.85,815,875.7,475,519.21,663.27" style="fill:url(#未命名的渐变_2855-18)"/><path d="M1564.39,689.49a347,347,0,0,1-63.72,20,415.42,415.42,0,0,1-66.31,8.37,552.3,552.3,0,0,1-66.86-1.23c-22.24-1.67-44.37-4.59-66.38-8.17-44-7.23-87.48-17.36-130.71-28.21q-32.42-8.18-64.78-16.58c-21.58-5.56-43.17-11.12-64.8-16.47-43.27-10.7-86.76-20.54-130.68-28.1s-88.3-12.62-132.85-13.39-89.21,2.8-132.76,12.24a498.64,498.64,0,0,0-125.3,45.35l0-.09a490,490,0,0,1,125.2-46,534.88,534.88,0,0,1,66.09-10.19,612.43,612.43,0,0,1,66.84-2.32c44.62.8,89.06,5.89,133,13.47s87.42,17.66,130.66,28.47c21.63,5.4,43.2,11,64.77,16.62s43.13,11.25,64.77,16.59c43.26,10.72,86.74,20.72,130.74,27.83,22,3.56,44.12,6.31,66.32,8.06a551.51,551.51,0,0,0,66.76,1.4,414.82,414.82,0,0,0,66.24-8.18,353.11,353.11,0,0,0,63.79-19.61Z" style="fill:url(#未命名的渐变-18)"/><path d="M1564.56,695.86C1287.22,845.07,889.85,502.35,519.21,673.6" style="fill:url(#未命名的渐变_2855-19)"/><path d="M1564.59,695.9A310.32,310.32,0,0,1,1502.74,721c-5.33,1.66-10.78,2.85-16.19,4.2-2.7.71-5.44,1.22-8.17,1.77l-8.2,1.64c-2.74.49-5.5.89-8.26,1.34l-4.13.66c-1.38.22-2.75.45-4.14.59l-8.3,1-4.15.5-4.17.36c-44.47,4-89.31,1-133.37-5.55s-87.68-16.24-131-26.78q-32.47-8-64.86-16.21c-21.6-5.47-43.2-11-64.85-16.26-43.28-10.61-86.78-20.43-130.66-28.16s-88.19-13.2-132.72-14.75-89.22.85-133.08,8.7a532.67,532.67,0,0,0-127.28,39.59l0-.09a522.51,522.51,0,0,1,62.3-24.17,533.9,533.9,0,0,1,64.89-16,583.6,583.6,0,0,1,66.37-8.12,662.28,662.28,0,0,1,66.87-.84c44.58,1.58,88.94,7.09,132.84,14.83S999.84,657,1043.1,667.73c21.63,5.36,43.22,10.9,64.81,16.41s43.18,11,64.85,16.22c43.32,10.41,86.9,20,131,26.4,22,3.22,44.22,5.5,66.46,6.62a485.32,485.32,0,0,0,66.74-1l4.16-.35,4.15-.49,8.29-1c1.39-.14,2.76-.37,4.13-.58l4.13-.64c2.75-.44,5.51-.83,8.25-1.31l8.19-1.62c2.73-.54,5.47-1,8.16-1.74,5.4-1.34,10.85-2.5,16.17-4.15a315.13,315.13,0,0,0,61.94-24.73Z" style="fill:url(#未命名的渐变-19)"/><path d="M1564.75,702.27C1306.58,875.15,904,529.71,519.21,683.92" style="fill:url(#未命名的渐变_2855-20)"/><path d="M1564.78,702.31a282.79,282.79,0,0,1-59.51,30.38,307.83,307.83,0,0,1-64.94,16,413.58,413.58,0,0,1-66.83,3.66,621.58,621.58,0,0,1-66.74-5.36c-44.29-5.8-88-15.18-131.41-25.48s-86.64-21.48-130-32.08-86.88-20.48-130.78-28.48-88.2-13.85-132.75-16.17Q748.43,643,715,644.15A619.59,619.59,0,0,0,648.35,650a572.7,572.7,0,0,0-129.12,34l0-.09a555.9,555.9,0,0,1,63.48-21.17,578.49,578.49,0,0,1,65.57-13.47c44.2-6.5,89.07-7.8,133.64-5.46s89,8.24,132.87,16.24,87.42,18.16,130.75,28.85c21.67,5.34,43.3,10.83,64.93,16.29s43.28,10.88,65,16c43.44,10.17,87.16,19.41,131.42,25.09a650.73,650.73,0,0,0,66.66,5.24,412.81,412.81,0,0,0,66.72-3.47,307.23,307.23,0,0,0,64.86-15.76,286.7,286.7,0,0,0,59.63-30Z" style="fill:url(#未命名的渐变-20)"/><path d="M1564.95,708.68c-239,196.56-646.81-151.61-1045.73-14.43" style="fill:url(#未命名的渐变_2855-21)"/><path d="M1565,708.72a263.21,263.21,0,0,1-56.68,35.69c-2.5,1.27-5.13,2.24-7.7,3.35s-5.16,2.19-7.77,3.19l-7.91,2.83-4,1.41-4,1.22-8,2.43c-2.69.78-5.42,1.39-8.13,2.1l-4.07,1-2,.51-2.06.42-8.23,1.67c-2.74.61-5.51,1-8.27,1.45l-8.3,1.32-8.34,1c-2.78.32-5.56.7-8.35.87-5.58.42-11.16,1-16.76,1.12l-8.39.36-8.4.09c-11.2.16-22.4-.3-33.57-.92-5.59-.34-11.16-.84-16.75-1.25-5.57-.58-11.14-1.1-16.7-1.73-44.5-5.18-88.41-14.26-132-24.37s-87-21.23-130.43-31.88S961,690,917,681.67s-88.31-14.75-132.95-17.78-89.5-2.89-134,1.8A618.9,618.9,0,0,0,519.23,694.3l0-.09A595.68,595.68,0,0,1,583.78,676,627.69,627.69,0,0,1,650,665c22.26-2.43,44.64-3.73,67-4s44.79.44,67.12,2c44.69,3.06,89.06,9.59,133,17.86s87.59,18.56,131,29.3l65.13,16.27c21.71,5.42,43.44,10.79,65.25,15.77,43.61,10,87.53,18.92,132,24a565.86,565.86,0,0,0,66.93,3.79l8.38-.07,8.38-.34c5.59-.14,11.16-.67,16.73-1.07,2.79-.17,5.56-.54,8.34-.85l8.33-1,8.28-1.29c2.76-.43,5.53-.83,8.26-1.42l8.22-1.65,2.05-.41,2-.5,4.07-1c2.71-.7,5.44-1.3,8.12-2.07l8-2.4,4-1.21,4-1.4,7.9-2.8c2.61-1,5.17-2.11,7.76-3.16s5.2-2.06,7.69-3.32a266.53,266.53,0,0,0,56.83-35.31Z" style="fill:url(#未命名的渐变-21)"/><rect width="2606.82" height="1415.86" style="fill:none"/></g></g></svg>
