<svg xmlns="http://www.w3.org/2000/svg" xmlns:xlink="http://www.w3.org/1999/xlink" viewBox="0 0 2608.49 1417.81" preserveAspectRatio="none meet" ><defs><linearGradient id="未命名的渐变_2868" x1="531.49" y1="996.98" x2="1922.81" y2="996.98" gradientUnits="userSpaceOnUse"><stop offset="0" stop-color="#3b2a51"/><stop offset="1" stop-color="#376aea"/></linearGradient><linearGradient id="未命名的渐变" x1="530.99" y1="996.98" x2="1923.31" y2="996.98" gradientUnits="userSpaceOnUse"><stop offset="0" stop-color="#fff"/><stop offset="1"/></linearGradient><linearGradient id="未命名的渐变_2868-2" x1="531.49" y1="966.92" x2="1922.81" y2="966.92" xlink:href="#未命名的渐变_2868"/><linearGradient id="未命名的渐变-2" x1="531.46" y1="966.9" x2="1922.83" y2="966.9" xlink:href="#未命名的渐变"/><linearGradient id="未命名的渐变_2868-3" x1="531.49" y1="975.01" x2="1922.81" y2="975.01" xlink:href="#未命名的渐变_2868"/><linearGradient id="未命名的渐变-3" x1="531.46" y1="974.94" x2="1922.83" y2="974.94" xlink:href="#未命名的渐变"/><linearGradient id="未命名的渐变_2868-4" x1="531.49" y1="983.05" x2="1922.81" y2="983.05" xlink:href="#未命名的渐变_2868"/><linearGradient id="未命名的渐变-4" x1="531.46" y1="983" x2="1922.83" y2="983" xlink:href="#未命名的渐变"/><linearGradient id="未命名的渐变_2868-5" x1="531.49" y1="991.05" x2="1922.81" y2="991.05" xlink:href="#未命名的渐变_2868"/><linearGradient id="未命名的渐变-5" x1="531.46" y1="990.98" x2="1922.83" y2="990.98" xlink:href="#未命名的渐变"/><linearGradient id="未命名的渐变_2868-6" x1="531.49" y1="999" x2="1922.81" y2="999" xlink:href="#未命名的渐变_2868"/><linearGradient id="未命名的渐变-6" x1="531.46" y1="998.89" x2="1922.83" y2="998.89" xlink:href="#未命名的渐变"/><linearGradient id="未命名的渐变_2868-7" x1="531.49" y1="1006.88" x2="1922.81" y2="1006.88" xlink:href="#未命名的渐变_2868"/><linearGradient id="未命名的渐变-7" x1="531.47" y1="1006.79" x2="1922.83" y2="1006.79" xlink:href="#未命名的渐变"/><linearGradient id="未命名的渐变_2868-8" x1="531.49" y1="1014.7" x2="1922.81" y2="1014.7" xlink:href="#未命名的渐变_2868"/><linearGradient id="未命名的渐变-8" x1="531.47" y1="1014.58" x2="1922.83" y2="1014.58" xlink:href="#未命名的渐变"/><linearGradient id="未命名的渐变_2868-9" x1="531.49" y1="1022.63" x2="1922.81" y2="1022.63" xlink:href="#未命名的渐变_2868"/><linearGradient id="未命名的渐变-9" x1="531.47" y1="1022.7" x2="1922.83" y2="1022.7" xlink:href="#未命名的渐变"/><linearGradient id="未命名的渐变_2868-10" x1="531.49" y1="1033.3" x2="1922.81" y2="1033.3" xlink:href="#未命名的渐变_2868"/><linearGradient id="未命名的渐变-10" x1="531.47" y1="1033.35" x2="1922.83" y2="1033.35" xlink:href="#未命名的渐变"/><linearGradient id="未命名的渐变_2868-11" x1="531.49" y1="1042.75" x2="1922.81" y2="1042.75" xlink:href="#未命名的渐变_2868"/><linearGradient id="未命名的渐变-11" x1="531.47" y1="1042.95" x2="1922.83" y2="1042.95" xlink:href="#未命名的渐变"/><linearGradient id="未命名的渐变_2868-12" x1="531.49" y1="1048.51" x2="1922.81" y2="1048.51" xlink:href="#未命名的渐变_2868"/><linearGradient id="未命名的渐变-12" x1="531.47" y1="1048.7" x2="1922.83" y2="1048.7" xlink:href="#未命名的渐变"/><linearGradient id="未命名的渐变_2868-13" x1="531.49" y1="1054.43" x2="1922.81" y2="1054.43" xlink:href="#未命名的渐变_2868"/><linearGradient id="未命名的渐变-13" x1="531.47" y1="1054.62" x2="1922.83" y2="1054.62" xlink:href="#未命名的渐变"/><linearGradient id="未命名的渐变_2868-14" x1="209.27" y1="1019.79" x2="1307.68" y2="1019.79" xlink:href="#未命名的渐变_2868"/><linearGradient id="未命名的渐变-14" x1="208.77" y1="1019.54" x2="1307.91" y2="1019.54" xlink:href="#未命名的渐变"/><linearGradient id="未命名的渐变-15" x1="211.71" y1="958.51" x2="1307.69" y2="958.51" xlink:href="#未命名的渐变"/><linearGradient id="未命名的渐变-16" x1="211.08" y1="970.88" x2="1307.83" y2="970.88" xlink:href="#未命名的渐变"/><linearGradient id="未命名的渐变-17" x1="210.9" y1="983.26" x2="1307.84" y2="983.26" xlink:href="#未命名的渐变"/><linearGradient id="未命名的渐变-18" x1="210.73" y1="995.64" x2="1307.84" y2="995.64" xlink:href="#未命名的渐变"/><linearGradient id="未命名的渐变-19" x1="210.55" y1="1008.02" x2="1307.85" y2="1008.02" xlink:href="#未命名的渐变"/><linearGradient id="未命名的渐变-20" x1="210.37" y1="1020.4" x2="1307.86" y2="1020.4" xlink:href="#未命名的渐变"/><linearGradient id="未命名的渐变-21" x1="210.19" y1="1032.77" x2="1307.86" y2="1032.77" xlink:href="#未命名的渐变"/><linearGradient id="未命名的渐变-22" x1="210.02" y1="1045.15" x2="1307.87" y2="1045.15" xlink:href="#未命名的渐变"/><linearGradient id="未命名的渐变-23" x1="209.84" y1="1057.53" x2="1307.87" y2="1057.53" xlink:href="#未命名的渐变"/><linearGradient id="未命名的渐变-24" x1="209.66" y1="1069.91" x2="1307.88" y2="1069.91" xlink:href="#未命名的渐变"/><linearGradient id="未命名的渐变-25" x1="209.48" y1="1074.31" x2="1307.89" y2="1074.31" xlink:href="#未命名的渐变"/><linearGradient id="未命名的渐变-26" x1="209.31" y1="1078.67" x2="1307.89" y2="1078.67" xlink:href="#未命名的渐变"/><linearGradient id="未命名的渐变-27" x1="209.13" y1="1083.03" x2="1307.9" y2="1083.03" xlink:href="#未命名的渐变"/><linearGradient id="未命名的渐变-28" x1="208.95" y1="1087.39" x2="1307.9" y2="1087.39" xlink:href="#未命名的渐变"/><linearGradient id="未命名的渐变-29" x1="209.22" y1="1091.95" x2="1307.7" y2="1091.95" xlink:href="#未命名的渐变"/><linearGradient id="未命名的渐变_2838" x1="790.01" y1="1700.48" x2="2408.4" y2="766.11" gradientUnits="userSpaceOnUse"><stop offset="0" stop-color="#0bd69f"/><stop offset="1" stop-color="#482caa"/></linearGradient><linearGradient id="未命名的渐变-30" x1="488.02" y1="1122.44" x2="2607.32" y2="1122.44" xlink:href="#未命名的渐变"/></defs><title>资源 9lighthouse</title><g id="图层_2" data-name="图层 2"><g id="图层_1-2" data-name="图层 1"><path d="M1922.81,1005c-790.5,263.79-867.15-103.94-1391.33,72.27v-33.5c647-378.3,1089.89,78.26,1391.33-58Z" style="stroke-miterlimit:10;fill:url(#未命名的渐变_2868);stroke:url(#未命名的渐变)"/><path d="M531.49,1043.76c647-378.3,1089.89,78.26,1391.33-58" style="fill:url(#未命名的渐变_2868-2)"/><path d="M531.46,1043.72l19.48-11.12,9.74-5.56c3.27-1.82,6.58-3.55,9.87-5.33l19.77-10.61c6.65-3.42,13.36-6.72,20-10.09l10-5,10.15-4.77,20.33-9.48,20.58-8.94,5.14-2.23,2.57-1.12,2.6-1,10.41-4.18L702.6,960l5.21-2.09,5.26-2,21-7.78c1.75-.67,3.52-1.27,5.29-1.86l5.31-1.8,10.63-3.59c3.55-1.18,7.07-2.44,10.64-3.55l10.73-3.29,10.73-3.29,5.37-1.63,5.41-1.49,21.64-5.94,21.8-5.33,5.45-1.33,5.48-1.18,11-2.36c29.27-6.17,58.8-11.16,88.52-14.67s59.58-5.6,89.48-6.45,59.83-.45,89.71,1.13,59.68,4.39,89.35,8.2c59.36,7.6,118.14,19.19,176.36,32.91s116,29.4,174,43.89q21.76,5.45,43.61,10.51c14.58,3.31,29.18,6.54,43.84,9.45l11,2.18,11,2c7.34,1.4,14.74,2.47,22.11,3.7,14.79,2.16,29.61,4.17,44.51,5.36,7.44.75,14.9,1.06,22.36,1.52,3.73.19,7.47.22,11.2.33l5.6.14c1.87,0,3.74,0,5.6,0l11.21-.12,11.19-.55c1.86-.11,3.73-.14,5.59-.32l5.58-.51,5.58-.51,2.79-.25c.93-.09,1.85-.24,2.78-.36l11.1-1.51c1.86-.21,3.69-.6,5.52-.93l5.51-1,5.51-1c1.83-.39,3.64-.85,5.46-1.27l5.45-1.29,2.73-.64c.91-.21,1.82-.42,2.71-.7a308.22,308.22,0,0,0,42.23-15l0,.09a308.44,308.44,0,0,1-42.19,15.17c-.89.28-1.8.5-2.71.72l-2.73.66-5.45,1.32c-1.82.43-3.63.9-5.46,1.3l-5.51,1-5.51,1c-1.84.34-3.67.73-5.53.95l-11.12,1.55c-.93.12-1.85.28-2.78.37l-2.79.26-5.59.52-5.59.52c-1.86.19-3.73.22-5.6.34l-11.21.58-11.22.15c-1.87,0-3.74.08-5.61,0l-5.61-.13c-3.74-.11-7.48-.12-11.22-.3-7.47-.44-14.95-.73-22.4-1.47-14.92-1.16-29.76-3.13-44.57-5.25-7.38-1.21-14.79-2.26-22.14-3.64l-11-2-11-2.15c-29.36-5.75-58.47-12.71-87.49-19.94-58-14.51-115.75-30.28-174-43.95-29.11-6.84-58.32-13.24-87.69-18.88s-58.88-10.5-88.53-14.37c-59.29-7.74-119.18-11.37-179-9.5q-44.83,1.37-89.43,6.65c-29.69,3.57-59.19,8.61-88.43,14.84l-11,2.38-5.48,1.19-5.44,1.34-21.77,5.37-21.61,6-5.4,1.49-5.37,1.62L777,934.93l-10.72,3.27c-3.57,1.11-7.09,2.36-10.64,3.53L745,945.3l-5.31,1.79c-1.77.59-3.54,1.19-5.29,1.85l-21,7.74-5.26,1.94-5.21,2.08-10.41,4.16L682,969l-2.6,1-2.57,1.11-5.15,2.22-20.59,8.89-20.34,9.44-10.16,4.74-10,5-20.06,10L570.71,1022c-3.3,1.76-6.62,3.48-9.9,5.28l-9.77,5.51-19.54,11Z" style="fill:url(#未命名的渐变-2)"/><path d="M531.49,1046.8c635.81-359.93,1045.43,88.56,1391.33-59.28" style="fill:url(#未命名的渐变_2868-3)"/><path d="M531.46,1046.76c52-29.34,105.72-55.65,161.52-76.95l10.44-4c3.5-1.31,7-2.52,10.53-3.79l10.54-3.76c3.52-1.23,7-2.57,10.57-3.68l21.29-6.93c3.53-1.2,7.14-2.18,10.71-3.25l10.74-3.17c3.59-1,7.14-2.16,10.75-3.11l10.82-2.86c7.22-1.88,14.42-3.87,21.71-5.48l10.9-2.54,5.45-1.27,2.73-.63,2.74-.56,21.94-4.48a988.23,988.23,0,0,1,178-17.22q44.77-.21,89.46,3.21c29.76,2.25,59.43,5.65,89,10,59.07,8.64,117.54,21,175.6,34.83S1512.69,980,1571,992.91c29.12,6.46,58.42,12.16,87.91,16.66,14.73,2.32,29.55,4.07,44.38,5.62l11.14.95,5.57.47c1.86.14,3.72.22,5.58.34l11.16.64c3.72.18,7.45.23,11.18.35,7.45.32,14.91.16,22.36.16,1.86,0,3.73,0,5.59-.13l5.59-.21,5.59-.21,2.79-.11,2.79-.21,11.15-.83,2.79-.21c.93-.08,1.85-.2,2.78-.3l5.56-.63,5.56-.63c1.85-.2,3.71-.41,5.54-.72l11.05-1.71c3.7-.5,7.33-1.33,11-2l5.49-1.09c1.83-.37,3.67-.69,5.47-1.16,7.23-1.81,14.53-3.37,21.65-5.6,3.57-1.07,7.18-2,10.72-3.19l10.58-3.63c1.76-.62,3.54-1.18,5.28-1.85l5.2-2.06,10.4-4.13,0,.09-10.38,4.18-5.19,2.09c-1.74.68-3.52,1.25-5.27,1.87l-10.57,3.68c-3.54,1.17-7.14,2.16-10.71,3.24-7.11,2.27-14.41,3.87-21.65,5.71-1.8.49-3.64.81-5.47,1.19l-5.49,1.1c-3.66.71-7.3,1.55-11,2.06l-11.06,1.74c-1.84.32-3.69.53-5.55.74l-5.56.64-5.56.64c-.93.1-1.85.22-2.78.31l-2.79.21-11.16.86-2.79.21-2.8.11-5.59.23-5.59.23c-1.86.08-3.73.16-5.6.14-7.46,0-14.93.19-22.39-.1-3.73-.11-7.46-.15-11.19-.33l-11.18-.62c-1.86-.11-3.73-.19-5.59-.32l-5.58-.46-11.16-.92c-14.85-1.51-29.69-3.23-44.44-5.51-29.53-4.41-58.83-10.2-88-16.65-58.29-12.91-116-28.1-174.08-41.89-29-6.9-58.12-13.52-87.36-19.49s-58.6-11.29-88.11-15.68c-59-8.75-118.65-13.84-178.33-13.36A989.33,989.33,0,0,0,865,921c-29.29,5.65-58.27,12.83-87,21l-10.74,3.14c-3.57,1.07-7.17,2-10.71,3.23l-21.29,6.88c-3.56,1.1-7,2.43-10.57,3.65l-10.54,3.74c-3.51,1.26-7,2.46-10.53,3.76l-10.44,4-10.44,4-5.22,2c-1.74.66-3.45,1.42-5.17,2.13l-20.65,8.62c-3.46,1.4-6.84,3-10.24,4.49l-10.2,4.59-10.2,4.59c-3.4,1.54-6.73,3.22-10.1,4.82l-20.16,9.71-19.91,10.21-10,5.11-9.82,5.36-19.64,10.73Z" style="fill:url(#未命名的渐变-3)"/><path d="M531.49,1049.85c624.64-341.55,1001,98.85,1391.33-60.57" style="fill:url(#未命名的渐变_2868-4)"/><path d="M531.46,1049.81l19.7-10.52L561,1034l10-5c6.66-3.32,13.29-6.72,20-10l20.23-9.47c6.71-3.24,13.59-6.09,20.4-9.1s13.61-6,20.55-8.76l20.71-8.38,20.92-7.83c28-10.15,56.36-19.35,85.14-27.08s57.93-14,87.29-19a949.08,949.08,0,0,1,178-13.14q44.67.83,89.17,5.2c29.64,2.88,59.18,6.87,88.57,11.69,58.8,9.62,117,22.58,174.94,36.26s115.83,27.85,174.37,38.77c29.27,5.43,58.72,9.88,88.33,12.93l5.55.59c1.85.19,3.71.32,5.56.48l11.12.92,2.78.23,2.79.16,5.57.32c3.71.2,7.43.46,11.14.61,14.87.51,29.76.84,44.63.3a496.6,496.6,0,0,0,174-35.49l0,.09a482.75,482.75,0,0,1-85.37,26l-5.47,1.16c-1.83.35-3.67.64-5.5,1l-11,1.89c-1.83.34-3.68.59-5.52.83l-5.54.74c-3.69.47-7.38,1-11.08,1.43l-11.12,1.09-5.56.55-5.58.36-11.15.71c-3.72.23-7.44.26-11.17.41-14.89.57-29.8.28-44.69-.19-3.72-.14-7.44-.39-11.16-.58l-5.58-.31-2.79-.15-2.78-.22-11.14-.89c-1.86-.16-3.71-.28-5.57-.46l-5.56-.57c-29.65-3-59.12-7.5-88.41-12.92-58.58-10.95-116.44-25.19-174.41-38.85s-116.06-26.87-174.82-36.61-118.1-16.16-177.66-17a950.06,950.06,0,0,0-177.84,13.51c-29.34,5-58.42,11.52-87.19,19.11S722,966.07,694,976.16l-20.93,7.78-20.71,8.33c-6.94,2.69-13.72,5.78-20.56,8.71s-13.7,5.83-20.41,9.05l-20.25,9.41c-6.71,3.21-13.35,6.58-20,9.87l-10,5-9.88,5.2-19.75,10.42Z" style="fill:url(#未命名的渐变-4)"/><path d="M531.49,1052.9C1145,729.72,1488,1162,1922.81,991" style="fill:url(#未命名的渐变_2868-5)"/><path d="M531.46,1052.85l19.82-10.2c3.31-1.69,6.59-3.43,9.93-5.07l10-4.85,10-4.85c3.35-1.6,6.67-3.28,10.08-4.77l20.33-9.16c1.7-.75,3.38-1.55,5.09-2.27l5.14-2.16,10.28-4.31,10.28-4.31c3.45-1.39,6.92-2.7,10.38-4.06l10.39-4c3.47-1.33,6.91-2.74,10.43-4l21-7.52c28.13-9.64,56.64-18.15,85.49-25.35a884.08,884.08,0,0,1,87.5-17.18,948.91,948.91,0,0,1,177.9-8.89q44.55,1.9,88.87,7.23c29.52,3.5,58.91,8,88.17,13.3,58.53,10.5,116.5,23.84,174.44,37.06s116,26.1,174.85,34.69c29.4,4.27,59,7.39,88.64,9l5.56.32,5.57.18,11.13.36,2.78.09,2.78,0,5.57,0,11.14.06,11.14-.24c3.71-.11,7.43-.09,11.13-.33l11.13-.57,5.56-.29,5.55-.46a605.68,605.68,0,0,0,88.05-13.2A597.23,597.23,0,0,0,1922.8,991l0,.09a590.12,590.12,0,0,1-85.07,26.52,606.3,606.3,0,0,1-88.11,13.44l-5.56.47-5.57.31-11.14.6c-3.71.25-7.43.24-11.15.36l-11.15.27-11.15,0-5.58,0h-2.79l-2.79-.08-11.15-.33-5.57-.17-5.57-.3c-29.71-1.48-59.31-4.68-88.73-8.94-58.86-8.62-117-21.58-174.91-34.76S1281,961.59,1222.52,951s-117.54-18.39-177-20.69a949.89,949.89,0,0,0-177.78,9.26C809,948.16,751.15,962.84,694.91,982l-21,7.47c-3.52,1.2-7,2.6-10.43,3.93l-10.39,4c-3.46,1.35-6.94,2.66-10.39,4l-10.28,4.29L622.13,1010l-5.14,2.14c-1.71.71-3.4,1.51-5.09,2.25l-20.35,9.1c-3.41,1.47-6.74,3.13-10.1,4.72L571.4,1033l-10.06,4.8c-3.34,1.62-6.63,3.35-10,5l-19.87,10.1Z" style="fill:url(#未命名的渐变-5)"/><path d="M531.49,1055.94c602.32-304.81,912.05,119.45,1391.33-63.17" style="fill:url(#未命名的渐变_2868-6)"/><path d="M531.46,1055.9l20-9.86c3.34-1.62,6.63-3.34,10-4.88l10.09-4.68,10.1-4.68,5-2.34,5.1-2.22,20.43-8.84c27.41-11.38,55.22-21.81,83.43-31a914.17,914.17,0,0,1,351.32-43.29c29.61,2,59.14,5.16,88.53,9.26s58.65,9.15,87.79,14.77c58.29,11.21,116.11,24.69,174.13,37.11,29,6.2,58.1,12.08,87.32,17.2,3.65.67,7.31,1.28,11,1.87l11,1.81c7.32,1.17,14.66,2.23,22,3.35s14.69,2,22.05,2.93l11,1.29c3.68.44,7.36.87,11.06,1.21,59,6.06,118.63,7,177.58.17a724.59,724.59,0,0,0,172.42-42.29l0,.09a738.86,738.86,0,0,1-84.84,26.84,704.75,704.75,0,0,1-87.53,16.08,741.84,741.84,0,0,1-88.88,5,889.86,889.86,0,0,1-88.89-4.9c-3.7-.34-7.38-.77-11.07-1.21l-11.06-1.3c-7.36-.92-14.71-2-22.07-2.94s-14.68-2.18-22-3.36l-11-1.82c-3.66-.6-7.32-1.21-11-1.88-29.24-5.13-58.33-11-87.35-17.24s-58-12.75-86.94-19.15-58-12.64-87.1-18.31c-58.23-11.32-117-20.41-176.24-24.19a936.63,936.63,0,0,0-177.65,4.85c-29.44,3.66-58.67,8.87-87.61,15.33s-57.6,14.25-85.82,23.38-56,19.54-83.44,30.86-54.29,24-80.87,37.13Z" style="fill:url(#未命名的渐变-6)"/><path d="M531.49,1059c591.15-286.44,867.59,129.75,1391.33-64.47" style="fill:url(#未命名的渐变_2868-7)"/><path d="M531.47,1058.94c26.69-12.86,53.74-25,81.24-36,27.57-10.87,55.54-20.73,83.9-29.35l10.66-3.16c3.56-1,7.09-2.16,10.68-3.07l21.48-5.74L761,976.41l2.7-.64,2.72-.57L771.9,974l10.88-2.29a872.59,872.59,0,0,1,87.92-13.06q44.25-4.3,88.78-4.15c29.64.07,59.26,1.57,88.77,4.25s58.92,6.49,88.17,11.17,58.39,10.14,87.43,16c58.09,11.73,115.85,25,174,36.28,29.08,5.63,58.27,10.73,87.6,14.86s58.81,7.22,88.37,9c59.11,3.53,118.61,1.54,177.2-7.24s116.12-24.06,171.76-44.4l0,.09c-27.78,10.3-56,19.39-84.68,26.95a825.81,825.81,0,0,1-87,18.07,812.21,812.21,0,0,1-88.48,8.47,880.67,880.67,0,0,1-88.89-1c-29.59-1.78-59.09-4.86-88.44-9s-58.55-9.26-87.64-14.9c-58.19-11.26-115.9-24.8-174-36.64-29-5.92-58.14-11.45-87.39-16.16s-58.64-8.59-88.15-11.18c-59-5.28-118.49-5.61-177.44.28-29.47,2.9-58.78,7.38-87.82,13.15l-10.87,2.26L766.64,976l-2.72.57-2.7.64-21.61,5.11L718.13,988c-3.59.9-7.12,2-10.68,3L696.8,994.2c-28.35,8.56-56.33,18.36-83.91,29.17q-41.26,16.49-81.38,35.67Z" style="fill:url(#未命名的渐变-7)"/><path d="M531.49,1062c580-268.06,823.13,140,1391.33-65.77" style="fill:url(#未命名的渐变_2868-8)"/><path d="M531.47,1062c26.88-12.36,54.11-24,81.8-34.46l20.86-7.6c7-2.47,14-4.74,21-7.12s14.1-4.48,21.17-6.69c3.54-1.08,7.07-2.19,10.62-3.24l10.69-3c28.5-8,57.37-14.66,86.52-19.84a837.87,837.87,0,0,1,88.1-10.85,884.48,884.48,0,0,1,88.74-1.7c29.59.89,59.12,3.19,88.51,6.59s58.67,7.83,87.81,13,58.16,11,87.13,17,57.91,12.19,86.9,18.09,58,11.49,87.22,16.41,58.47,9.08,87.89,12.09,59,4.89,88.53,5.39a926.71,926.71,0,0,0,176.63-13.76l10.91-2,5.45-1c1.82-.33,3.64-.67,5.44-1.07l21.71-4.58,21.58-5.14c3.61-.81,7.16-1.84,10.74-2.76l10.72-2.84q42.81-11.68,84.64-26.64l0,.09c-55.64,20.09-112.77,36.43-171.1,46.66q-43.71,7.78-88,11.35c-29.51,2.37-59.14,3.18-88.73,2.67s-59.17-2.41-88.61-5.43-58.76-7.22-87.95-12.13c-58.39-9.79-116.17-22.73-174.08-34.86s-116-23.51-174.87-30.1c-29.39-3.33-58.92-5.57-88.49-6.39a873.41,873.41,0,0,0-263.16,32.48l-10.69,3c-3.55,1-7.08,2.15-10.61,3.22-7.06,2.19-14.18,4.21-21.17,6.64s-14,4.62-21,7.08L613.44,1028q-41.53,15.63-81.93,34.07Z" style="fill:url(#未命名的渐变-8)"/><path d="M531.49,1065.08c568.83-249.69,778.67,150.34,1391.33-67.07" style="fill:url(#未命名的渐变_2868-9)"/><path d="M531.47,1065c27.08-11.84,54.51-22.9,82.37-32.78s56.18-18.49,84.81-25.83a886.45,886.45,0,0,1,86.88-17.69,823.4,823.4,0,0,1,88.25-8.46c29.54-1.26,59.14-.95,88.65.74s58.93,4.85,88.21,8.93,58.41,9.1,87.44,14.64,58,11.55,86.91,17.55,57.89,11.94,86.94,17.36,58.19,10.33,87.46,14.36c58.52,8.13,117.65,12.17,176.73,10.82a1015.62,1015.62,0,0,0,175.94-19.47q43.46-8.65,86.2-20.55T1922.8,998l0,.09c-27.87,9.83-56,19-84.43,27.07s-57.21,14.94-86.19,20.78-58.2,10.54-87.59,13.82-58.92,5.26-88.48,5.92c-59.13,1.33-118.32-2.74-176.87-10.89s-116.55-20-174.39-32.09-115.72-24.36-174.3-32.35c-29.27-4-58.69-7.08-88.19-8.73s-59.08-1.87-88.59-.56a868.22,868.22,0,0,0-175,26.06c-57.33,14.39-113.06,34.64-167.31,58Z" style="fill:url(#未命名的渐变-9)"/><path d="M531.49,1068.13c557.67-231.32,734.21,160.64,1391.33-68.37" style="fill:url(#未命名的渐变_2868-10)"/><path d="M531.47,1068.08c54.53-22.61,110.63-41.76,168.24-54.94a861.4,861.4,0,0,1,87.22-15.45,787.51,787.51,0,0,1,88.38-5.92c59.1-.73,118.12,5,176.37,14.58s116,22.11,173.9,33.75c28.95,5.8,58,11.31,87.09,16.09s58.38,8.84,87.74,11.88a1093.9,1093.9,0,0,0,176.83,4.14l22.08-1.52,22-2,22-2.46c3.67-.38,7.32-.93,11-1.4l11-1.47c29.23-4.1,58.29-9.33,87.16-15.49s57.46-13.57,85.87-21.57l21.25-6.21c3.55-1,7.06-2.17,10.58-3.25l10.56-3.31,10.57-3.31c3.51-1.13,7-2.33,10.5-3.5l21-7,0,.09-21,7.14c-3.5,1.18-7,2.4-10.49,3.55l-10.55,3.36-10.55,3.36c-3.52,1.1-7,2.29-10.57,3.3l-21.24,6.28c-28.4,8.07-57,15.51-85.86,21.8-57.72,12.48-116.32,21.26-175.32,24.59a1094.85,1094.85,0,0,1-177-4.2c-58.78-6-117-16.59-174.84-28.34l-86.76-17.85c-28.93-5.88-57.94-11.42-87.09-16.06-58.26-9.46-117.26-15-176.3-14.19-3.69,0-7.38.16-11.06.26l-11.06.34c-7.37.34-14.73.79-22.1,1.2-7.35.61-14.71,1.15-22.06,1.83s-14.68,1.48-22,2.39a860.62,860.62,0,0,0-87.17,15.26c-28.79,6.52-57.22,14.56-85.27,23.75s-55.75,19.45-83.08,30.61Z" style="fill:url(#未命名的渐变-10)"/><path d="M531.49,1071.17c546.5-212.95,689.75,170.93,1391.33-69.67" style="fill:url(#未命名的渐变_2868-11)"/><path d="M531.47,1071.13C559,1060.43,586.8,1050.57,615,1042s56.84-16,85.76-21.85a821.52,821.52,0,0,1,87.54-13,795.86,795.86,0,0,1,88.44-3.25c29.52.47,59,2.73,88.29,6.11,14.66,1.64,29.27,3.74,43.86,5.92s29.13,4.72,43.63,7.4c58.05,10.61,115.64,23.58,173.62,34.46,29,5.42,58.09,10.32,87.32,14.31s58.57,7.07,88,9a1117.23,1117.23,0,0,0,176.74-2.31c29.37-2.72,58.62-6.6,87.72-11.34l10.91-1.83c3.64-.61,7.28-1.19,10.89-1.91l21.74-4.1c7.23-1.44,14.44-3,21.66-4.51s14.41-3.15,21.59-4.81c14.4-3.2,28.67-6.91,43-10.5,7.13-1.87,14.24-3.85,21.36-5.77l10.67-2.91,10.62-3.1,21.23-6.22,21.13-6.57,10.56-3.3,10.5-3.47,21-6.94,0,.09-21,7-10.49,3.52-10.54,3.35-21.1,6.67-21.22,6.29-10.61,3.13-10.67,2.93c-7.12,1.94-14.22,3.94-21.35,5.83-14.3,3.62-28.57,7.38-43,10.61-7.18,1.68-14.36,3.4-21.59,4.87s-14.43,3.11-21.66,4.57l-21.74,4.16c-3.62.73-7.26,1.31-10.9,1.94l-10.91,1.86q-43.67,7.25-87.79,11.37a1118.17,1118.17,0,0,1-176.89,2.25c-58.93-3.81-117.4-12.69-175.36-23.68-29-5.48-57.87-11.51-86.77-17.49s-57.79-11.94-86.82-17.14c-14.51-2.65-29.07-5-43.64-7.3s-29.2-4.21-43.86-5.82c-29.3-3.31-58.75-5.51-88.24-5.92a819.72,819.72,0,0,0-175.83,16.21c-57.84,11.66-114.35,29.29-169.43,50.39Z" style="fill:url(#未命名的渐变-11)"/><path d="M531.49,1074.22c535.34-194.57,645.29,181.23,1391.33-71" style="fill:url(#未命名的渐变_2868-12)"/><path d="M531.47,1074.17c27.71-10.07,55.75-19.27,84.18-27.14s57.19-14.5,86.25-19.59a802.66,802.66,0,0,1,87.82-10.51,756.15,756.15,0,0,1,88.45-.38c3.68.2,7.37.36,11,.6l11,.81,5.52.41,5.51.51,11,1c3.67.36,7.33.81,11,1.21s7.33.78,11,1.29c7.31,1,14.63,1.85,21.92,3,14.6,2.05,29.14,4.53,43.67,7.05s29,5.34,43.46,8.25c28.92,5.78,57.76,11.9,86.65,17.78s57.83,11.55,86.91,16.41,58.28,9,87.59,12.06,58.75,5,88.21,5.88,59,.55,88.39-.86,58.82-4,88.08-7.54,58.41-8,87.39-13.4c3.63-.62,7.24-1.34,10.86-2.06l10.84-2.14,10.84-2.14,10.8-2.34c7.2-1.58,14.41-3.08,21.59-4.74l21.52-5.08c28.63-7,57.15-14.51,85.42-22.89l10.61-3.1,5.31-1.55,5.28-1.63,21.13-6.53c7.06-2.13,14-4.46,21.06-6.75l21-6.87,0,.09c-28,9.34-56,18.57-84.3,26.8-28.25,8.45-56.76,16-85.38,23.12l-21.51,5.14c-7.18,1.68-14.4,3.19-21.59,4.79l-10.8,2.37-10.85,2.17-10.85,2.17c-3.61.72-7.23,1.46-10.86,2.09l-21.77,3.92c-7.27,1.23-14.56,2.33-21.84,3.5s-14.59,2.15-21.89,3.18l-11,1.52c-3.66.47-7.32.88-11,1.32-29.28,3.53-58.68,6.14-88.15,7.51s-59,1.69-88.46.83-58.93-2.88-88.26-6-58.53-7.34-87.6-12.28-58-10.61-86.89-16.56-57.71-12.12-86.65-17.79c-14.46-2.88-29-5.56-43.46-8.15s-29.07-4.93-43.67-7c-7.29-1.1-14.61-2-21.91-2.92-3.65-.5-7.32-.85-11-1.27s-7.32-.83-11-1.19l-11-1-5.5-.5-5.51-.39-11-.79c-3.68-.24-7.36-.39-11-.58A791.51,791.51,0,0,0,702,1028.12c-58.11,10.05-115,26.3-170.51,46.14Z" style="fill:url(#未命名的渐变-12)"/><path d="M531.49,1077.26c524.18-176.2,600.82,191.53,1391.33-72.27" style="fill:url(#未命名的渐变_2868-13)"/><path d="M531.47,1077.22c27.93-9.4,56.19-17.9,84.8-25s57.54-13,86.72-17.21a753,753,0,0,1,88.07-7.75c7.37-.16,14.74-.41,22.11-.3,3.69,0,7.37,0,11.06.06l11.05.3,5.53.15,5.52.26,11,.55c3.68.2,7.35.51,11,.76s7.36.48,11,.85c58.8,5,116.8,16.39,174.43,28.61s115.34,24.57,173.72,32.81c29.17,4.14,58.48,7.38,87.88,9.36s58.86,2.9,88.32,2.7,58.92-1.49,88.28-3.9,58.65-5.8,87.8-10,58.17-9.47,87.06-15.23l21.64-4.46,21.57-4.81c7.2-1.55,14.36-3.32,21.52-5s14.34-3.4,21.47-5.23c57.13-14.47,113.68-31.24,169.66-49.7l0,.09c-55.88,18.77-112.39,35.69-169.51,50.3-57.15,14.45-114.93,26.62-173.3,35-29.18,4.22-58.48,7.62-87.87,10s-58.87,3.65-88.35,3.87a1158,1158,0,0,1-176.29-12.43c-29.18-4.22-58.22-9.32-87.13-15.06s-57.73-11.92-86.59-17.92c-57.66-12.09-115.66-23.35-174.42-28.22a774.09,774.09,0,0,0-176.29,5c-58.35,8.36-115.64,23.14-171.58,41.64Z" style="fill:url(#未命名的渐变-13)"/><path d="M211.76,1055.53c9.85-483.78,576.82,111.76,1095.92-49.19C779.44,1281.2,214.17,937.05,209.27,1177.6Z" style="stroke-miterlimit:10;fill:url(#未命名的渐变_2868-14);stroke:url(#未命名的渐变-14)"/><path d="M1307.69,1006.39q-18.71,5.79-37.73,10.48c-12.69,3.1-25.48,5.75-38.33,8s-25.79,4.12-38.76,5.64c-6.48.79-13,1.37-19.49,2s-13,1-19.54,1.39a774.56,774.56,0,0,1-78.32.52c-26.1-1.16-52.13-3.56-78-7-51.8-6.82-103-17.6-153.53-30.75-25.27-6.58-50.39-13.71-75.4-21.19S718.68,960.1,693.87,952c-49.64-16.21-99-33.32-148.69-49.26-24.86-7.94-49.84-15.53-75.08-22.16S419.34,868.28,393.46,865a300.54,300.54,0,0,0-39-2.51c-6.51,0-13,.31-19.5,1a158.87,158.87,0,0,0-19.27,3A136.13,136.13,0,0,0,297,872.12a111.42,111.42,0,0,0-17.48,8.58,103.09,103.09,0,0,0-15.66,11.57,115.63,115.63,0,0,0-13.28,14.26,143.38,143.38,0,0,0-19.23,33.86,227.52,227.52,0,0,0-11.3,37.39c-5.43,25.53-7.62,51.66-8.27,77.74h-.1c.53-26.08,2.52-52.24,7.89-77.84a228.07,228.07,0,0,1,11.22-37.52A144,144,0,0,1,250,906.1a116.39,116.39,0,0,1,13.33-14.4A103.9,103.9,0,0,1,279.11,880a112.29,112.29,0,0,1,17.59-8.7,137.06,137.06,0,0,1,18.79-5.68,155.92,155.92,0,0,1,19.38-3.1c6.51-.69,13.05-1,19.59-1A301.51,301.51,0,0,1,393.58,864c25.94,3.3,51.5,9,76.76,15.6s50.25,14.25,75.12,22.21,49.61,16.3,74.34,24.67,49.45,16.76,74.24,24.94c49.59,16.31,99.45,31.91,150,44.9S945.82,1020,997.6,1026.72s104.08,9.48,156.2,6.53a649.68,649.68,0,0,0,153.86-27Z" style="fill:url(#未命名的渐变-15)"/><path d="M1307.68,1006.34c-519.76,169.08-1086.6-408.5-1096.1,57.91" style="fill:none;stroke-miterlimit:10;stroke:url(#未命名的渐变-16)"/><path d="M1307.68,1006.34C787.27,1183.56,220.54,623.93,211.4,1073" style="fill:none;stroke-miterlimit:10;stroke:url(#未命名的渐变-17)"/><path d="M1307.68,1006.34C786.62,1191.7,220,650,211.22,1081.69" style="fill:none;stroke-miterlimit:10;stroke:url(#未命名的渐变-18)"/><path d="M1307.68,1006.34C786,1199.83,219.48,676.12,211,1090.41" style="fill:none;stroke-miterlimit:10;stroke:url(#未命名的渐变-19)"/><path d="M1307.68,1006.34C785.31,1208,218.95,702.21,210.87,1099.13" style="fill:none;stroke-miterlimit:10;stroke:url(#未命名的渐变-20)"/><path d="M1307.68,1006.34c-523,209.77-1089.26-278-1097,101.51" style="fill:none;stroke-miterlimit:10;stroke:url(#未命名的渐变-21)"/><path d="M1307.68,1006.34C784,1224.24,217.89,754.4,210.52,1116.57" style="fill:none;stroke-miterlimit:10;stroke:url(#未命名的渐变-22)"/><path d="M1307.68,1006.34c-524.32,226-1090.32-225.85-1097.34,118.95" style="fill:none;stroke-miterlimit:10;stroke:url(#未命名的渐变-23)"/><path d="M1307.68,1006.34C782.7,1240.52,216.82,806.59,210.16,1134" style="fill:none;stroke-miterlimit:10;stroke:url(#未命名的渐变-24)"/><path d="M1307.68,1006.34C782.05,1248.65,216.29,832.68,210,1142.73" style="fill:none;stroke-miterlimit:10;stroke:url(#未命名的渐变-25)"/><path d="M1307.68,1006.34C781.4,1256.79,215.76,858.77,209.81,1151.45" style="fill:none;stroke-miterlimit:10;stroke:url(#未命名的渐变-26)"/><path d="M1307.68,1006.34c-526.93,258.59-1092.45-121.48-1098,153.83" style="fill:none;stroke-miterlimit:10;stroke:url(#未命名的渐变-27)"/><path d="M1307.68,1006.34C780.09,1273.06,214.7,911,209.45,1168.89" style="fill:none;stroke-miterlimit:10;stroke:url(#未命名的渐变-28)"/><path d="M1307.7,1006.38c-86.26,45.29-179.75,76.48-275.58,93.85a1185.61,1185.61,0,0,1-145,17c-12.15.73-24.32,1.2-36.49,1.62s-24.34.66-36.51.76c-24.35.23-48.7-.18-73-1-48.67-1.72-97.26-5.3-145.73-10s-96.84-10.37-145.29-15.16c-24.22-2.37-48.48-4.47-72.78-5.68-12.15-.61-24.32-.95-36.48-.87a363.5,363.5,0,0,0-36.41,1.92,186.9,186.9,0,0,0-35.7,7.06c-11.56,3.63-22.75,8.89-32.14,16.63a68.68,68.68,0,0,0-12.34,13.3,72.35,72.35,0,0,0-8.5,16c-4.34,11.38-6,23.6-6.37,35.74h-.1c.27-12.15,1.88-24.4,6.17-35.85a72.72,72.72,0,0,1,8.45-16.18,68.29,68.29,0,0,1,12.37-13.44c9.43-7.82,20.67-13.14,32.27-16.83a187.54,187.54,0,0,1,35.81-7.2,364.25,364.25,0,0,1,36.49-2c12.18-.11,24.37.18,36.53.76,24.34,1.12,48.6,3.3,72.83,5.66,48.46,4.82,96.81,10.57,145.28,15.23s97,8.54,145.66,10.37c24.33.89,48.67,1.35,73,1.17s48.68-.89,73-2.37a1188.64,1188.64,0,0,0,144.91-17.4q35.9-6.63,71.28-15.71c5.9-1.47,11.77-3.1,17.65-4.66s11.73-3.25,17.55-5c11.68-3.4,23.27-7.12,34.82-11s23-8,34.38-12.27l8.51-3.29q4.26-1.63,8.49-3.36l8.46-3.42,8.41-3.54c22.43-9.45,44.46-19.83,66.12-31Z" style="fill:url(#未命名的渐变-29)"/><path d="M2606.82,1415.86c-348-636-1059.15-21.51-2118.3-237.57v-68c1111,0,1770.27-636,2118.3,0Z" style="stroke-miterlimit:10;fill:url(#未命名的渐变_2838);stroke:url(#未命名的渐变-30)"/><path d="M488.52,1110q141.2-1.15,281.85-14.73c93.68-8.89,186.9-22.17,279.6-38.27q69.54-12.06,138.67-26.4,34.56-7.16,69-14.8t68.79-15.88c91.61-21.67,182.56-46,273.5-70.33,45.47-12.16,90.93-24.38,136.56-36s91.38-22.79,137.42-32.72,92.36-18.74,139.06-25.19c11.67-1.64,23.37-3.06,35.09-4.38s23.46-2.39,35.22-3.24,23.54-1.55,35.32-2.05l8.84-.27,4.42-.14,4.42-.06,8.85-.13,8.85,0,4.43,0,4.42.09,8.85.19,8.85.35,4.42.18,4.42.26,8.84.53,8.83.71,4.41.36,4.41.45c2.94.31,5.88.58,8.81.91,11.73,1.38,23.43,3,35.05,5.12,2.91.49,5.8,1.11,8.7,1.66s5.8,1.13,8.68,1.8l8.65,1.92,8.6,2.14c11.44,3,22.81,6.21,34,10.06l4.2,1.41,4.16,1.52c2.77,1,5.55,2,8.31,3.07,5.48,2.2,11,4.32,16.4,6.73s10.77,4.85,16.13,7.34l7.92,4c1.32.67,2.65,1.31,4,2l3.9,2.1c10.45,5.52,20.57,11.63,30.5,18l7.39,4.88,7.26,5.08,3.62,2.55,3.55,2.65c2.36,1.78,4.73,3.53,7.07,5.33,4.6,3.7,9.29,7.28,13.76,11.15,2.25,1.91,4.53,3.78,6.74,5.73l6.6,5.9c2.22,1.94,4.34,4,6.49,6s4.31,4,6.41,6.1c4.15,4.19,8.41,8.27,12.42,12.6l6.08,6.42,5.92,6.57,3,3.28L2523,986l5.75,6.72a627.66,627.66,0,0,1,42.09,56.76c13,19.65,25,39.92,36.17,60.65l-.35.19c-22.9-41.09-49-80.48-79.45-116.3l-5.78-6.65-2.9-3.32-3-3.25-6-6.49-6.11-6.34c-4-4.27-8.3-8.3-12.47-12.43-2.1-2-4.29-4-6.43-6s-4.28-4-6.51-5.93l-6.61-5.81c-2.21-1.93-4.5-3.76-6.75-5.64-4.47-3.81-9.16-7.32-13.76-11-2.34-1.77-4.72-3.49-7.07-5.23l-3.54-2.61-3.61-2.51-7.23-5-7.36-4.81c-9.89-6.3-20-12.31-30.35-17.73l-3.88-2.07c-1.3-.68-2.62-1.31-3.93-2l-7.88-3.89c-5.33-2.44-10.62-5-16-7.2s-10.85-4.44-16.29-6.59c-2.74-1-5.51-2-8.26-3l-4.14-1.48-4.17-1.38c-11.1-3.77-22.39-6.94-33.75-9.81l-8.54-2.08L2276.3,842c-2.86-.65-5.74-1.19-8.62-1.74s-5.75-1.14-8.64-1.62c-11.55-2-23.16-3.66-34.81-5-2.91-.33-5.83-.59-8.75-.89l-4.38-.43-4.38-.35-8.77-.68-8.78-.51-4.39-.25-4.4-.17-8.79-.33-8.8-.17-4.4-.08h-13.2l-8.8.12-4.4.06-4.4.13-8.8.27c-11.73.5-23.45,1.1-35.16,2-23.42,1.76-46.78,4.34-70.07,7.5-46.58,6.3-92.84,14.95-138.84,24.74s-91.78,20.74-137.44,32.12-91.23,23.17-136.78,35l-68.33,17.77-68.37,17.65q-34.2,8.77-68.46,17.3c-22.85,5.66-45.68,11.37-68.57,16.85s-45.8,10.87-68.74,16.14-45.91,10.41-68.92,15.38-46.06,9.76-69.15,14.34-46.21,9-69.39,13.17q-139,25-279.9,38c-93.79,8.55-188,12.77-282.14,12.08Z" style="fill:#1173aa"/><path d="M488.52,1114.78c1107.56,14.4,1770.27-620.16,2118.3,15.84" style="fill:none;stroke:#1177a9;stroke-miterlimit:10;stroke-width:3.799999989569188px"/><path d="M488.52,1119.32C1592.62,1148.12,2258.79,515,2606.82,1151" style="fill:none;stroke:#127ba9;stroke-miterlimit:10;stroke-width:3.599999991173928px"/><path d="M488.52,1123.85c1100.64,43.21,1770.27-588.49,2118.3,47.51" style="fill:none;stroke:#127fa8;stroke-miterlimit:10;stroke-width:3.3999999927786684px"/><path d="M488.52,1128.39c1097.19,57.62,1770.27-572.65,2118.3,63.35" style="fill:none;stroke:#1382a7;stroke-miterlimit:10;stroke-width:3.199999994383409px"/><path d="M488.52,1132.92c1093.73,72,1770.27-556.81,2118.3,79.19" style="fill:none;stroke:#1386a6;stroke-miterlimit:10;stroke-width:2.9999999959881496px"/><path d="M488.52,1137.46c1090.27,86.43,1770.27-541,2118.3,95" style="fill:none;stroke:#138aa6;stroke-miterlimit:10;stroke-width:2.7999999975928898px"/><path d="M488.52,1142c1086.81,100.83,1770.27-525.13,2118.3,110.87" style="fill:none;stroke:#148ea5;stroke-miterlimit:10;stroke-width:2.59999999919763px"/><path d="M488.52,1146.53c1083.35,115.23,1770.27-509.3,2118.3,126.71" style="fill:none;stroke:#1492a4;stroke-miterlimit:10;stroke-width:2.4000000008023705px"/><path d="M488.52,1151.07c1079.9,129.64,1770.27-493.46,2118.3,142.54" style="fill:none;stroke:#1596a3;stroke-miterlimit:10;stroke-width:2.200000002407111px"/><path d="M488.52,1155.6C1565,1299.65,2258.79,678,2606.82,1314" style="fill:none;stroke:#159aa3;stroke-miterlimit:10;stroke-width:2.0000000040118513px"/><path d="M488.52,1160.14c1073,158.45,1770.27-461.78,2118.3,174.22" style="fill:none;stroke:#159ea2;stroke-miterlimit:10;stroke-width:1.8000000056165917px"/><path d="M488.52,1164.68C1558,1337.53,2258.79,718.73,2606.82,1354.73" style="fill:none;stroke:#16a1a1;stroke-miterlimit:10;stroke-width:1.600000007221332px"/><path d="M488.52,1169.21c1066.06,187.26,1770.27-430.1,2118.3,205.9" style="fill:none;stroke:#16a5a0;stroke-miterlimit:10;stroke-width:1.4000000088260725px"/><path d="M488.52,1173.75c1062.61,201.66,1770.27-414.27,2118.3,221.73" style="fill:none;stroke:#17a9a0;stroke-miterlimit:10;stroke-width:1.2000000104308128px"/><path d="M488.53,1178.23a2417.73,2417.73,0,0,0,277.38,39.34,2664.62,2664.62,0,0,0,280.06,8c93.42-2.14,186.7-8.85,279.61-18.73,46.47-4.89,92.84-10.67,139.14-16.93s92.54-13,138.75-19.91,92.4-14,138.63-20.72,92.53-13.16,139-18.48,93-9.63,139.68-11.81c23.34-1.07,46.72-1.59,70.09-1.41s46.74,1.21,70,3.1c46.55,4,93,11.64,137.65,25.55s87.57,33.63,126.35,59.81c1.21.81,2.44,1.6,3.65,2.43l3.58,2.52c2.39,1.69,4.79,3.35,7.16,5.06,4.66,3.52,9.43,6.92,14,10.6,2.29,1.82,4.6,3.61,6.87,5.45l6.73,5.62c1.12.94,2.25,1.86,3.35,2.82l3.28,2.9,6.56,5.81a551.8,551.8,0,0,1,48.56,50.52c30.12,35.77,55.91,75,78.28,116l-.09,0c-22.49-40.94-48.43-80.06-78.57-115.76a551.23,551.23,0,0,0-48.59-50.39l-6.57-5.79-3.29-2.89c-1.1-1-2.24-1.87-3.35-2.81l-6.73-5.6c-2.27-1.84-4.58-3.62-6.87-5.43-4.54-3.67-9.3-7.05-14-10.56-2.37-1.71-4.77-3.36-7.16-5l-3.58-2.51c-1.2-.83-2.43-1.61-3.64-2.42-38.76-26.08-81.62-45.79-126.23-59.5s-90.95-21.55-137.45-25.49c-23.27-1.89-46.62-2.89-70-3.11s-46.71.33-70,1.39c-46.66,2.16-93.21,6.47-139.62,11.77-92.82,10.75-185.17,25.2-277.61,38.84-46.22,6.86-92.46,13.56-138.77,19.76s-92.69,11.92-139.15,16.91c-92.91,10-186.2,16.86-279.64,19.11-46.72,1.07-93.46,1.15-140.18-.22q-35-1-70-3c-11.67-.61-23.32-1.42-35-2.18s-23.3-1.69-34.94-2.73-23.27-2.09-34.9-3.17-23.25-2.35-34.85-3.73-23.2-2.75-34.8-4.19l-17.37-2.31-8.68-1.17-8.67-1.26c-46.26-6.59-92.29-14.76-138.08-24.09Z" style="fill:#17ad9f"/><rect width="2606.82" height="1415.86" style="fill:none"/></g></g></svg>
