<svg xmlns="http://www.w3.org/2000/svg" xmlns:xlink="http://www.w3.org/1999/xlink" viewBox="0 0 2611.42 1415.86"  preserveAspectRatio="none meet"><defs><linearGradient id="未命名的渐变_2841" x1="702.11" y1="767.9" x2="2093.43" y2="767.9" gradientUnits="userSpaceOnUse"><stop offset="0" stop-color="#fb76a7"/><stop offset="1" stop-color="#482caa"/></linearGradient><linearGradient id="未命名的渐变" x1="701.61" y1="767.9" x2="2093.93" y2="767.9" gradientUnits="userSpaceOnUse"><stop offset="0" stop-color="#fff"/><stop offset="1"/></linearGradient><linearGradient id="未命名的渐变_2841-2" x1="702.11" y1="737.84" x2="2093.43" y2="737.84" xlink:href="#未命名的渐变_2841"/><linearGradient id="未命名的渐变-2" x1="702.08" y1="737.82" x2="2093.46" y2="737.82" xlink:href="#未命名的渐变"/><linearGradient id="未命名的渐变_2841-3" x1="702.11" y1="745.93" x2="2093.43" y2="745.93" xlink:href="#未命名的渐变_2841"/><linearGradient id="未命名的渐变-3" x1="702.09" y1="745.86" x2="2093.46" y2="745.86" xlink:href="#未命名的渐变"/><linearGradient id="未命名的渐变_2841-4" x1="702.11" y1="753.97" x2="2093.43" y2="753.97" xlink:href="#未命名的渐变_2841"/><linearGradient id="未命名的渐变-4" x1="702.09" y1="753.92" x2="2093.46" y2="753.92" xlink:href="#未命名的渐变"/><linearGradient id="未命名的渐变_2841-5" x1="702.11" y1="761.97" x2="2093.43" y2="761.97" xlink:href="#未命名的渐变_2841"/><linearGradient id="未命名的渐变-5" x1="702.09" y1="761.9" x2="2093.46" y2="761.9" xlink:href="#未命名的渐变"/><linearGradient id="未命名的渐变_2841-6" x1="702.11" y1="769.91" x2="2093.43" y2="769.91" xlink:href="#未命名的渐变_2841"/><linearGradient id="未命名的渐变-6" x1="702.09" y1="769.81" x2="2093.45" y2="769.81" xlink:href="#未命名的渐变"/><linearGradient id="未命名的渐变_2841-7" x1="702.11" y1="777.8" x2="2093.43" y2="777.8" xlink:href="#未命名的渐变_2841"/><linearGradient id="未命名的渐变-7" x1="702.09" y1="777.71" x2="2093.45" y2="777.71" xlink:href="#未命名的渐变"/><linearGradient id="未命名的渐变_2841-8" x1="702.11" y1="785.62" x2="2093.43" y2="785.62" xlink:href="#未命名的渐变_2841"/><linearGradient id="未命名的渐变-8" x1="702.09" y1="785.5" x2="2093.45" y2="785.5" xlink:href="#未命名的渐变"/><linearGradient id="未命名的渐变_2841-9" x1="702.11" y1="793.54" x2="2093.43" y2="793.54" xlink:href="#未命名的渐变_2841"/><linearGradient id="未命名的渐变-9" x1="702.09" y1="793.62" x2="2093.45" y2="793.62" xlink:href="#未命名的渐变"/><linearGradient id="未命名的渐变_2841-10" x1="702.11" y1="804.22" x2="2093.43" y2="804.22" xlink:href="#未命名的渐变_2841"/><linearGradient id="未命名的渐变-10" x1="702.09" y1="804.27" x2="2093.45" y2="804.27" xlink:href="#未命名的渐变"/><linearGradient id="未命名的渐变_2841-11" x1="702.11" y1="813.67" x2="2093.43" y2="813.67" xlink:href="#未命名的渐变_2841"/><linearGradient id="未命名的渐变-11" x1="702.09" y1="813.86" x2="2093.45" y2="813.86" xlink:href="#未命名的渐变"/><linearGradient id="未命名的渐变_2841-12" x1="702.11" y1="819.43" x2="2093.43" y2="819.43" xlink:href="#未命名的渐变_2841"/><linearGradient id="未命名的渐变-12" x1="702.09" y1="819.62" x2="2093.45" y2="819.62" xlink:href="#未命名的渐变"/><linearGradient id="未命名的渐变_2841-13" x1="702.11" y1="825.35" x2="2093.43" y2="825.35" xlink:href="#未命名的渐变_2841"/><linearGradient id="未命名的渐变-13" x1="702.09" y1="825.54" x2="2093.45" y2="825.54" xlink:href="#未命名的渐变"/><linearGradient id="未命名的渐变_2841-14" x1="1243.24" y1="824.09" x2="2341.64" y2="824.09" xlink:href="#未命名的渐变_2841"/><linearGradient id="未命名的渐变-14" x1="1243.01" y1="823.84" x2="2342.14" y2="823.84" xlink:href="#未命名的渐变"/><linearGradient id="未命名的渐变_2841-15" x1="1243.24" y1="763.05" x2="2339.16" y2="763.05" xlink:href="#未命名的渐变_2841"/><linearGradient id="未命名的渐变-15" x1="1243.22" y1="762.81" x2="2339.21" y2="762.81" xlink:href="#未命名的渐变"/><linearGradient id="未命名的渐变_2841-16" x1="1243.24" y1="775.43" x2="2339.34" y2="775.43" xlink:href="#未命名的渐变_2841"/><linearGradient id="未命名的渐变-16" x1="1243.22" y1="775.19" x2="2339.39" y2="775.19" xlink:href="#未命名的渐变"/><linearGradient id="未命名的渐变_2841-17" x1="1243.24" y1="787.81" x2="2339.51" y2="787.81" xlink:href="#未命名的渐变_2841"/><linearGradient id="未命名的渐变-17" x1="1243.22" y1="787.57" x2="2339.56" y2="787.57" xlink:href="#未命名的渐变"/><linearGradient id="未命名的渐变_2841-18" x1="1243.24" y1="800.18" x2="2339.69" y2="800.18" xlink:href="#未命名的渐变_2841"/><linearGradient id="未命名的渐变-18" x1="1243.22" y1="799.94" x2="2339.74" y2="799.94" xlink:href="#未命名的渐变"/><linearGradient id="未命名的渐变_2841-19" x1="1243.24" y1="812.56" x2="2339.87" y2="812.56" xlink:href="#未命名的渐变_2841"/><linearGradient id="未命名的渐变-19" x1="1243.22" y1="812.32" x2="2339.92" y2="812.32" xlink:href="#未命名的渐变"/><linearGradient id="未命名的渐变_2841-20" x1="1243.24" y1="824.94" x2="2340.05" y2="824.94" xlink:href="#未命名的渐变_2841"/><linearGradient id="未命名的渐变-20" x1="1243.22" y1="824.7" x2="2340.1" y2="824.7" xlink:href="#未命名的渐变"/><linearGradient id="未命名的渐变_2841-21" x1="1243.24" y1="837.32" x2="2340.22" y2="837.32" xlink:href="#未命名的渐变_2841"/><linearGradient id="未命名的渐变-21" x1="1243.22" y1="837.08" x2="2340.27" y2="837.08" xlink:href="#未命名的渐变"/><linearGradient id="未命名的渐变_2841-22" x1="1243.24" y1="849.69" x2="2340.4" y2="849.69" xlink:href="#未命名的渐变_2841"/><linearGradient id="未命名的渐变-22" x1="1243.22" y1="849.46" x2="2340.45" y2="849.46" xlink:href="#未命名的渐变"/><linearGradient id="未命名的渐变_2841-23" x1="1243.24" y1="862.07" x2="2340.58" y2="862.07" xlink:href="#未命名的渐变_2841"/><linearGradient id="未命名的渐变-23" x1="1243.22" y1="861.84" x2="2340.63" y2="861.84" xlink:href="#未命名的渐变"/><linearGradient id="未命名的渐变_2841-24" x1="1243.24" y1="874.45" x2="2340.76" y2="874.45" xlink:href="#未命名的渐变_2841"/><linearGradient id="未命名的渐变-24" x1="1243.22" y1="874.22" x2="2340.81" y2="874.22" xlink:href="#未命名的渐变"/><linearGradient id="未命名的渐变_2841-25" x1="1243.24" y1="878.83" x2="2340.93" y2="878.83" xlink:href="#未命名的渐变_2841"/><linearGradient id="未命名的渐变-25" x1="1243.22" y1="878.81" x2="2340.98" y2="878.81" xlink:href="#未命名的渐变"/><linearGradient id="未命名的渐变_2841-26" x1="1243.24" y1="883.19" x2="2341.11" y2="883.19" xlink:href="#未命名的渐变_2841"/><linearGradient id="未命名的渐变-26" x1="1243.22" y1="883.17" x2="2341.16" y2="883.17" xlink:href="#未命名的渐变"/><linearGradient id="未命名的渐变_2841-27" x1="1243.24" y1="887.55" x2="2341.29" y2="887.55" xlink:href="#未命名的渐变_2841"/><linearGradient id="未命名的渐变-27" x1="1243.22" y1="887.53" x2="2341.34" y2="887.53" xlink:href="#未命名的渐变"/><linearGradient id="未命名的渐变_2841-28" x1="1243.24" y1="891.91" x2="2341.47" y2="891.91" xlink:href="#未命名的渐变_2841"/><linearGradient id="未命名的渐变-28" x1="1243.22" y1="891.89" x2="2341.52" y2="891.89" xlink:href="#未命名的渐变"/><linearGradient id="未命名的渐变_2841-29" x1="1243.24" y1="896.27" x2="2341.64" y2="896.27" xlink:href="#未命名的渐变_2841"/><linearGradient id="未命名的渐变-29" x1="1243.22" y1="896.25" x2="2341.69" y2="896.25" xlink:href="#未命名的渐变"/><linearGradient id="未命名的渐变_2841-30" x1="0.5" y1="888.95" x2="2118.8" y2="888.95" xlink:href="#未命名的渐变_2841"/><linearGradient id="未命名的渐变-30" x1="0" y1="889.68" x2="2119.3" y2="889.68" xlink:href="#未命名的渐变"/><linearGradient id="未命名的渐变_2841-31" x1="0.5" y1="736.15" x2="2118.8" y2="736.15" xlink:href="#未命名的渐变_2841"/><linearGradient id="未命名的渐变-31" x1="0.46" y1="735.93" x2="2118.8" y2="735.93" xlink:href="#未命名的渐变"/><linearGradient id="未命名的渐变_2841-32" x1="0.5" y1="756.06" x2="2118.8" y2="756.06" xlink:href="#未命名的渐变_2841"/><linearGradient id="未命名的渐变-32" x1="0.06" y1="755.93" x2="2118.8" y2="755.93" xlink:href="#未命名的渐变"/><linearGradient id="未命名的渐变_2841-33" x1="0.5" y1="775.98" x2="2118.8" y2="775.98" xlink:href="#未命名的渐变_2841"/><linearGradient id="未命名的渐变-33" x1="0.06" y1="775.85" x2="2118.81" y2="775.85" xlink:href="#未命名的渐变"/><linearGradient id="未命名的渐变_2841-34" x1="0.5" y1="795.88" x2="2118.8" y2="795.88" xlink:href="#未命名的渐变_2841"/><linearGradient id="未命名的渐变-34" x1="0.06" y1="795.75" x2="2118.82" y2="795.75" xlink:href="#未命名的渐变"/><linearGradient id="未命名的渐变_2841-35" x1="0.5" y1="815.78" x2="2118.8" y2="815.78" xlink:href="#未命名的渐变_2841"/><linearGradient id="未命名的渐变-35" x1="0.06" y1="815.65" x2="2118.82" y2="815.65" xlink:href="#未命名的渐变"/><linearGradient id="未命名的渐变_2841-36" x1="0.5" y1="835.68" x2="2118.8" y2="835.68" xlink:href="#未命名的渐变_2841"/><linearGradient id="未命名的渐变-36" x1="0.06" y1="835.55" x2="2118.83" y2="835.55" xlink:href="#未命名的渐变"/><linearGradient id="未命名的渐变_2841-37" x1="0.5" y1="855.56" x2="2118.8" y2="855.56" xlink:href="#未命名的渐变_2841"/><linearGradient id="未命名的渐变-37" x1="0.06" y1="855.43" x2="2118.84" y2="855.43" xlink:href="#未命名的渐变"/><linearGradient id="未命名的渐变_2841-38" x1="0.5" y1="875.44" x2="2118.8" y2="875.44" xlink:href="#未命名的渐变_2841"/><linearGradient id="未命名的渐变-38" x1="0.06" y1="875.31" x2="2118.84" y2="875.31" xlink:href="#未命名的渐变"/><linearGradient id="未命名的渐变_2841-39" x1="0.5" y1="895.31" x2="2118.8" y2="895.31" xlink:href="#未命名的渐变_2841"/><linearGradient id="未命名的渐变-39" x1="0.06" y1="895.18" x2="2118.85" y2="895.18" xlink:href="#未命名的渐变"/><linearGradient id="未命名的渐变_2841-40" x1="0.5" y1="915.18" x2="2118.8" y2="915.18" xlink:href="#未命名的渐变_2841"/><linearGradient id="未命名的渐变-40" x1="0.06" y1="915.05" x2="2118.86" y2="915.05" xlink:href="#未命名的渐变"/><linearGradient id="未命名的渐变_2841-41" x1="0.5" y1="935.03" x2="2118.8" y2="935.03" xlink:href="#未命名的渐变_2841"/><linearGradient id="未命名的渐变-41" x1="0.06" y1="934.9" x2="2118.86" y2="934.9" xlink:href="#未命名的渐变"/><linearGradient id="未命名的渐变_2841-42" x1="0.5" y1="954.88" x2="2118.8" y2="954.88" xlink:href="#未命名的渐变_2841"/><linearGradient id="未命名的渐变-42" x1="0.06" y1="954.75" x2="2118.87" y2="954.75" xlink:href="#未命名的渐变"/><linearGradient id="未命名的渐变_2841-43" x1="0.5" y1="974.72" x2="2118.8" y2="974.72" xlink:href="#未命名的渐变_2841"/><linearGradient id="未命名的渐变-43" x1="0.06" y1="974.59" x2="2118.88" y2="974.59" xlink:href="#未命名的渐变"/><linearGradient id="未命名的渐变_2841-44" x1="0.5" y1="994.55" x2="2118.8" y2="994.55" xlink:href="#未命名的渐变_2841"/><linearGradient id="未命名的渐变-44" x1="0.06" y1="994.42" x2="2118.88" y2="994.42" xlink:href="#未命名的渐变"/><linearGradient id="未命名的渐变_2841-45" x1="0.5" y1="1014.37" x2="2118.8" y2="1014.37" xlink:href="#未命名的渐变_2841"/><linearGradient id="未命名的渐变-45" x1="0.06" y1="1014.24" x2="2118.89" y2="1014.24" xlink:href="#未命名的渐变"/><linearGradient id="未命名的渐变_2841-46" x1="0.5" y1="1034.18" x2="2118.8" y2="1034.18" xlink:href="#未命名的渐变_2841"/><linearGradient id="未命名的渐变-46" x1="0.46" y1="1033.96" x2="2118.81" y2="1033.96" xlink:href="#未命名的渐变"/></defs><title>资源 11lighthouse</title><g id="图层_2" data-name="图层 2"><g id="图层_1-2" data-name="图层 1"><path d="M702.11,775.92c790.5,263.79,867.15-103.94,1391.33,72.27v-33.5c-647-378.3-1089.89,78.26-1391.33-58Z" style="stroke-miterlimit:10;fill:url(#未命名的渐变_2841);stroke:url(#未命名的渐变)"/><path d="M2093.43,814.68c-647-378.3-1089.89,78.26-1391.33-58" style="fill:url(#未命名的渐变_2841-2)"/><path d="M2093.41,814.72l-19.54-11-9.77-5.51c-3.28-1.8-6.6-3.51-9.9-5.28l-19.82-10.5-20.06-10-10-5-10.16-4.74-20.34-9.44-20.59-8.89-5.15-2.22-2.57-1.11-2.6-1-10.41-4.16-10.41-4.16-5.21-2.08-5.26-1.94-21-7.74c-1.75-.66-3.52-1.26-5.29-1.85l-5.31-1.79-10.63-3.57c-3.55-1.17-7.07-2.42-10.64-3.53L1848,705.85l-10.72-3.27-5.37-1.62-5.4-1.49-21.61-6-21.77-5.37-5.44-1.34-5.48-1.19-11-2.38c-29.24-6.23-58.74-11.27-88.43-14.84s-59.54-5.73-89.43-6.65c-59.79-1.87-119.68,1.75-179,9.5-29.65,3.87-59.17,8.74-88.53,14.37s-58.58,12-87.69,18.88c-58.23,13.67-115.94,29.43-174,43.95-29,7.23-58.13,14.19-87.49,19.94l-11,2.15-11,2c-7.35,1.38-14.76,2.44-22.14,3.64-14.81,2.13-29.65,4.1-44.57,5.25-7.45.73-14.93,1-22.4,1.47-3.74.18-7.48.2-11.22.3l-5.61.13c-1.87,0-3.74,0-5.61,0l-11.22-.15-11.21-.58c-1.87-.12-3.74-.15-5.6-.34l-5.59-.52-5.59-.52-2.79-.26c-.93-.09-1.85-.25-2.78-.37l-11.12-1.55c-1.86-.22-3.69-.61-5.53-.95l-5.51-1-5.51-1c-1.83-.4-3.64-.87-5.46-1.3l-5.45-1.32-2.73-.66c-.91-.21-1.82-.43-2.71-.72a308.44,308.44,0,0,1-42.19-15.17l0-.09a308.23,308.23,0,0,0,42.23,15c.89.28,1.8.49,2.71.7l2.73.64,5.45,1.29c1.82.42,3.63.88,5.46,1.27l5.51,1,5.51,1c1.84.33,3.67.72,5.52.93l11.1,1.51c.93.12,1.85.27,2.78.36l2.79.25,5.58.51,5.58.51c1.86.18,3.73.21,5.59.32l11.19.55,11.21.12c1.87,0,3.74.07,5.6,0l5.6-.14c3.73-.12,7.47-.14,11.2-.33,7.46-.46,14.93-.77,22.36-1.52,14.9-1.19,29.72-3.2,44.51-5.36,7.37-1.22,14.77-2.3,22.11-3.7l11-2,11-2.18c14.66-2.9,29.26-6.14,43.84-9.45s29.1-6.87,43.61-10.51c58-14.49,115.75-30.24,174-43.89s117-25.31,176.36-32.91c29.67-3.81,59.47-6.63,89.35-8.2s59.81-2,89.71-1.13,59.76,3,89.48,6.45,59.24,8.49,88.52,14.67l11,2.36,5.48,1.18,5.45,1.33,21.8,5.33,21.64,5.94,5.41,1.49,5.37,1.63,10.73,3.29,10.73,3.29c3.57,1.12,7.09,2.37,10.64,3.55l10.63,3.59,5.31,1.8c1.77.59,3.54,1.19,5.29,1.86l21,7.78,5.26,2,5.21,2.09,10.41,4.18,10.41,4.18,2.6,1,2.57,1.12,5.15,2.23,20.58,8.94,20.33,9.48,10.15,4.77,10,5c6.68,3.36,13.39,6.66,20,10.09l19.77,10.61c3.29,1.78,6.6,3.51,9.87,5.33l9.74,5.56,19.48,11.12Z" style="fill:url(#未命名的渐变-2)"/><path d="M2093.43,817.72C1457.63,457.8,1048,906.28,702.11,758.45" style="fill:url(#未命名的渐变_2841-3)"/><path d="M2093.41,817.77,2073.77,807l-9.82-5.36-10-5.11-19.91-10.21-20.16-9.71c-3.37-1.6-6.7-3.28-10.1-4.82l-10.2-4.59-10.2-4.59c-3.4-1.52-6.79-3.1-10.24-4.49l-20.65-8.62c-1.73-.71-3.43-1.46-5.17-2.13l-5.22-2-10.44-4-10.44-4c-3.5-1.3-7-2.5-10.53-3.76l-10.54-3.74c-3.52-1.22-7-2.55-10.57-3.65l-21.29-6.88c-3.53-1.19-7.14-2.16-10.71-3.23l-10.74-3.14c-28.68-8.18-57.66-15.36-87-21a989.33,989.33,0,0,0-177.88-17.58c-59.69-.48-119.33,4.61-178.33,13.36-29.51,4.39-58.88,9.71-88.11,15.68s-58.33,12.6-87.36,19.49c-58.06,13.79-115.79,29-174.08,41.89-29.14,6.45-58.44,12.24-88,16.65-14.75,2.28-29.59,4-44.44,5.51l-11.16.92-5.58.46c-1.86.13-3.73.21-5.59.32l-11.18.62c-3.73.17-7.46.21-11.19.33-7.46.3-14.93.12-22.39.1-1.87,0-3.73-.06-5.6-.14l-5.59-.23-5.59-.23-2.8-.11-2.79-.21-11.16-.86-2.79-.21c-.93-.09-1.85-.21-2.78-.31l-5.56-.64-5.56-.64c-1.85-.21-3.71-.42-5.55-.74l-11.06-1.74c-3.7-.51-7.34-1.35-11-2.06l-5.49-1.1c-1.83-.38-3.67-.7-5.47-1.19-7.23-1.84-14.53-3.44-21.65-5.71-3.57-1.09-7.17-2.07-10.71-3.24l-10.57-3.68c-1.76-.63-3.54-1.2-5.27-1.87l-5.19-2.09-10.38-4.18,0-.09,10.4,4.13,5.2,2.06c1.74.67,3.52,1.23,5.28,1.85l10.58,3.63c3.54,1.16,7.15,2.12,10.72,3.19,7.12,2.24,14.42,3.8,21.65,5.6,1.8.48,3.64.79,5.47,1.16l5.49,1.09c3.66.7,7.3,1.53,11,2L799,784.85c1.84.31,3.69.52,5.54.72l5.56.63,5.56.63c.93.1,1.85.22,2.78.3l2.79.21,11.15.83,2.79.21,2.79.11,5.59.21,5.59.21c1.86.08,3.72.15,5.59.13,7.46,0,14.91.16,22.36-.16,3.73-.12,7.45-.17,11.18-.35l11.16-.64c1.86-.11,3.72-.2,5.58-.34l5.57-.47,11.14-.95c14.83-1.55,29.64-3.31,44.38-5.62,29.49-4.5,58.78-10.2,87.91-16.66,58.27-12.88,116-28.05,174.08-41.83s116.52-26.19,175.6-34.83c29.53-4.33,59.2-7.73,89-10s59.61-3.36,89.46-3.21a988.23,988.23,0,0,1,178,17.22l21.94,4.48,2.74.56,2.73.63,5.45,1.27,10.9,2.54c7.29,1.61,14.49,3.59,21.71,5.48l10.82,2.86c3.61.95,7.17,2.08,10.75,3.11l10.74,3.17c3.57,1.08,7.18,2.05,10.71,3.25l21.29,6.93c3.56,1.11,7,2.45,10.57,3.68L1911,732.9c3.51,1.26,7,2.48,10.53,3.79l10.44,4c55.79,21.29,109.56,47.61,161.52,76.95Z" style="fill:url(#未命名的渐变-3)"/><path d="M2093.43,820.77c-624.64-341.55-1001,98.85-1391.33-60.57" style="fill:url(#未命名的渐变_2841-4)"/><path d="M2093.41,820.81l-19.75-10.42-9.88-5.2-10-5c-6.68-3.28-13.32-6.65-20-9.87L2013.48,781c-6.71-3.22-13.59-6.06-20.41-9.05s-13.62-6-20.56-8.71l-20.71-8.33-20.93-7.78c-28-10.09-56.36-19.22-85.13-26.89s-57.86-14.08-87.19-19.11a950.06,950.06,0,0,0-177.84-13.51c-59.56.89-118.93,7.32-177.66,17s-116.87,22.93-174.82,36.61-115.83,27.9-174.41,38.85c-29.29,5.42-58.76,10-88.41,12.92l-5.56.57c-1.85.18-3.71.31-5.57.46l-11.14.89-2.78.22-2.79.15-5.58.31c-3.72.19-7.44.44-11.16.58-14.89.47-29.79.76-44.69.19-3.72-.14-7.45-.18-11.17-.41l-11.15-.71-5.58-.36-5.56-.55-11.12-1.09c-3.7-.38-7.39-1-11.08-1.43l-5.54-.74c-1.85-.24-3.69-.48-5.52-.83l-11-1.89c-1.83-.32-3.67-.61-5.5-1l-5.47-1.16a482.75,482.75,0,0,1-85.37-26l0-.09a496.6,496.6,0,0,0,174,35.49c14.87.53,29.76.2,44.63-.3,3.72-.15,7.43-.41,11.14-.61l5.57-.32,2.79-.16,2.78-.23,11.12-.92c1.85-.16,3.71-.29,5.56-.48l5.55-.59c29.61-3,59.06-7.5,88.33-12.93C1112.18,768.19,1170,754,1228,740.33S1344.16,713.7,1403,704.07c29.39-4.82,58.92-8.81,88.57-11.69s59.4-4.64,89.17-5.2a949.08,949.08,0,0,1,178,13.14q44,7.52,87.29,19c28.77,7.74,57.14,16.93,85.14,27.08l20.92,7.83,20.71,8.38c6.94,2.71,13.71,5.81,20.55,8.76s13.69,5.86,20.4,9.1l20.23,9.47c6.7,3.25,13.32,6.65,20,10l10,5,9.86,5.25,19.7,10.52Z" style="fill:url(#未命名的渐变-4)"/><path d="M2093.43,823.82C1480,500.63,1136.92,933,702.11,761.94" style="fill:url(#未命名的渐变_2841-5)"/><path d="M2093.41,823.86l-19.87-10.1c-3.32-1.67-6.61-3.4-10-5l-10.06-4.8-10.06-4.8c-3.36-1.59-6.69-3.24-10.1-4.72l-20.35-9.1c-1.7-.75-3.38-1.54-5.09-2.25l-5.14-2.14-10.29-4.29-10.29-4.29c-3.45-1.38-6.92-2.69-10.39-4l-10.39-4c-3.47-1.32-6.91-2.72-10.43-3.93l-21-7.47c-56.24-19.14-114.07-33.82-172.88-42.43a949.89,949.89,0,0,0-177.78-9.26c-59.41,2.31-118.49,10.09-177,20.69S1286,746.1,1228.06,759.32s-116,26.14-174.91,34.76c-29.43,4.26-59,7.47-88.73,8.94l-5.57.3-5.57.17-11.15.33-2.79.08h-2.79l-5.58,0-11.15,0-11.15-.27c-3.72-.12-7.44-.11-11.15-.36l-11.14-.6-5.57-.31-5.56-.47a606.28,606.28,0,0,1-88.11-13.44A590.12,590.12,0,0,1,702.09,762l0-.09A597.22,597.22,0,0,0,787.27,788a605.67,605.67,0,0,0,88.05,13.2l5.55.46,5.56.29,11.13.57c3.71.24,7.42.22,11.13.33l11.14.25,11.14-.06,5.57,0,2.78,0,2.78-.09,11.13-.36,5.57-.18,5.56-.32c29.66-1.57,59.24-4.69,88.64-9,58.82-8.59,116.89-21.53,174.85-34.69s115.91-26.57,174.44-37.06c29.26-5.26,58.65-9.8,88.17-13.3s59.17-6,88.87-7.23a948.9,948.9,0,0,1,177.9,8.89,884.07,884.07,0,0,1,87.5,17.18c28.85,7.2,57.37,15.72,85.49,25.35l21,7.52c3.51,1.21,7,2.62,10.43,4l10.39,4c3.46,1.36,6.94,2.67,10.38,4.06l10.28,4.31,10.28,4.31,5.14,2.16c1.71.72,3.39,1.51,5.09,2.27l20.33,9.16c3.4,1.49,6.72,3.16,10.08,4.77l10,4.85,10,4.85c3.33,1.64,6.62,3.38,9.93,5.07l19.82,10.2Z" style="fill:url(#未命名的渐变-5)"/><path d="M2093.43,826.86c-602.32-304.81-912.05,119.45-1391.33-63.17" style="fill:url(#未命名的渐变_2841-6)"/><path d="M2093.41,826.91c-26.58-13.18-53.5-25.69-80.87-37.13s-55.23-21.69-83.44-30.86-56.89-16.88-85.82-23.38-58.17-11.67-87.61-15.33A936.63,936.63,0,0,0,1578,715.35c-59.24,3.78-118,12.88-176.24,24.19-29.12,5.67-58.13,11.92-87.1,18.31s-57.91,13-86.94,19.15-58.11,12.11-87.35,17.24c-3.65.67-7.31,1.28-11,1.88l-11,1.82c-7.33,1.18-14.67,2.23-22,3.36s-14.7,2-22.07,2.94l-11.06,1.3c-3.68.44-7.37.87-11.07,1.21a889.88,889.88,0,0,1-88.89,4.9,741.83,741.83,0,0,1-88.88-5,704.76,704.76,0,0,1-87.53-16.08,738.86,738.86,0,0,1-84.84-26.84l0-.09a724.59,724.59,0,0,0,172.42,42.29c59,6.83,118.61,5.89,177.58-.17,3.69-.33,7.37-.77,11.06-1.21l11-1.29c7.36-.91,14.7-2,22.05-2.93s14.67-2.17,22-3.35l11-1.81c3.66-.6,7.32-1.21,11-1.87,29.22-5.11,58.3-11,87.32-17.2,58-12.42,115.84-25.9,174.13-37.11,29.14-5.62,58.39-10.66,87.79-14.77S1548.37,717,1578,715a914.17,914.17,0,0,1,351.32,43.29c28.21,9.24,56,19.67,83.43,31l20.43,8.84,5.1,2.22,5,2.34,10.1,4.68,10.09,4.68c3.37,1.55,6.66,3.26,10,4.88l20,9.86Z" style="fill:url(#未命名的渐变-6)"/><path d="M2093.43,829.91c-591.15-286.44-867.59,129.75-1391.33-64.47" style="fill:url(#未命名的渐变_2841-7)"/><path d="M2093.41,830q-40.13-19.11-81.38-35.67c-27.58-10.81-55.55-20.61-83.91-29.17L1917.47,762c-3.56-1-7.09-2.15-10.68-3l-21.47-5.69-21.61-5.11-2.7-.64-2.72-.57-5.44-1.13L1842,743.53c-29-5.78-58.35-10.25-87.82-13.15-58.95-5.89-118.45-5.55-177.44-.28-29.51,2.59-58.9,6.44-88.15,11.18s-58.36,10.24-87.39,16.16c-58.06,11.84-115.76,25.37-174,36.64-29.09,5.64-58.29,10.76-87.64,14.9s-58.85,7.25-88.44,9a880.69,880.69,0,0,1-88.89,1,812.2,812.2,0,0,1-88.48-8.47,825.81,825.81,0,0,1-87-18.07c-28.66-7.56-56.89-16.65-84.68-26.95l0-.09c55.64,20.34,113.16,35.7,171.76,44.4S992,820.56,1051.08,817c29.56-1.77,59-4.84,88.37-9s58.52-9.23,87.6-14.86c58.17-11.26,115.93-24.55,174-36.28,29-5.87,58.17-11.35,87.43-16s58.67-8.46,88.17-11.17,59.14-4.18,88.77-4.25,59.28,1.28,88.78,4.15a872.56,872.56,0,0,1,87.92,13.06L1853,745l5.44,1.14,2.72.57,2.7.64,21.62,5.16,21.48,5.74c3.59.91,7.12,2,10.68,3.07l10.66,3.16c28.36,8.62,56.33,18.48,83.9,29.35,27.5,11,54.54,23.19,81.24,36Z" style="fill:url(#未命名的渐变-7)"/><path d="M2093.43,833c-580-268.06-823.13,140-1391.33-65.77" style="fill:url(#未命名的渐变_2841-8)"/><path d="M2093.41,833q-40.4-18.37-81.93-34.07l-20.86-7.55c-7-2.45-14-4.71-21-7.08s-14.1-4.45-21.17-6.64c-3.54-1.07-7.07-2.18-10.61-3.22l-10.69-3A873.41,873.41,0,0,0,1664,739c-29.57.82-59.09,3.06-88.49,6.39-58.82,6.59-117,18-174.87,30.1s-115.69,25.07-174.08,34.86c-29.18,4.91-58.5,9.1-87.95,12.13s-59,4.91-88.61,5.43-59.22-.3-88.73-2.67-58.9-6.16-88-11.35c-58.33-10.24-115.46-26.57-171.1-46.66l0-.09q41.81,14.89,84.64,26.64l10.72,2.84c3.58.93,7.13,2,10.74,2.76l21.58,5.14,21.71,4.58c1.81.4,3.62.74,5.44,1.07l5.45,1,10.91,2a926.7,926.7,0,0,0,176.63,13.76c29.57-.51,59.11-2.39,88.53-5.39s58.72-7.2,87.89-12.09,58.22-10.51,87.22-16.41,57.92-12.1,86.9-18.09,58-11.81,87.13-17,58.41-9.55,87.81-13,58.93-5.7,88.51-6.59a884.47,884.47,0,0,1,88.74,1.7,837.89,837.89,0,0,1,88.1,10.85c29.15,5.18,58,11.86,86.52,19.84l10.69,3c3.55,1,7.08,2.16,10.62,3.24,7.06,2.21,14.18,4.25,21.17,6.69s14,4.65,21,7.12l20.86,7.6c27.68,10.48,54.91,22.09,81.8,34.46Z" style="fill:url(#未命名的渐变-8)"/><path d="M2093.43,836C1524.6,586.31,1314.76,986.34,702.11,768.93" style="fill:url(#未命名的渐变_2841-9)"/><path d="M2093.41,836c-54.26-23.39-110-43.64-167.31-58a868.22,868.22,0,0,0-175-26.06c-29.51-1.32-59.09-1.06-88.59.56s-58.91,4.71-88.19,8.73c-58.58,8-116.45,20.29-174.3,32.35s-115.79,24.05-174.39,32.09-117.74,12.22-176.87,10.89q-44.34-1-88.48-5.92c-29.39-3.27-58.61-8-87.59-13.82S815,804,786.51,796,730,778.81,702.09,769l0-.09q41.87,14.57,84.53,26.68,42.71,11.85,86.2,20.55a1015.61,1015.61,0,0,0,175.94,19.48c59.07,1.35,118.21-2.69,176.73-10.82,29.27-4,58.41-8.94,87.46-14.36s58-11.37,86.94-17.36,57.88-12,86.91-17.54S1545,765,1574.28,760.87s58.69-7.22,88.21-8.93,59.11-2,88.65-.74a823.37,823.37,0,0,1,88.25,8.46,886.45,886.45,0,0,1,86.88,17.69q43,11,84.81,25.83c27.86,9.87,55.29,20.93,82.37,32.78Z" style="fill:url(#未命名的渐变-9)"/><path d="M2093.43,839c-557.67-231.32-734.21,160.64-1391.33-68.37" style="fill:url(#未命名的渐变_2841-10)"/><path d="M2093.41,839.09q-41-16.75-83.08-30.61c-28-9.19-56.49-17.22-85.27-23.75a860.61,860.61,0,0,0-87.17-15.26c-7.32-.91-14.67-1.57-22-2.39s-14.7-1.22-22.06-1.83c-7.37-.41-14.73-.86-22.1-1.2l-11.06-.34c-3.69-.1-7.37-.27-11.06-.26-59-.85-118,4.74-176.3,14.19-29.15,4.65-58.16,10.19-87.09,16.06l-86.76,17.85c-57.86,11.75-116.05,22.3-174.84,28.34a1094.86,1094.86,0,0,1-177,4.2c-59-3.33-117.61-12.11-175.32-24.59-28.86-6.28-57.45-13.72-85.86-21.8l-21.24-6.28c-3.55-1-7-2.2-10.57-3.3l-10.55-3.36-10.55-3.36c-3.51-1.15-7-2.37-10.49-3.55l-21-7.14,0-.09,21,7c3.5,1.16,7,2.36,10.5,3.5l10.57,3.31,10.56,3.31c3.53,1.08,7,2.25,10.58,3.25l21.25,6.21c28.41,8,57,15.36,85.87,21.57s57.93,11.39,87.16,15.49l11,1.47c3.66.47,7.31,1,11,1.4l22,2.46,22,2,22.08,1.52A1093.92,1093.92,0,0,0,1224.52,839c29.36-3,58.61-7.09,87.74-11.88s58.14-10.29,87.09-16.09c57.88-11.64,115.6-24.28,173.9-33.75s117.27-15.31,176.37-14.58a787.53,787.53,0,0,1,88.38,5.92,861.4,861.4,0,0,1,87.22,15.45c57.61,13.18,113.71,32.33,168.24,54.94Z" style="fill:url(#未命名的渐变-10)"/><path d="M2093.43,842.09C1546.93,629.14,1403.69,1013,702.11,772.42" style="fill:url(#未命名的渐变_2841-11)"/><path d="M2093.41,842.14C2038.34,821,1981.83,803.4,1924,791.74a819.72,819.72,0,0,0-175.83-16.21c-29.49.41-58.94,2.61-88.24,5.92-14.66,1.61-29.27,3.67-43.86,5.82s-29.13,4.65-43.64,7.3c-29,5.2-57.94,11.15-86.82,17.14s-57.77,12-86.77,17.49c-58,11-116.43,19.87-175.36,23.68a1118.17,1118.17,0,0,1-176.89-2.25q-44.08-4.1-87.79-11.37l-10.91-1.86c-3.64-.62-7.28-1.21-10.9-1.94l-21.74-4.16c-7.23-1.46-14.44-3-21.66-4.57s-14.4-3.19-21.59-4.87c-14.4-3.24-28.67-7-43-10.61-7.13-1.89-14.23-3.89-21.35-5.83L797,802.49l-10.61-3.13-21.22-6.29-21.1-6.67L733.55,783l-10.49-3.52-21-7,0-.09,21,6.94,10.5,3.47,10.56,3.3,21.13,6.57,21.23,6.22,10.62,3.1,10.67,2.91c7.12,1.92,14.22,3.91,21.36,5.77,14.31,3.58,28.58,7.3,43,10.5,7.18,1.66,14.36,3.36,21.59,4.81s14.43,3.07,21.66,4.51l21.74,4.1c3.62.72,7.26,1.29,10.89,1.91L959,838.33c29.11,4.74,58.35,8.62,87.72,11.34A1117.23,1117.23,0,0,0,1223.42,852c29.43-1.93,58.78-5,88-9s58.32-8.89,87.32-14.31c58-10.88,115.57-23.85,173.62-34.46,14.51-2.69,29.06-5.1,43.63-7.4s29.2-4.27,43.86-5.92c29.31-3.38,58.78-5.63,88.29-6.11a795.85,795.85,0,0,1,88.44,3.25,821.52,821.52,0,0,1,87.54,13c28.92,5.89,57.53,13.27,85.76,21.85S2066,831.34,2093.45,842Z" style="fill:url(#未命名的渐变-11)"/><path d="M2093.43,845.14c-535.34-194.57-645.29,181.23-1391.33-71" style="fill:url(#未命名的渐变_2841-12)"/><path d="M2093.41,845.18c-55.51-19.85-112.4-36.09-170.51-46.14a791.51,791.51,0,0,0-176.12-10.81c-3.68.2-7.36.34-11,.58l-11,.79-5.51.39-5.5.5-11,1c-3.67.35-7.33.79-11,1.19s-7.33.77-11,1.27c-7.31.94-14.63,1.82-21.91,2.92-14.6,2-29.14,4.47-43.67,7s-29,5.27-43.46,8.15c-28.93,5.67-57.76,11.85-86.65,17.79s-57.81,11.65-86.89,16.56-58.28,9.14-87.6,12.28-58.78,5.17-88.26,6-59,.57-88.46-.83-58.87-4-88.15-7.51c-3.66-.44-7.33-.84-11-1.32l-11-1.52c-7.3-1-14.62-2-21.89-3.18S987.27,848,980,846.78l-21.77-3.92c-3.63-.63-7.25-1.36-10.86-2.09l-10.85-2.17-10.85-2.17-10.8-2.37c-7.2-1.6-14.41-3.11-21.59-4.79l-21.51-5.14C843.15,817,814.64,809.47,786.39,801c-28.32-8.23-56.33-17.46-84.3-26.8l0-.09,21,6.87c7,2.28,14,4.62,21.06,6.75l21.13,6.53,5.28,1.63,5.31,1.55,10.61,3.1c28.27,8.38,56.79,15.88,85.42,22.89l21.52,5.08c7.18,1.66,14.4,3.15,21.59,4.74l10.8,2.34,10.84,2.14,10.84,2.14c3.61.72,7.23,1.44,10.86,2.06q43.47,8.09,87.39,13.4c29.26,3.53,58.64,6.16,88.08,7.54s58.93,1.71,88.39.86,58.89-2.81,88.21-5.88,58.52-7.19,87.59-12.06,58-10.51,86.91-16.41,57.74-12,86.65-17.78c14.45-2.91,28.95-5.62,43.46-8.25s29.06-5,43.67-7.05c7.29-1.11,14.61-2,21.92-3,3.65-.5,7.32-.86,11-1.29s7.32-.85,11-1.21l11-1,5.51-.51,5.52-.41,11-.81c3.68-.25,7.36-.4,11-.6a756.14,756.14,0,0,1,88.45.38A802.63,802.63,0,0,1,1923,798.36c29.05,5.09,57.83,11.72,86.25,19.59s56.47,17.06,84.18,27.14Z" style="fill:url(#未命名的渐变-12)"/><path d="M2093.43,848.18C1569.25,672,1492.61,1039.71,702.11,775.92" style="fill:url(#未命名的渐变_2841-13)"/><path d="M2093.42,848.23c-55.94-18.51-113.23-33.28-171.58-41.64a774.08,774.08,0,0,0-176.29-5c-58.76,4.88-116.76,16.13-174.42,28.22-28.86,6-57.67,12.22-86.59,17.92s-58,10.84-87.13,15.06a1158,1158,0,0,1-176.29,12.43q-44.22-.32-88.35-3.87c-29.39-2.38-58.69-5.78-87.87-10-58.37-8.43-116.15-20.59-173.3-35C814.48,811.65,758,794.74,702.09,776l0-.09c56,18.45,112.52,35.22,169.66,49.7,7.14,1.83,14.32,3.48,21.47,5.23s14.32,3.49,21.52,5l21.57,4.81L958,845.11c28.89,5.76,57.88,11.1,87.06,15.23s58.44,7.63,87.8,10,58.82,3.67,88.28,3.9,58.93-.68,88.32-2.7,58.71-5.23,87.88-9.36C1455.71,854,1513.4,841.64,1571,829.4s115.63-23.61,174.43-28.61c3.67-.37,7.35-.57,11-.85s7.35-.56,11-.76l11-.55,5.52-.26,5.53-.15,11.05-.3c3.69-.05,7.37,0,11.06-.06,7.37-.1,14.74.15,22.11.3a753,753,0,0,1,88.07,7.75c29.18,4.25,58.12,10.08,86.72,17.21s56.86,15.62,84.8,25Z" style="fill:url(#未命名的渐变-13)"/><path d="M2339.16,859.83c-9.85-483.78-576.82,111.76-1095.92-49.19,528.24,274.86,1093.51-69.29,1098.4,171.27Z" style="stroke-miterlimit:10;fill:url(#未命名的渐变_2841-14);stroke:url(#未命名的渐变-14)"/><path d="M1243.24,810.64C1762.34,971.59,2329.31,376,2339.16,859.83" style="fill:url(#未命名的渐变_2841-15)"/><path d="M1243.25,810.59a649.68,649.68,0,0,0,153.86,27c52.12,2.95,104.46.13,156.2-6.53s103-17.34,153.53-30.37,100.44-28.58,150-44.9c24.79-8.18,49.51-16.57,74.24-24.94s49.47-16.72,74.34-24.67,49.86-15.56,75.12-22.21,50.82-12.3,76.76-15.6a301.51,301.51,0,0,1,39.11-2.53c6.54,0,13.08.31,19.59,1a155.92,155.92,0,0,1,19.38,3.1,137,137,0,0,1,18.79,5.68,112.29,112.29,0,0,1,17.59,8.7A103.91,103.91,0,0,1,2287.55,696a116.39,116.39,0,0,1,13.33,14.4,144,144,0,0,1,19.22,34.08A228.07,228.07,0,0,1,2331.32,782c5.37,25.59,7.36,51.75,7.89,77.84h-.1c-.66-26.08-2.85-52.2-8.27-77.74a227.54,227.54,0,0,0-11.3-37.39,143.38,143.38,0,0,0-19.23-33.86A115.64,115.64,0,0,0,2287,696.58,103.08,103.08,0,0,0,2271.37,685a111.42,111.42,0,0,0-17.48-8.58,136.12,136.12,0,0,0-18.67-5.58,158.88,158.88,0,0,0-19.27-3c-6.47-.69-13-1-19.5-1a300.54,300.54,0,0,0-39,2.51c-25.88,3.28-51.41,8.94-76.64,15.55s-50.22,14.22-75.08,22.16c-49.71,15.94-99.05,33-148.69,49.26q-37.22,12.19-74.7,23.55c-25,7.48-50.13,14.62-75.4,21.19-50.52,13.16-101.73,23.94-153.53,30.75-25.89,3.42-51.92,5.82-78,7a774.53,774.53,0,0,1-78.32-.52c-6.52-.34-13-.88-19.54-1.39s-13-1.21-19.49-2c-13-1.52-25.91-3.32-38.76-5.64s-25.65-4.94-38.33-8-25.26-6.62-37.73-10.48Z" style="fill:url(#未命名的渐变-15)"/><path d="M1243.24,810.64c519.76,169.08,1086.6-408.5,1096.1,57.91" style="fill:url(#未命名的渐变_2841-16)"/><path d="M1243.25,810.59a663.26,663.26,0,0,0,152.39,29.47c6.46.54,12.93.88,19.4,1.26s12.95.58,19.43.71c13,.3,25.92.37,38.88,0s25.91-.89,38.85-1.72,25.85-2,38.74-3.36c51.57-5.52,102.67-15,153.15-26.82,25.25-5.92,50.34-12.51,75.3-19.54s49.82-14.45,74.59-22.13,49.47-15.59,74.17-23.52,49.39-15.86,74.2-23.45,49.71-14.89,74.85-21.31,50.53-12,76.29-15.38a336.5,336.5,0,0,1,38.83-3c6.5,0,13,.08,19.48.54a190.91,190.91,0,0,1,19.35,2.43c12.76,2.42,25.35,6.27,36.85,12.43a108.44,108.44,0,0,1,16.35,10.62,105.94,105.94,0,0,1,14.07,13.49,113.35,113.35,0,0,1,11.53,15.71A138.63,138.63,0,0,1,2319,754.3l1,2.22c.32.75.61,1.5.92,2.26l1.81,4.52,1.63,4.59.82,2.29.73,2.32,1.46,4.65,1.3,4.69c.91,3.12,1.6,6.29,2.37,9.44a306.92,306.92,0,0,1,6.13,38.42c1.3,12.91,2,25.87,2.22,38.84h-.1c-.32-13-1.06-25.92-2.43-38.81a315.38,315.38,0,0,0-6.3-38.34c-.78-3.14-1.48-6.31-2.39-9.42l-1.31-4.68-1.47-4.63-.73-2.31-.82-2.29-1.64-4.57-1.82-4.5c-.31-.75-.6-1.5-.92-2.25l-1-2.21a138,138,0,0,0-9.07-17.14,112.65,112.65,0,0,0-11.51-15.58,105.18,105.18,0,0,0-14-13.36,107.62,107.62,0,0,0-16.25-10.5c-11.42-6.08-23.94-9.86-36.63-12.23-6.37-1.13-12.8-1.87-19.25-2.37s-12.93-.59-19.4-.55a335.51,335.51,0,0,0-38.71,3c-25.7,3.36-51.06,9-76.18,15.33s-50,13.69-74.82,21.27C1953,737.6,1903.75,753.8,1854.15,769c-24.79,7.63-49.66,15-74.65,22q-18.74,5.24-37.57,10.11c-12.56,3.24-25.13,6.43-37.75,9.42-50.46,12-101.56,21.57-153.16,27.2s-103.69,7.12-155.43,3a684.28,684.28,0,0,1-77.1-10.45q-19.09-3.76-37.94-8.63t-37.33-11Z" style="fill:url(#未命名的渐变-16)"/><path d="M1243.24,810.64c520.41,177.22,1087.13-382.41,1096.27,66.63" style="fill:url(#未命名的渐变_2841-17)"/><path d="M1243.26,810.59a677.92,677.92,0,0,0,150.92,31.92c12.82,1.29,25.67,2.15,38.54,2.75s25.75.9,38.63.85c25.76,0,51.52-1.18,77.19-3.31,51.36-4.32,102.33-12.58,152.74-23.28q18.9-4,37.71-8.49t37.51-9.36c24.95-6.46,49.77-13.39,74.53-20.55s49.43-14.62,74.09-22.09,49.32-15,74.06-22.22,49.57-14.2,74.6-20.4,50.28-11.59,75.85-15.11a371.18,371.18,0,0,1,38.55-3.32,220.88,220.88,0,0,1,38.64,2,151.17,151.17,0,0,1,19,4,120.09,120.09,0,0,1,18.23,6.57,104.62,104.62,0,0,1,31.69,22A116.41,116.41,0,0,1,2308,747.43a143.84,143.84,0,0,1,9.74,16.73,175.45,175.45,0,0,1,7.44,17.87c2.08,6.11,4,12.28,5.48,18.55a281.19,281.19,0,0,1,6.56,38.1c1.37,12.82,2.06,25.7,2.3,38.59h-.1c-.65-25.74-3-51.57-9.24-76.57-1.51-6.26-3.43-12.41-5.52-18.49a174.86,174.86,0,0,0-7.46-17.78,143.2,143.2,0,0,0-9.74-16.62,115.72,115.72,0,0,0-12.31-14.8,103.83,103.83,0,0,0-31.52-21.75,119.22,119.22,0,0,0-18.12-6.47,150.24,150.24,0,0,0-18.86-3.9A226.31,226.31,0,0,0,2188.2,699a370.2,370.2,0,0,0-38.45,3.3c-25.51,3.5-50.74,8.89-75.75,15.06s-49.83,13.15-74.57,20.36c-49.47,14.47-98.71,29.75-148.26,44S1751.75,809,1701.35,819.9,1600,839.13,1548.6,843.57c-25.69,2.16-51.47,3.48-77.26,3.42q-19.34,0-38.66-.94c-12.88-.63-25.74-1.53-38.57-2.84a701.24,701.24,0,0,1-76.4-11.84q-18.91-4.07-37.55-9.21t-36.93-11.46Z" style="fill:url(#未命名的渐变-17)"/><path d="M1243.24,810.64C1764.3,996,2330.91,454.32,2339.69,886" style="fill:url(#未命名的渐变_2841-18)"/><path d="M1243.26,810.59a693.89,693.89,0,0,0,149.45,34.32q38.15,4.47,76.61,5.2,19.2.41,38.4,0c12.8-.28,25.6-.77,38.37-1.58,51.13-3.11,102-10.19,152.29-19.74s100.11-21.84,149.58-35.13c24.73-6.68,49.39-13.62,74-20.65s49.25-14.13,73.94-21,49.43-13.5,74.36-19.46,50-11.25,75.44-14.76c6.35-.91,12.72-1.62,19.1-2.28s12.78-1.11,19.19-1.35c3.2-.18,6.41-.19,9.62-.28s6.42,0,9.62.08q9.62.19,19.2,1.3c3.19.33,6.36.84,9.54,1.32s6.32,1.14,9.44,1.9a135.63,135.63,0,0,1,18.43,5.58,107.8,107.8,0,0,1,32.84,19.82,111.57,111.57,0,0,1,23.61,30.21c1.59,2.79,2.92,5.71,4.34,8.59,1.25,3,2.61,5.86,3.7,8.88a181.66,181.66,0,0,1,6,18.29c6.61,24.82,8.95,50.54,9.43,76.12h-.1c-.61-25.58-3.14-51.26-9.81-76a181.13,181.13,0,0,0-6-18.22c-1.1-3-2.46-5.9-3.72-8.84-1.42-2.86-2.75-5.77-4.35-8.54a110.91,110.91,0,0,0-23.56-30,107,107,0,0,0-32.66-19.57,134.77,134.77,0,0,0-18.33-5.49c-3.11-.75-6.25-1.28-9.39-1.86s-6.31-1-9.49-1.28c-1.59-.19-3.17-.36-4.77-.47s-3.18-.27-4.78-.37c-3.19-.16-6.38-.36-9.58-.4s-6.39-.07-9.59-.08-6.39.1-9.59.28c-6.39.23-12.77.77-19.14,1.33s-12.72,1.36-19.06,2.26c-25.36,3.5-50.44,8.81-75.35,14.72s-49.65,12.58-74.34,19.42c-49.35,13.73-98.55,28.07-148.06,41.27-24.75,6.61-49.58,12.94-74.51,18.82s-50,11.29-75.14,16.15c-50.31,9.69-101.15,16.9-152.31,20.13-12.79.84-25.59,1.36-38.4,1.67-6.41.18-12.81.2-19.22.26s-12.82-.06-19.22-.24q-38.44-.84-76.67-5.38c-12.72-1.56-25.41-3.38-38-5.58s-25.18-4.76-37.67-7.63-24.87-6.19-37.17-9.78-24.46-7.64-36.53-11.92Z" style="fill:url(#未命名的渐变-18)"/><path d="M1243.24,810.64c521.71,193.49,1088.2-330.22,1096.63,84.07" style="fill:url(#未命名的渐变_2841-19)"/><path d="M1243.26,810.59a712.64,712.64,0,0,0,148,36.65q18.92,2.59,37.94,4.29c12.68,1.14,25.38,1.92,38.1,2.48,25.43,1.05,50.91,1.14,76.34.12,50.88-2,101.58-7.79,151.8-16.22s100-19.56,149.39-31.85,98.5-25.94,147.76-38.91c24.63-6.47,49.31-12.79,74.14-18.5s49.82-10.79,75.06-14.37,50.8-5.63,76.27-3.5a168.17,168.17,0,0,1,37.53,7.22,112.68,112.68,0,0,1,33.85,17.59,106.26,106.26,0,0,1,25.25,28.55,140.66,140.66,0,0,1,8.73,17,173.83,173.83,0,0,1,6.42,18,233.32,233.32,0,0,1,7.54,37.44,360.09,360.09,0,0,1,2.56,38.11h-.1a359.88,359.88,0,0,0-2.77-38.07c-.44-3.15-.82-6.31-1.39-9.44l-.79-4.71-.93-4.68c-.58-3.13-1.37-6.21-2.08-9.31-.36-1.55-.81-3.07-1.22-4.61s-.8-3.08-1.3-4.59a173.32,173.32,0,0,0-6.45-17.93,140.06,140.06,0,0,0-8.74-16.92A105.59,105.59,0,0,0,2289,756.16a111.9,111.9,0,0,0-33.66-17.37,167.29,167.29,0,0,0-37.35-7.06,284.82,284.82,0,0,0-38.1-.31c-12.7.73-25.36,2.06-38,3.83-25.2,3.57-50.17,8.64-75,14.33s-49.49,12-74.12,18.46c-49.25,13-98.4,26.38-147.86,38.55q-37.09,9.17-74.44,17.23-18.68,4-37.44,7.61c-12.51,2.4-25,4.74-37.58,6.85-50.21,8.56-100.91,14.52-151.83,16.6-12.73.52-25.47.82-38.21.81s-25.48-.2-38.21-.81-25.44-1.4-38.13-2.57-25.35-2.62-38-4.38-25.18-3.9-37.69-6.28-24.94-5.21-37.31-8.26-24.61-6.57-36.79-10.32-24.2-8-36.14-12.37Z" style="fill:url(#未命名的渐变-19)"/><path d="M1243.24,810.64C1765.6,1012.27,2332,506.51,2340,903.43" style="fill:url(#未命名的渐变_2841-20)"/><path d="M1243.26,810.59A732.37,732.37,0,0,0,1389.8,849.5q18.76,2.93,37.63,5t37.82,3.27q18.95,1.18,37.93,1.66c12.65.32,25.31.32,38,.14,50.63-.81,101.16-5.46,151.27-12.71,25.06-3.63,50-7.94,74.87-12.79s49.62-10.14,74.3-15.77,49.29-11.63,73.87-17.73l73.7-18.44c24.58-6.09,49.2-12.07,73.93-17.51s49.6-10.39,74.7-13.92c12.55-1.75,25.15-3.21,37.8-4,6.32-.45,12.66-.64,19-.76s12.68.08,19,.44,12.65,1,18.93,1.94a173.73,173.73,0,0,1,18.63,3.88,118,118,0,0,1,34.68,15.4,100.84,100.84,0,0,1,26.91,26.67,117,117,0,0,1,9.46,16.5c.66,1.44,1.39,2.85,2,4.32l1.83,4.39c.59,1.47,1.1,3,1.66,4.46l.81,2.23.73,2.26a184.81,184.81,0,0,1,4.94,18.35c.6,3.11,1.31,6.2,1.79,9.33l.79,4.69.64,4.71a330.66,330.66,0,0,1,2.72,37.88h-.1a330.44,330.44,0,0,0-2.93-37.84l-.67-4.7-.81-4.67c-.49-3.13-1.21-6.21-1.83-9.31-1.43-6.16-3-12.3-5-18.29l-.73-2.26-.82-2.22c-.56-1.48-1.08-3-1.66-4.44l-1.83-4.37c-.59-1.47-1.33-2.87-2-4.3a116.41,116.41,0,0,0-9.47-16.39,100.17,100.17,0,0,0-26.81-26.41A117.23,117.23,0,0,0,2251,753a172.86,172.86,0,0,0-18.55-3.8c-6.25-.91-12.55-1.49-18.85-1.87s-12.63-.44-19-.39-12.64.3-18.95.75c-12.62.79-25.2,2.24-37.73,4-25.06,3.52-49.91,8.47-74.64,13.88S2014,777,1989.37,783.06c-49.15,12.2-98.25,24.66-147.66,35.82-24.7,5.58-49.48,10.86-74.35,15.63s-49.84,9-74.89,12.78c-50.11,7.38-100.64,12.17-151.31,13.09-25.33.46-50.68,0-76-1.69q-19-1.29-37.85-3.37t-37.65-5.13c-12.51-2-25-4.37-37.35-7s-24.7-5.63-36.95-8.87S1291,827.4,1279,823.49s-23.94-8.26-35.76-12.81Z" style="fill:url(#未命名的渐变-20)"/><path d="M1243.24,810.64c523,209.77,1089.26-278,1097,101.51" style="fill:url(#未命名的渐变_2841-21)"/><path d="M1243.26,810.59a752.54,752.54,0,0,0,145.11,41.11c24.78,4.43,49.78,7.66,74.86,9.82,12.54,1,25.1,1.9,37.68,2.49s25.16.88,37.75,1c50.36.33,100.71-3.15,150.7-9.25,12.5-1.54,25-3.19,37.43-5.06s24.88-3.88,37.29-6c24.82-4.27,49.55-9,74.21-14.17s49.24-10.61,73.78-16.26l73.59-17.15c24.53-5.7,49.09-11.33,73.74-16.51s49.42-9.89,74.38-13.42c12.48-1.77,25-3.17,37.58-4.11a342.05,342.05,0,0,1,37.8-.86,207.78,207.78,0,0,1,37.53,4.56A126.11,126.11,0,0,1,2282,780a97.11,97.11,0,0,1,28.52,24.6c7.87,9.91,13.64,21.32,18,33.14a186.53,186.53,0,0,1,8.85,36.7,303.33,303.33,0,0,1,2.89,37.66h-.1a303.14,303.14,0,0,0-3.1-37.61,189.55,189.55,0,0,0-9-36.58c-4.36-11.77-10.15-23.11-18-32.93a96.43,96.43,0,0,0-28.4-24.35,125.33,125.33,0,0,0-35.16-13.09,206.9,206.9,0,0,0-37.38-4.42c-25.15-.79-50.3,1.51-75.22,5s-49.67,8.22-74.32,13.37-49.2,10.78-73.73,16.47c-49.06,11.41-98.11,22.92-147.47,33-24.67,5.07-49.42,9.8-74.25,14s-49.75,7.93-74.75,11.07c-50,6.23-100.35,9.84-150.75,9.63q-18.9-.11-37.78-.9t-37.71-2.47q-37.65-3.34-74.9-10t-73.6-17.1c-12.12-3.42-24.12-7.3-36-11.36s-23.69-8.57-35.39-13.23Z" style="fill:url(#未命名的渐变-21)"/><path d="M1243.24,810.64C1766.91,1028.54,2333,558.7,2340.4,920.87" style="fill:url(#未命名的渐变_2841-22)"/><path d="M1243.26,810.59a774.15,774.15,0,0,0,143.69,43.25c12.28,2.43,24.62,4.63,37,6.47s24.8,3.52,37.25,4.82q37.35,4,74.94,5.11c50.08,1.48,100.23-.83,150.09-5.79s99.42-12.75,148.67-21.94,98.2-20,147.18-30.61c24.49-5.3,49-10.58,73.57-15.47s49.24-9.42,74.08-12.87,49.86-5.9,75-5.47c6.27.09,12.54.42,18.8,1s12.48,1.36,18.66,2.48A137.66,137.66,0,0,1,2278,792.83,96.53,96.53,0,0,1,2308,815.2a101.53,101.53,0,0,1,11.22,15.1,116.21,116.21,0,0,1,8.38,16.84c1.22,2.89,2.22,5.87,3.26,8.83s1.9,6,2.63,9a185.32,185.32,0,0,1,3.83,18.41,278,278,0,0,1,3.08,37.44h-.1a277.74,277.74,0,0,0-3.3-37.4,185,185,0,0,0-3.93-18.35c-.75-3-1.75-6-2.66-9s-2-5.91-3.27-8.79a115.69,115.69,0,0,0-8.39-16.74,100.93,100.93,0,0,0-11.2-15,95.85,95.85,0,0,0-29.92-22.13A136.88,136.88,0,0,0,2242,782.38c-6.15-1.09-12.36-1.91-18.59-2.41s-12.48-.84-18.73-.91c-25-.34-50,2.07-74.82,5.48s-49.46,8-74,12.83-49.07,10.15-73.56,15.44c-49,10.62-98,21.17-147.27,30.25q-37,6.85-74.14,12.41-18.59,2.77-37.24,5.09c-12.43,1.56-24.88,3-37.34,4.28-49.85,5.09-100,7.53-150.15,6.17-25.05-.7-50.1-2.25-75-5-12.46-1.33-24.89-3-37.28-4.91s-24.73-4.11-37-6.57q-36.87-7.4-72.9-18.32c-12-3.58-23.87-7.65-35.67-11.86s-23.44-8.86-35-13.65Z" style="fill:url(#未命名的渐变-22)"/><path d="M1243.24,810.64c524.32,226,1090.32-225.85,1097.34,118.95" style="fill:url(#未命名的渐变_2841-23)"/><path d="M1243.26,810.59a797.26,797.26,0,0,0,142.29,45.34c6.08,1.38,12.2,2.56,18.3,3.81s12.24,2.34,18.39,3.36,12.3,2,18.45,3,12.33,1.8,18.51,2.56q18.54,2.4,37.16,4.07t37.29,2.64A1166.66,1166.66,0,0,0,1683.09,873q37.29-2.85,74.39-7.69c24.73-3.15,49.39-6.86,74-10.93s49.12-8.58,73.6-13.27,48.92-9.63,73.37-14.52,48.89-9.81,73.4-14.42,49.09-8.88,73.81-12.26c12.36-1.69,24.75-3.13,37.19-4.16,6.21-.55,12.44-.92,18.68-1.25s12.47-.46,18.72-.42,12.49.17,18.72.59,12.45,1,18.63,1.9a152.93,152.93,0,0,1,36.19,9.44,106.73,106.73,0,0,1,16.69,8.51A94.06,94.06,0,0,1,2305.23,826a98.55,98.55,0,0,1,21.4,30.52,137.56,137.56,0,0,1,6.5,17.55,183.67,183.67,0,0,1,4.19,18.24,251.57,251.57,0,0,1,3.31,37.23h-.1A251.38,251.38,0,0,0,2337,892.4a183.26,183.26,0,0,0-4.28-18.17,140.5,140.5,0,0,0-6.54-17.47,98,98,0,0,0-21.37-30.28,93.42,93.42,0,0,0-14.71-11.39,106,106,0,0,0-16.61-8.4,152.15,152.15,0,0,0-36-9.28c-6.16-.9-12.36-1.47-18.57-1.83s-12.44-.53-18.66-.53c-12.45,0-24.9.66-37.31,1.71s-24.79,2.46-37.14,4.14c-24.69,3.36-49.26,7.64-73.76,12.22s-48.95,9.5-73.4,14.38c-48.89,9.81-97.85,19.39-147.07,27.43-24.61,4-49.28,7.68-74,10.78s-49.55,5.67-74.41,7.68a1163.89,1163.89,0,0,1-149.51,2.72q-18.69-.89-37.33-2.55c-6.22-.51-12.42-1.18-18.62-1.8s-12.39-1.41-18.57-2.25-12.35-1.72-18.53-2.61-12.32-1.93-18.46-3-12.27-2.25-18.4-3.4-12.23-2.47-18.31-3.86-12.16-2.79-18.22-4.23-12.1-3-18.11-4.69c-12.05-3.22-24-6.8-35.88-10.6-23.76-7.61-47.08-16.52-70-26.4Z" style="fill:url(#未命名的渐变-23)"/><path d="M1243.24,810.64c525,234.18,1090.85-199.75,1097.52,127.67" style="fill:url(#未命名的渐变_2841-24)"/><path d="M1243.26,810.59A822,822,0,0,0,1384.17,858c12.06,2.91,24.2,5.48,36.37,7.84s24.41,4.43,36.67,6.29q36.8,5.52,73.94,8.29a1166.22,1166.22,0,0,0,148.76,1c12.39-.68,24.77-1.48,37.14-2.5s24.72-2.2,37.06-3.49q37-3.92,73.85-9.32c49.12-7.11,98-16,146.78-24.94,24.41-4.49,48.81-9,73.25-13.33s48.94-8.35,73.56-11.61,49.36-5.75,74.22-6.08a306.8,306.8,0,0,1,37.22,1.67c6.17.71,12.33,1.63,18.42,2.89a155.89,155.89,0,0,1,18,4.88,116.41,116.41,0,0,1,17.15,7.33,96.07,96.07,0,0,1,15.54,10.3,91.56,91.56,0,0,1,23.29,28.84,108.63,108.63,0,0,1,7.18,17.19,141.41,141.41,0,0,1,4.63,18c.32,1.52.58,3,.82,4.58s.52,3.06.72,4.6c.38,3.08.81,6.16,1.05,9.25.63,6.18.85,12.38,1,18.59h-.1c-.21-6.2-.47-12.4-1.13-18.57-.26-3.09-.71-6.16-1.1-9.23-.21-1.54-.5-3.06-.74-4.59s-.51-3.06-.84-4.57a141,141,0,0,0-4.72-18,110.27,110.27,0,0,0-7.22-17.09,91,91,0,0,0-23.24-28.6,95.43,95.43,0,0,0-15.47-10.18,115.72,115.72,0,0,0-17.07-7.24,155.13,155.13,0,0,0-17.92-4.8c-6.07-1.24-12.2-2.13-18.35-2.82a305.92,305.92,0,0,0-37.12-1.54c-24.79.43-49.51,2.87-74.1,6.1s-49.08,7.3-73.52,11.58-48.84,8.82-73.25,13.3c-48.81,9-97.72,17.59-146.87,24.59q-36.86,5.26-73.89,9.16t-74.21,6a1163.42,1163.42,0,0,1-148.84-.66c-12.38-.9-24.75-2-37.09-3.36s-24.66-2.91-36.93-4.83-24.51-4-36.69-6.38-24.32-5-36.38-7.94c-6-1.41-12-3-18.06-4.55s-12-3.22-17.94-5-11.9-3.55-17.83-5.35l-8.86-2.86c-3-.94-5.9-1.93-8.83-2.94-23.52-7.94-46.6-17.15-69.27-27.27Z" style="fill:url(#未命名的渐变-24)"/><path d="M1243.24,810.64C1768.87,1053,2334.62,637,2340.93,947" style="fill:url(#未命名的渐变_2841-25)"/><path d="M1243.26,810.59A848.38,848.38,0,0,0,1382.81,860q35.87,9.28,72.43,15.51c12.17,2.09,24.38,3.93,36.62,5.6s24.51,3,36.8,4.23a1165.57,1165.57,0,0,0,148,4.39c24.7-.72,49.36-2.26,74-4.3s49.19-4.65,73.71-7.69c49-6.05,97.84-13.92,146.57-22.07,24.37-4.07,48.72-8.24,73.11-12.22s48.81-7.78,73.33-10.91,49.15-5.61,73.88-6.2c6.18-.16,12.37-.13,18.55,0s12.36.46,18.53,1,12.31,1.27,18.42,2.27a174.16,174.16,0,0,1,18.12,4,129.38,129.38,0,0,1,17.49,6.22,101.18,101.18,0,0,1,16.21,9,86.3,86.3,0,0,1,25.25,26.89,101.93,101.93,0,0,1,8,16.72,127.9,127.9,0,0,1,5.13,17.82A193.43,193.43,0,0,1,2341,947h-.1a193.21,193.21,0,0,0-4.15-36.75,127.54,127.54,0,0,0-5.22-17.74,103.36,103.36,0,0,0-8-16.61,85.74,85.74,0,0,0-25.17-26.64,100.54,100.54,0,0,0-16.14-8.93,128.69,128.69,0,0,0-17.42-6.13,173.41,173.41,0,0,0-18.06-3.94c-6.09-1-12.22-1.69-18.36-2.21s-12.31-.77-18.48-.91-12.34-.1-18.51.08c-24.68.68-49.29,3.1-73.78,6.21s-48.92,6.91-73.3,10.87-48.74,8.13-73.11,12.19c-48.74,8.15-97.59,15.77-146.66,21.71q-36.8,4.48-73.75,7.54-18.47,1.52-37,2.57c-12.33.72-24.68,1.32-37,1.72a1162.76,1162.76,0,0,1-148.13-4c-24.61-2.34-49.14-5.49-73.5-9.74s-48.54-9.45-72.46-15.7c-12-3.14-23.86-6.46-35.66-10.13-5.92-1.77-11.78-3.74-17.66-5.63s-11.72-3.93-17.52-6.06c-23.29-8.27-46.14-17.77-68.57-28.12Z" style="fill:url(#未命名的渐变-25)"/><path d="M1243.24,810.64c526.28,250.45,1091.91-147.57,1097.87,145.11" style="fill:url(#未命名的渐变_2841-26)"/><path d="M1243.26,810.59a876.58,876.58,0,0,0,138.21,51.31,969,969,0,0,0,144.72,28.19,1165.69,1165.69,0,0,0,147.3,7.71c24.6-.19,49.2-1.11,73.76-2.63s49.08-3.57,73.56-6.05,48.9-5.46,73.29-8.72,48.73-6.81,73.07-10.46l73-11.09c24.34-3.65,48.69-7.19,73.13-10.17,12.22-1.48,24.46-2.81,36.72-3.9s24.55-1.93,36.86-2.3,24.64-.35,36.94.37a226.28,226.28,0,0,1,36.6,5,146.71,146.71,0,0,1,17.74,5.19,109.71,109.71,0,0,1,16.76,7.79,84,84,0,0,1,27.22,24.65c7.12,10.11,11.78,21.75,14.72,33.69a155.81,155.81,0,0,1,3.15,18.19c.71,6.12,1,12.27,1.17,18.42h-.1c-.21-6.15-.53-12.29-1.28-18.4a155.57,155.57,0,0,0-3.25-18.14c-3-11.9-7.73-23.45-14.82-33.48a83.39,83.39,0,0,0-27.12-24.41,109.08,109.08,0,0,0-16.69-7.69,146,146,0,0,0-17.67-5.11,225.52,225.52,0,0,0-36.48-4.84c-12.27-.68-24.57-.7-36.85-.26-24.57.87-49.07,3.29-73.49,6.22s-48.77,6.5-73.1,10.14l-73,11.06c-48.67,7.31-97.46,13.92-146.44,18.82-24.49,2.43-49,4.47-73.59,5.9s-49.17,2.31-73.78,2.61a1162.83,1162.83,0,0,1-147.4-7.33c-12.23-1.42-24.42-3.09-36.59-4.93s-24.29-4-36.38-6.32-24.11-5-36.09-7.79-23.9-5.91-35.75-9.25c-23.69-6.68-47.13-14.26-70.17-22.93s-45.68-18.38-67.9-28.95Z" style="fill:url(#未命名的渐变-26)"/><path d="M1243.24,810.64c526.93,258.59,1092.45-121.48,1098,153.83" style="fill:url(#未命名的渐变_2841-27)"/><path d="M1243.26,810.59a906.67,906.67,0,0,0,136.9,53.2q17.63,5.19,35.43,9.77c11.88,3,23.8,5.83,35.79,8.37,24,5.1,48.09,9.44,72.36,12.83a1173.91,1173.91,0,0,0,146.53,11c12.25.16,24.51.2,36.76,0s24.5-.52,36.75-1q36.74-1.43,73.39-4.43c48.86-3.93,97.55-9.81,146.14-16.26,24.3-3.22,48.57-6.61,72.86-9.93s48.59-6.58,72.95-9.38,48.78-5.16,73.3-6.12c12.26-.45,24.53-.6,36.79-.09,6.13.22,12.25.67,18.36,1.27s12.19,1.44,18.23,2.56a169.46,169.46,0,0,1,17.91,4.26,122,122,0,0,1,17.19,6.6A84.52,84.52,0,0,1,2320,895.44c7.9,9.46,13.26,20.83,16.49,32.65a132,132,0,0,1,3.57,18c.73,6.09,1.11,12.21,1.26,18.34h-.1c-.18-6.12-.6-12.24-1.37-18.32a131.74,131.74,0,0,0-3.67-18,86.67,86.67,0,0,0-16.57-32.42,84,84,0,0,0-29-21.94,121.32,121.32,0,0,0-17.12-6.51,168.81,168.81,0,0,0-17.85-4.18q-9-1.63-18.18-2.49c-6.09-.58-12.2-1-18.32-1.21-12.23-.47-24.49-.29-36.72.2-24.47,1.05-48.88,3.35-73.23,6.14s-48.64,6-72.93,9.34-48.57,6.69-72.87,9.9c-48.6,6.45-97.33,12.08-146.21,15.9q-36.66,2.9-73.42,4.28t-73.53.94a1171,1171,0,0,1-146.63-10.62c-24.29-3.37-48.47-7.55-72.44-12.73-12-2.57-23.91-5.45-35.8-8.46s-23.68-6.37-35.43-9.86c-23.47-7.09-46.69-15-69.51-24-5.72-2.2-11.38-4.56-17.05-6.88l-8.46-3.61c-2.82-1.2-5.63-2.41-8.43-3.68l-8.39-3.75-8.34-3.88-4.17-1.94-4.14-2-8.27-4Z" style="fill:url(#未命名的渐变-27)"/><path d="M1243.24,810.64c527.58,266.72,1093-95.38,1098.23,162.55" style="fill:url(#未命名的渐变_2841-28)"/><path d="M1243.26,810.59c21.86,10.9,44.1,21,66.74,30.17,11.29,4.64,22.72,8.94,34.19,13.12s23.06,8,34.69,11.75q34.93,11,70.61,19.4c11.89,2.78,23.81,5.4,35.79,7.77,6,1.23,12,2.3,18,3.44s12,2.14,18.05,3.08A1180.19,1180.19,0,0,0,1667,913.54c24.4,1,48.84,1.11,73.25.72s48.83-1.36,73.21-2.81,48.73-3.38,73-5.64,48.6-4.9,72.86-7.68c48.53-5.54,97-12.05,145.53-17.31,24.29-2.58,48.63-4.86,73.05-5.94,12.21-.52,24.44-.77,36.66-.46,6.11.14,12.22.41,18.32.88s12.18,1.08,18.23,2a160.06,160.06,0,0,1,35.53,8.92c11.38,4.44,22.17,10.8,30.81,19.53a72.4,72.4,0,0,1,11.15,14.55,83.94,83.94,0,0,1,7.4,16.76c3.77,11.66,5.13,23.95,5.42,36.14h-.1c-.37-12.18-1.79-24.44-5.62-36a77.45,77.45,0,0,0-18.6-31.06c-8.62-8.64-19.35-14.93-30.68-19.31A159.41,159.41,0,0,0,2251.1,878c-6-.87-12.11-1.48-18.19-1.91s-12.18-.71-18.28-.83c-12.2-.27-24.41,0-36.6.58-24.38,1.16-48.71,3.36-73,6-48.56,5.23-97,11.72-145.53,17.24s-97.2,10.19-146,13q-36.58,2.09-73.23,2.65c-12.21.18-24.43.18-36.64.06s-24.43-.37-36.63-.8a1177.21,1177.21,0,0,1-145.84-13.85c-96.49-15.34-190.91-45-278-89.38Z" style="fill:url(#未命名的渐变-28)"/><path d="M1243.24,810.64c528.24,274.86,1093.51-69.29,1098.4,171.27" style="fill:url(#未命名的渐变_2841-29)"/><path d="M1243.26,810.59c21.66,11.12,43.69,21.5,66.12,31l8.41,3.54,8.46,3.42q4.22,1.73,8.49,3.36l8.51,3.29c11.39,4.27,22.84,8.41,34.38,12.27s23.13,7.56,34.82,11c5.82,1.76,11.7,3.35,17.55,5s11.74,3.19,17.65,4.66q35.36,9.05,71.28,15.71a1188.63,1188.63,0,0,0,144.91,17.4q36.45,2.22,73,2.37c24.34.17,48.69-.28,73-1.17,48.65-1.83,97.21-5.67,145.66-10.37s96.82-10.41,145.28-15.23c24.23-2.36,48.5-4.54,72.83-5.66,12.17-.57,24.35-.87,36.53-.76a364.23,364.23,0,0,1,36.49,2,187.54,187.54,0,0,1,35.81,7.2c11.6,3.68,22.84,9,32.27,16.83a68.29,68.29,0,0,1,12.37,13.44,72.72,72.72,0,0,1,8.45,16.18c4.29,11.45,5.91,23.7,6.17,35.85h-.1c-.34-12.14-2-24.37-6.37-35.74a72.35,72.35,0,0,0-8.5-16,68.69,68.69,0,0,0-12.34-13.3c-9.39-7.73-20.58-13-32.14-16.63a186.89,186.89,0,0,0-35.7-7.06,363.48,363.48,0,0,0-36.41-1.92c-12.16-.08-24.33.26-36.48.87-24.3,1.21-48.56,3.31-72.78,5.68-48.45,4.79-96.81,10.52-145.29,15.16s-97.06,8.29-145.73,10c-24.33.84-48.69,1.24-73,1q-18.26-.15-36.51-.76c-12.17-.42-24.33-.89-36.49-1.62a1185.57,1185.57,0,0,1-145-17C1423,887.16,1329.47,856,1243.22,810.68Z" style="fill:url(#未命名的渐变-29)"/><path d="M.5,1183.09c348-636,1059.15-21.51,2118.3-237.57v-68c-1111,0-1770.27-636-2118.3,0Z" style="stroke-miterlimit:10;fill:url(#未命名的渐变_2841-30);stroke:url(#未命名的渐变-30)"/><path d="M2118.8,877.48c-1111,0-1770.27-636-2118.3,0" style="fill:url(#未命名的渐变_2841-31)"/><path d="M2118.8,877.53c-47.07,0-94.15-.94-141.17-3.21-11.76-.51-23.51-1.21-35.26-1.85l-17.62-1.1-8.81-.56-8.8-.63c-23.48-1.61-46.94-3.6-70.38-5.75s-46.84-4.66-70.23-7.32-46.73-5.67-70.06-8.82q-70-9.55-139.49-22C1464.28,809.85,1372.2,790,1280.66,768q-68.66-16.49-137-34.15c-45.59-11.72-91.1-23.73-136.62-35.72-91-23.89-182.1-47.92-274.13-67.74-46-9.86-92.29-18.58-138.92-24.94-11.65-1.62-23.33-3-35-4.32s-23.41-2.38-35.14-3.23-23.47-1.54-35.22-2l-8.82-.27-4.41-.13-4.41-.06-8.82-.12-8.82,0h-4.41l-4.41.09-8.82.18-8.81.34-4.41.17-4.4.26-8.8.52-8.79.7-4.39.36-4.39.44c-2.92.3-5.85.57-8.77.9-11.68,1.36-23.32,3-34.9,5.06-2.9.48-5.77,1.1-8.66,1.64s-5.77,1.1-8.64,1.76l-8.61,1.89-8.56,2.1c-11.39,2.9-22.71,6.1-33.84,9.9L275.51,623l-4.15,1.49c-2.76,1-5.53,2-8.28,3-5.46,2.17-11,4.26-16.33,6.64S236,639,230.67,641.45l-7.9,3.92c-1.31.66-2.64,1.3-3.94,2l-3.89,2.08c-10.42,5.45-20.51,11.51-30.41,17.84-39.63,25.41-74.58,57.67-105,93.51S23.21,836.27.54,877.5l-.09,0c22.56-41.29,48.39-80.93,78.71-117s65.32-68.29,105-93.8c9.91-6.36,20-12.44,30.44-17.92l3.89-2.09c1.3-.68,2.63-1.32,3.94-2l7.91-3.94c5.35-2.47,10.65-5,16.09-7.29s10.89-4.5,16.36-6.68c2.75-1,5.53-2,8.29-3l4.15-1.5,4.19-1.4c11.14-3.82,22.48-7,33.89-10l8.58-2.12,8.63-1.9c2.87-.66,5.76-1.22,8.65-1.78s5.78-1.16,8.68-1.64c11.6-2.06,23.27-3.7,35-5.06,2.93-.33,5.86-.6,8.79-.9L396,597l4.4-.36,8.81-.7,8.82-.52,4.41-.26,4.41-.17,8.83-.34,8.83-.18,4.41-.09h4.42l8.83,0,8.83.13,4.42.06,4.41.13,8.83.27c11.76.51,23.52,1.11,35.26,2s23.46,2,35.17,3.24,23.39,2.71,35,4.33c46.66,6.38,93,15.11,139,25s91.79,21,137.43,32.49,91.14,23.57,136.65,35.61c91,24.06,182,48.24,273.59,70s183.66,41.54,276.37,57.86,186,29.35,279.72,38.19,187.83,13.47,282,13.7Z" style="fill:url(#未命名的渐变-31)"/><path d="M2118.8,882C1011.24,896.42,348.53,261.85.5,897.85" style="stroke-miterlimit:10;fill:url(#未命名的渐变_2841-32);stroke:url(#未命名的渐变-32)"/><path d="M2118.8,886.55C1014.69,915.36,348.53,282.23.5,918.23" style="stroke-miterlimit:10;fill:url(#未命名的渐变_2841-33);stroke:url(#未命名的渐变-33)"/><path d="M2118.8,891.09C1018.15,934.3,348.53,302.6.5,938.6" style="stroke-miterlimit:10;fill:url(#未命名的渐变_2841-34);stroke:url(#未命名的渐变-34)"/><path d="M2118.8,895.62C1021.61,953.24,348.53,323,.5,959" style="stroke-miterlimit:10;fill:url(#未命名的渐变_2841-35);stroke:url(#未命名的渐变-35)"/><path d="M2118.8,900.16C1025.07,972.18,348.53,343.35.5,979.35" style="stroke-miterlimit:10;fill:url(#未命名的渐变_2841-36);stroke:url(#未命名的渐变-36)"/><path d="M2118.8,904.69c-1090.27,86.43-1770.27-541-2118.3,95" style="stroke-miterlimit:10;fill:url(#未命名的渐变_2841-37);stroke:url(#未命名的渐变-37)"/><path d="M2118.8,909.23C1032,1010.06,348.53,384.1.5,1020.1" style="stroke-miterlimit:10;fill:url(#未命名的渐变_2841-38);stroke:url(#未命名的渐变-38)"/><path d="M2118.8,913.77C1035.44,1029,348.53,404.47.5,1040.47" style="stroke-miterlimit:10;fill:url(#未命名的渐变_2841-39);stroke:url(#未命名的渐变-39)"/><path d="M2118.8,918.3C1038.9,1047.94,348.53,424.85.5,1060.85" style="stroke-miterlimit:10;fill:url(#未命名的渐变_2841-40);stroke:url(#未命名的渐变-40)"/><path d="M2118.8,922.84C1042.36,1066.88,348.53,445.22.5,1081.22" style="stroke-miterlimit:10;fill:url(#未命名的渐变_2841-41);stroke:url(#未命名的渐变-41)"/><path d="M2118.8,927.37C1045.82,1085.82,348.53,465.59.5,1101.59" style="stroke-miterlimit:10;fill:url(#未命名的渐变_2841-42);stroke:url(#未命名的渐变-42)"/><path d="M2118.8,931.91C1049.27,1104.76,348.53,486,.5,1122" style="stroke-miterlimit:10;fill:url(#未命名的渐变_2841-43);stroke:url(#未命名的渐变-43)"/><path d="M2118.8,936.45C1052.73,1123.7,348.53,506.34.5,1142.34" style="stroke-miterlimit:10;fill:url(#未命名的渐变_2841-44);stroke:url(#未命名的渐变-44)"/><path d="M2118.8,941C1056.19,1142.64,348.53,526.72.5,1162.72" style="stroke-miterlimit:10;fill:url(#未命名的渐变_2841-45);stroke:url(#未命名的渐变-45)"/><path d="M2118.8,945.52C1059.65,1161.58,348.53,547.09.5,1183.09" style="fill:url(#未命名的渐变_2841-46)"/><path d="M2118.81,945.57c-45.78,9.34-91.81,17.5-138.08,24.09l-8.67,1.26-8.68,1.17L1946,974.4c-11.59,1.44-23.18,2.91-34.8,4.19s-23.23,2.51-34.85,3.73-23.26,2.24-34.9,3.17-23.29,1.84-34.94,2.73-23.31,1.57-35,2.18q-35,2-70,3c-46.71,1.38-93.46,1.3-140.18.22-93.44-2.25-186.73-9.1-279.64-19.11Q1212,967,1142.54,957.56c-46.31-6.2-92.56-12.9-138.77-19.76C911.32,924.15,819,909.7,726.15,899c-46.41-5.3-93-9.61-139.62-11.77-23.33-1.06-46.69-1.58-70-1.39s-46.69,1.22-70,3.11c-46.5,3.94-92.82,11.69-137.45,25.49s-87.47,33.42-126.23,59.5c-1.21.81-2.44,1.6-3.64,2.42l-3.58,2.51c-2.38,1.68-4.79,3.34-7.16,5-4.66,3.51-9.42,6.89-14,10.56-2.29,1.81-4.6,3.6-6.87,5.43l-6.73,5.6c-1.12.94-2.25,1.86-3.35,2.81l-3.29,2.89-6.57,5.79a551.23,551.23,0,0,0-48.59,50.39C49,1103.05,23,1142.18.54,1183.12l-.09,0c22.38-41,48.17-80.26,78.28-116a551.77,551.77,0,0,1,48.56-50.52l6.56-5.81,3.28-2.9c1.1-1,2.24-1.88,3.35-2.82l6.73-5.62c2.27-1.84,4.58-3.63,6.87-5.45,4.54-3.68,9.3-7.08,14-10.6,2.37-1.71,4.77-3.37,7.16-5.06l3.59-2.52c1.2-.83,2.43-1.62,3.65-2.43,38.77-26.18,81.69-46,126.35-59.81s91.1-21.59,137.65-25.55c23.3-1.89,46.67-2.88,70-3.1s46.75.34,70.09,1.41c46.69,2.17,93.26,6.49,139.68,11.81s92.72,11.75,139,18.48,92.42,13.81,138.63,20.72,92.44,13.66,138.75,19.91,92.67,12,139.14,16.93c92.91,9.88,186.2,16.59,279.61,18.73a2664.62,2664.62,0,0,0,280.06-8,2417.75,2417.75,0,0,0,277.38-39.34Z" style="fill:url(#未命名的渐变-46)"/><rect x="4.6" width="2606.82" height="1415.86" style="fill:none"/></g></g></svg>
