<svg xmlns="http://www.w3.org/2000/svg" viewBox="0 0 1920 1082.52"><title>资源 4lighthouse</title><g id="图层_2" data-name="图层 2"><g id="图层_1-2" data-name="图层 1"><path d="M1472.82,814.85s.56,5.06,16.29,10.11,24.16,8.43,27,16.85-1.69,21.91,11.8,19.66,1.12-12.92,22.47-7.3,24.72,9.55,33.14,16.85,31.46,0,31.46,0,0-1.12,6.74,10.67,16.29,24.72,22.47,36.52-4.49,27.53-9,31.46-161.23-3.37-167.41-3.37-34.83-15.73-41.57-21.91-17.42-12.36-12.36-19.66,11.24-11.2,10.11-21.89-14-19.12.56-17.43,35.39,10.67,40.45,1.12,4.49-41,4.49-41Z" style="fill:#aeb4c1;stroke:#fff;stroke-miterlimit:10"/><rect width="1920" height="1082.52" style="fill:none"/></g></g></svg>