<svg xmlns="http://www.w3.org/2000/svg" xmlns:xlink="http://www.w3.org/1999/xlink" viewBox="0 0 1920 1082.52"><defs><linearGradient id="未命名的渐变_47313" x1="812.26" y1="141.51" x2="1481.89" y2="528.12" gradientUnits="userSpaceOnUse"><stop offset="0" stop-color="#f7fc86" stop-opacity="0"/><stop offset="0.11" stop-color="#f7fc86" stop-opacity="0.21"/><stop offset="0.24" stop-color="#f7fc86" stop-opacity="0.42"/><stop offset="0.37" stop-color="#f7fc86" stop-opacity="0.6"/><stop offset="0.5" stop-color="#f7fc86" stop-opacity="0.74"/><stop offset="0.62" stop-color="#f7fc86" stop-opacity="0.86"/><stop offset="0.75" stop-color="#f7fc86" stop-opacity="0.94"/><stop offset="0.88" stop-color="#f7fc86" stop-opacity="0.98"/><stop offset="1" stop-color="#f7fc86"/></linearGradient><linearGradient id="未命名的渐变_47313-2" x1="800.13" y1="192.19" x2="1460.54" y2="573.48" xlink:href="#未命名的渐变_47313"/><linearGradient id="未命名的渐变_47313-3" x1="794.56" y1="237.69" x2="1443.22" y2="612.2" xlink:href="#未命名的渐变_47313"/></defs><title>资源 3lighthouse</title><g id="图层_2" data-name="图层 2"><g id="图层_1-2" data-name="图层 1"><path d="M1506,540.82c4.12-2.25,5.08-1.46,11-1.69,12.07-.47,24.42,3.45,30.25,7.05,5,3.06,5.76,3.5,8.58,6.78,1.15,1.33,2,10.61-.21,9.69-2.61-1.09-9.24-6.43-16.18-8.26-6.11-1.62-18-3.23-23.78-2.85a54.19,54.19,0,0,0-8.92,1.42,11.12,11.12,0,0,1-.77-5.06Z" style="fill:#e9e8e7"/><path d="M1503.59,500.21c4.12-2.25,5.08-1.46,11-1.69,12.07-.47,24.42,3.45,30.25,7.05,5,3.06,5.76,3.5,8.58,6.78,1.15,1.33,2,10.61-.21,9.69-2.61-1.09-9.24-6.43-16.18-8.26-6.11-1.62-18-3.23-23.78-2.85a54.19,54.19,0,0,0-8.92,1.42,11.12,11.12,0,0,1-.77-5.06Z" style="fill:#e9e8e7"/><path d="M1509.92,457.48c2.54-1.39,5.7-1.42,9.38-1.43,7.77,0,16.67,2.74,20.27,5,3.07,1.89,7.38,4.34,9.12,6.37.71.82,1,8.84-.39,8.27-1.61-.67-10.19-6.81-14.48-7.95a78.19,78.19,0,0,0-13.67-2.33c-2.89-.12-9.77.45-9.77.45-.35-1.16-1.09-2-1.09-4A21.64,21.64,0,0,1,1509.92,457.48Z" style="fill:#fafcff"/><path d="M1504.55,679.08c3.18.19,17.81,1.49,25.73,3.79,10.31,3,21.78,10.63,24.78,14s10.3,12.62,10.3,12.62l2.88,39.82s-12.33-8.15-19.45-13.77a48.81,48.81,0,0,0-20.11-9.6c-4.51-1.12-25.58-3.18-25.58-3.18Z" style="fill:#ff3e32"/><path d="M1507.69,620.65c3.41.25,9-1.37,17.94,2.06,9.48,3.66,24.49,12.94,28.59,16.57,4.87,4.31,8.8,11.52,8.8,11.52l2.34,58.68s-3-5.77-10.59-13.17-34.35-16.39-41.09-16.86c-1.9-.13-8.52-.37-8.52-.37Z" style="fill:#e3e6e6"/><path d="M1503.1,722c3.41.25,15.75.24,25,3.14,12.55,3.93,20.42,9,28.09,14,5.52,3.56,11.94,8.25,11.94,8.25l5.94,66.18s-7.82-11.63-19.05-17.06c-9.57-4.62-36-13.65-42.09-14.12-1.9-.15-10.21.19-10.21.19Z" style="fill:#eef0f2"/><path d="M1507.69,584c1.31.56,7.72-.92,15.64,2.15,10.14,3.93,24.66,15.53,27.25,17.7,2.9,2.43,7,6.65,7.35,9.08s4.54,37.43,4.54,37.43-7.76-11-13.71-15c-5.21-3.54-20.57-13.05-27.78-14a73.93,73.93,0,0,0-13.28-.62Z" style="fill:#ff4733"/><path d="M1519.86,556.06a44.4,44.4,0,0,1,19.1,2.7c6,2.46,16.39,10.21,16.39,12,0,5,2.21,41,2.21,41-4.49-5.72-7.64-7.56-11-10.37s-13.17-12-22.54-15a45.69,45.69,0,0,0-15.83-2.32c-.75.12.65-25.19.65-25.19A33.42,33.42,0,0,1,1519.86,556.06Z" style="fill:#e9e8e7"/><path d="M1502.73,782.16a82.92,82.92,0,0,1,17,.37c14.79,1.87,37.17,13.48,45.69,20.5,5.73,4.72,8.35,5.93,8.61,10.11.32,5.13,3.31,61.33.88,63.39s-66.48,2-69.24.9S1502.73,782.16,1502.73,782.16Z" style="fill:#fb0d21"/><path d="M1530,674.07c-.23.84-1.88,1.24-2.76,1-4.9-1.2-11.45-2.94-13.32-4-2.06-1.12-3.2-2.49-3-4.8.14-1.78,1.22-3.26,3-2.75,6.46,1.85,13.7,3.75,16,4.59C1531.7,668.83,1530.36,672.83,1530,674.07Z" style="fill:#9ea2ad"/><path d="M1513.73,663c0-9.22,0-22.83.14-27,.16-4.69,4.31-7.44,8.05-7.44,3.14,0,8.36,3.23,8.61,8.15.15,2.9.29,10.74.29,17s-.29,14.33-.29,14.33c-2.16-1.31-5.65-1.91-8.63-2.53A80.94,80.94,0,0,1,1513.73,663Z" style="fill:#676d75"/><path d="M1519.72,634.73c.09,11.14,0,29.53,0,29.53,1.86.8,8.86,3.15,8.9,2,.08-2.24-.11-26.08-.19-29.82,0-2.25-1.66-5.23-3.89-5.57C1521.39,630.38,1519.71,633.56,1519.72,634.73Z" style="fill:#ffdf39"/><path d="M1505.68,519.13c4.64-2.55,5.74-2.39,13.07-3,9.83-.84,20.4,2,25.74,5.54,4.83,3.19,9.65,6.17,9.65,6.17,0,6,.84,24.17.84,24.17a37.67,37.67,0,0,0-11.86-7.93c-7.16-2.95-12.62-5.11-21.27-4.9a73.27,73.27,0,0,0-15.88,2.19Z" style="fill:#f83b3d"/><path d="M1506.87,553.73s-.21,3.51.42,4.28.82,1.12,1.85.7,10.55-3.08,14.44-2.38,20.14,3.94,22.53,6.38,8.08,6.12,8.89,6.89,2.15-4.85,1.37-5.9a41.31,41.31,0,0,0-10.29-7.22c-4-1.7-18.84-5.34-22.86-5.4a115.47,115.47,0,0,0-15.28,1.45A1.78,1.78,0,0,0,1506.87,553.73Z" style="fill:#5e6167"/><path d="M1504,519.81a43.06,43.06,0,0,1,17.52-3.76c8.9.17,19,3.26,22,5,3.34,2,9.86,6,10.67,6.78s1.51-4.66.74-5.71a38.07,38.07,0,0,0-9.6-6.76,57.25,57.25,0,0,0-23.06-5,102.05,102.05,0,0,0-18.69,2C1502.65,512.67,1502.92,520.24,1504,519.81Z" style="fill:#5e6167"/><path d="M1510.87,470.83c.73-.3,6.1-.6,12.43-.35s12.71,2.3,14.78,3.51c2.35,1.38,9.72,6.55,10.29,7.09s.68-4.45.14-5.2a45.4,45.4,0,0,0-8.77-6.25c-4.22-1.87-10.13-4.28-16.54-4.28a111,111,0,0,0-12.32.49C1510.26,466.06,1510.15,471.14,1510.87,470.83Z" style="fill:#5e6167"/><path d="M1511,525.71c.12-1.94.93-4.33,3.56-4.78s4.68,2,4.73,4.21.14,11.34.09,12.14-3,.59-3.93.73-4.59.51-4.59.51S1510.88,527.91,1511,525.71Z" style="fill:#fdf84a;stroke:#f7d17d;stroke-miterlimit:10"/><path d="M1526.65,526.42c.12-1.94.8-4.24,3.46-4.31a4.71,4.71,0,0,1,5,4.35c0,2.2,0,12.78-.06,13.58s-3-1-4.28-1.22c-.91-.19-4-.48-4-.48S1526.51,528.62,1526.65,526.42Z" style="fill:#fdf84a;stroke:#fbed75;stroke-miterlimit:10"/><path d="M1542.24,532.64c.05-1.95,1.17-4.44,3.56-4.06,2.72.43,3.86,3,3.93,4.85.1,2.35.14,11.71.09,12.51s-2.38-1.16-3.6-1.69c-.85-.37-4-1.59-4-1.59S1542.18,534.89,1542.24,532.64Z" style="fill:#fdf84a;stroke:#ffec66;stroke-miterlimit:10"/><path d="M1510.87,470.57v27.53a156.27,156.27,0,0,1,17.7,1c6.93,1,20.32,8.7,20,8.8s-.56-26.4-.56-26.4-9.32-8-17.72-9.74S1510.87,470.57,1510.87,470.57Z" style="fill:#5d5b4b"/><ellipse cx="1528.15" cy="441.27" rx="7.06" ry="8.78" style="fill:#ff4241"/><path d="M1513.59,448s1.4-2.18,2.81-2.25,11.14.76,14.13,1.92c3.34,1.29,10.43,3.77,11,5s.81,4.61.42,6.52c-.3,1.51-.65,2.73-1.57,2.34-3.82-1.61-17-5.61-20.58-5.79-3.3-.16-6.3.79-6.37-1.6S1513.59,448,1513.59,448Z" style="fill:#ff3025"/><path d="M1527.56,481.74c1.62,0,3.83,2.45,3.63,3.78-.18,1.14-2.66,3.77-3.49,3.78-1.12,0-3.73-2.56-3.69-3.78C1524,484,1525.59,481.74,1527.56,481.74Z" style="fill:#faed68"/><path d="M1524.34,472.4c1.62,0,3.83,2.45,3.63,3.78-.18,1.14-2.66,3.77-3.49,3.78-1.12,0-3.73-2.56-3.69-3.78C1520.82,474.62,1522.37,472.4,1524.34,472.4Z" style="fill:#faed68"/><path d="M1517.76,479.76c1.62,0,3.83,2.45,3.63,3.78-.18,1.14-2.66,3.77-3.49,3.78-1.12,0-3.73-2.56-3.69-3.78C1514.24,482,1515.79,479.76,1517.76,479.76Z" style="fill:#faed68"/><path d="M1525,489.91c1.62,0,3.83,2.45,3.63,3.78-.18,1.14-2.66,3.77-3.49,3.78-1.12,0-3.73-2.56-3.69-3.78C1521.44,492.14,1523,489.91,1525,489.91Z" style="fill:#faed68"/><path d="M1536.05,493c1.62,0,3.83,2.45,3.63,3.78-.18,1.14-2.66,3.77-3.49,3.78-1.12,0-3.73-2.56-3.69-3.78C1532.54,495.21,1534.09,493,1536.05,493Z" style="fill:#faed68"/><path d="M1543.39,479.61c1.37,0,3.24,2.18,3.07,3.37-.15,1-2.25,3.37-3,3.37-.95,0-3.15-2.29-3.13-3.37C1540.42,481.6,1541.73,479.61,1543.39,479.61Z" style="fill:#faed68"/><path d="M1536.46,485c1.44,0,3.41,2.14,3.23,3.31-.16,1-2.36,3.31-3.11,3.31-1,0-3.31-2.24-3.28-3.31C1533.34,487,1534.71,485,1536.46,485Z" style="fill:#faed68"/><path d="M1543.75,489c1.44,0,3.41,2.17,3.23,3.35-.16,1-2.36,3.35-3.11,3.35-1,0-3.31-2.27-3.28-3.35C1540.63,490.93,1542,489,1543.75,489Z" style="fill:#faed68"/><path d="M1544.65,498.22c1.26,0,3,2,2.82,3.09-.14.94-2.07,3.09-2.72,3.09-.87,0-2.9-2.1-2.87-3.09C1541.91,500,1543.12,498.22,1544.65,498.22Z" style="fill:#faed68"/><path d="M1534.77,475.06c1.62,0,3.83,2.45,3.63,3.78-.18,1.14-2.66,3.77-3.49,3.78-1.12,0-3.73-2.56-3.69-3.78C1531.26,477.29,1532.81,475.06,1534.77,475.06Z" style="fill:#faed68"/><path d="M1514.16,489.2c1.62,0,3.83,2.45,3.63,3.78-.18,1.14-2.66,3.77-3.49,3.78-1.12,0-3.73-2.56-3.69-3.78C1510.64,491.43,1512.19,489.2,1514.16,489.2Z" style="fill:#faed68"/><path d="M1514.42,471.09c1.5,0,3.56,2.19,3.37,3.39-.16,1-2.47,3.38-3.24,3.39-1,0-3.46-2.3-3.43-3.39C1511.16,473.09,1512.59,471.09,1514.42,471.09Z" style="fill:#faed68"/><polygon points="1510.4 474.4 1510.4 478.73 785.45 196.21 818.3 131.05 1510.4 474.4" style="fill:url(#未命名的渐变_47313)"/><polygon points="1510.91 482.23 1510.91 486.23 752.65 285.12 779.12 228.58 1510.91 482.23" style="fill:url(#未命名的渐变_47313-2)"/><polygon points="1511.91 493.23 744.23 369.63 752.65 310.26 1510.24 489.9 1511.91 493.23" style="fill:url(#未命名的渐变_47313-3)"/><polygon points="1548.24 487.23 1920 483.94 1920 520.12 1548.24 491.23 1548.24 487.23" style="fill:#f7fc86"/><polygon points="1548.24 493.23 1920 547.12 1920 582.36 1548.24 496.23 1548.24 493.23" style="fill:#f7fc86"/><polygon points="1548.24 499.23 1920 594.09 1920 626.15 1548.24 502.23 1548.24 499.23" style="fill:#f7fc86"/><rect width="1920" height="1082.52" style="fill:none"/></g></g></svg>