<svg xmlns="http://www.w3.org/2000/svg" xmlns:xlink="http://www.w3.org/1999/xlink" viewBox="0 0 2606.82 1415.86"  preserveAspectRatio="none meet" ><defs><linearGradient id="未命名的渐变_2838" x1="189.33" y1="899.09" x2="1580.66" y2="899.09" gradientUnits="userSpaceOnUse"><stop offset="0" stop-color="#0bd69f"/><stop offset="1" stop-color="#482caa"/></linearGradient><linearGradient id="未命名的渐变" x1="188.83" y1="899.09" x2="1581.16" y2="899.09" gradientUnits="userSpaceOnUse"><stop offset="0" stop-color="#fff"/><stop offset="1"/></linearGradient><linearGradient id="未命名的渐变_2838-2" x1="189.33" y1="869.04" x2="1580.66" y2="869.04" xlink:href="#未命名的渐变_2838"/><linearGradient id="未命名的渐变-2" x1="189.3" y1="869.01" x2="1580.68" y2="869.01" xlink:href="#未命名的渐变"/><linearGradient id="未命名的渐变_2838-3" x1="189.33" y1="877.12" x2="1580.66" y2="877.12" xlink:href="#未命名的渐变_2838"/><linearGradient id="未命名的渐变-3" x1="189.31" y1="877.06" x2="1580.68" y2="877.06" xlink:href="#未命名的渐变"/><linearGradient id="未命名的渐变_2838-4" x1="189.33" y1="885.16" x2="1580.66" y2="885.16" xlink:href="#未命名的渐变_2838"/><linearGradient id="未命名的渐变-4" x1="189.31" y1="885.11" x2="1580.68" y2="885.11" xlink:href="#未命名的渐变"/><linearGradient id="未命名的渐变_2838-5" x1="189.33" y1="893.16" x2="1580.66" y2="893.16" xlink:href="#未命名的渐变_2838"/><linearGradient id="未命名的渐变-5" x1="189.31" y1="893.09" x2="1580.68" y2="893.09" xlink:href="#未命名的渐变"/><linearGradient id="未命名的渐变_2838-6" x1="189.33" y1="901.11" x2="1580.66" y2="901.11" xlink:href="#未命名的渐变_2838"/><linearGradient id="未命名的渐变-6" x1="189.31" y1="901" x2="1580.67" y2="901" xlink:href="#未命名的渐变"/><linearGradient id="未命名的渐变_2838-7" x1="189.33" y1="908.99" x2="1580.66" y2="908.99" xlink:href="#未命名的渐变_2838"/><linearGradient id="未命名的渐变-7" x1="189.31" y1="908.9" x2="1580.67" y2="908.9" xlink:href="#未命名的渐变"/><linearGradient id="未命名的渐变_2838-8" x1="189.33" y1="916.81" x2="1580.66" y2="916.81" xlink:href="#未命名的渐变_2838"/><linearGradient id="未命名的渐变-8" x1="189.31" y1="916.69" x2="1580.67" y2="916.69" xlink:href="#未命名的渐变"/><linearGradient id="未命名的渐变_2838-9" x1="189.33" y1="924.74" x2="1580.66" y2="924.74" xlink:href="#未命名的渐变_2838"/><linearGradient id="未命名的渐变-9" x1="189.31" y1="924.81" x2="1580.67" y2="924.81" xlink:href="#未命名的渐变"/><linearGradient id="未命名的渐变_2838-10" x1="189.33" y1="935.41" x2="1580.66" y2="935.41" xlink:href="#未命名的渐变_2838"/><linearGradient id="未命名的渐变-10" x1="189.31" y1="935.46" x2="1580.67" y2="935.46" xlink:href="#未命名的渐变"/><linearGradient id="未命名的渐变_2838-11" x1="189.33" y1="944.86" x2="1580.66" y2="944.86" xlink:href="#未命名的渐变_2838"/><linearGradient id="未命名的渐变-11" x1="189.31" y1="945.06" x2="1580.67" y2="945.06" xlink:href="#未命名的渐变"/><linearGradient id="未命名的渐变_2838-12" x1="189.33" y1="950.62" x2="1580.66" y2="950.62" xlink:href="#未命名的渐变_2838"/><linearGradient id="未命名的渐变-12" x1="189.31" y1="950.82" x2="1580.67" y2="950.82" xlink:href="#未命名的渐变"/><linearGradient id="未命名的渐变_2838-13" x1="189.33" y1="956.54" x2="1580.66" y2="956.54" xlink:href="#未命名的渐变_2838"/><linearGradient id="未命名的渐变-13" x1="189.31" y1="956.73" x2="1580.67" y2="956.73" xlink:href="#未命名的渐变"/><linearGradient id="未命名的渐变_2841" x1="949.79" y1="911.18" x2="1995.52" y2="911.18" gradientUnits="userSpaceOnUse"><stop offset="0" stop-color="#fb76a7"/><stop offset="1" stop-color="#482caa"/></linearGradient><linearGradient id="未命名的渐变-14" x1="949.28" y1="911.18" x2="1996.02" y2="911.18" xlink:href="#未命名的渐变"/><linearGradient id="未命名的渐变_2841-2" x1="950.94" y1="864.17" x2="1995.52" y2="864.17" xlink:href="#未命名的渐变_2841"/><linearGradient id="未命名的渐变-15" x1="950.93" y1="864.09" x2="1995.55" y2="864.09" xlink:href="#未命名的渐变"/><linearGradient id="未命名的渐变_2841-3" x1="950.75" y1="880.66" x2="1995.52" y2="880.66" xlink:href="#未命名的渐变_2841"/><linearGradient id="未命名的渐变-16" x1="950.74" y1="880.56" x2="1995.55" y2="880.56" xlink:href="#未命名的渐变"/><linearGradient id="未命名的渐变_2841-4" x1="950.56" y1="897.76" x2="1995.52" y2="897.76" xlink:href="#未命名的渐变_2841"/><linearGradient id="未命名的渐变-17" x1="950.54" y1="897.69" x2="1995.55" y2="897.69" xlink:href="#未命名的渐变"/><linearGradient id="未命名的渐变_2841-5" x1="950.36" y1="915.32" x2="1995.52" y2="915.32" xlink:href="#未命名的渐变_2841"/><linearGradient id="未命名的渐变-18" x1="950.34" y1="915.27" x2="1995.55" y2="915.27" xlink:href="#未命名的渐变"/><linearGradient id="未命名的渐变_2841-6" x1="950.17" y1="933.22" x2="1995.52" y2="933.22" xlink:href="#未命名的渐变_2841"/><linearGradient id="未命名的渐变-19" x1="950.15" y1="933.16" x2="1995.55" y2="933.16" xlink:href="#未命名的渐变"/><linearGradient id="未命名的渐变_2841-7" x1="949.98" y1="951.35" x2="1995.52" y2="951.35" xlink:href="#未命名的渐变_2841"/><linearGradient id="未命名的渐变-20" x1="949.95" y1="951.33" x2="1995.54" y2="951.33" xlink:href="#未命名的渐变"/><linearGradient id="未命名的渐变_2841-8" x1="949.79" y1="969.61" x2="1995.52" y2="969.61" xlink:href="#未命名的渐变_2841"/><linearGradient id="未命名的渐变-21" x1="949.76" y1="969.59" x2="1995.54" y2="969.59" xlink:href="#未命名的渐变"/></defs><title>资源 10lighthouse</title><g id="图层_2" data-name="图层 2"><g id="图层_1-2" data-name="图层 1"><path d="M1580.66,907.11C790.16,1170.9,713.51,803.17,189.33,979.38v-33.5c647-378.3,1089.89,78.26,1391.33-58Z" style="stroke-miterlimit:10;fill:url(#未命名的渐变_2838);stroke:url(#未命名的渐变)"/><path d="M189.33,945.87c647-378.3,1089.89,78.26,1391.33-58" style="fill:url(#未命名的渐变_2838-2)"/><path d="M189.3,945.83l19.48-11.12,9.74-5.56c3.27-1.82,6.58-3.55,9.87-5.33l19.77-10.61c6.65-3.42,13.36-6.72,20-10.09l10-5,10.15-4.77,20.33-9.48,20.58-8.94,5.14-2.23,2.57-1.12,2.6-1L350,866.32l10.41-4.18,5.21-2.09,5.26-2,21-7.78c1.75-.67,3.52-1.27,5.29-1.86l5.31-1.8,10.63-3.59c3.55-1.18,7.07-2.44,10.64-3.55l10.73-3.29,10.73-3.29,5.37-1.64,5.41-1.49,21.64-5.94,21.8-5.33,5.45-1.33,5.48-1.18,11-2.36c29.27-6.17,58.8-11.16,88.52-14.67s59.58-5.6,89.48-6.45,59.83-.45,89.71,1.13,59.68,4.39,89.35,8.2c59.36,7.6,118.14,19.19,176.36,32.91s116,29.4,174,43.89q21.76,5.45,43.61,10.51c14.58,3.31,29.18,6.54,43.84,9.45l11,2.18,11,2c7.34,1.4,14.74,2.47,22.11,3.7,14.79,2.16,29.61,4.17,44.51,5.36,7.44.75,14.9,1.06,22.36,1.52,3.73.19,7.47.22,11.2.33l5.6.14c1.87,0,3.74,0,5.6,0l11.21-.12,11.19-.55c1.86-.11,3.73-.14,5.59-.32l5.58-.51,5.58-.51,2.79-.25c.93-.09,1.85-.24,2.78-.36l11.1-1.51c1.86-.21,3.69-.6,5.52-.93l5.51-1,5.51-1c1.83-.39,3.64-.85,5.46-1.27l5.45-1.29,2.73-.64c.91-.21,1.82-.42,2.71-.7a308.24,308.24,0,0,0,42.23-15l0,.09a308.44,308.44,0,0,1-42.19,15.17c-.89.28-1.8.5-2.71.72l-2.73.66-5.45,1.32c-1.82.43-3.63.9-5.46,1.3l-5.51,1-5.51,1c-1.84.34-3.67.73-5.53.95l-11.12,1.55c-.93.12-1.85.28-2.78.37l-2.79.26-5.59.52-5.59.52c-1.86.19-3.73.22-5.6.34l-11.21.58-11.22.15c-1.87,0-3.74.08-5.61,0l-5.61-.13c-3.74-.11-7.48-.12-11.22-.3-7.47-.44-14.95-.73-22.4-1.47-14.92-1.16-29.76-3.13-44.57-5.25-7.38-1.21-14.79-2.26-22.14-3.64l-11-2-11-2.15c-29.36-5.75-58.47-12.71-87.49-19.94-58-14.51-115.75-30.28-174-43.95-29.11-6.84-58.32-13.24-87.69-18.88s-58.88-10.5-88.53-14.37c-59.29-7.74-119.18-11.37-179-9.5q-44.83,1.37-89.43,6.65c-29.69,3.57-59.19,8.61-88.43,14.84l-11,2.38L505.12,818l-5.44,1.34-21.77,5.37-21.61,6-5.4,1.49-5.37,1.62L434.81,837l-10.72,3.27c-3.57,1.11-7.09,2.36-10.64,3.53l-10.63,3.57-5.31,1.79c-1.77.59-3.54,1.19-5.29,1.85l-21,7.74-5.26,1.94-5.21,2.08L350.29,867l-10.41,4.16-2.6,1-2.57,1.11-5.15,2.22L309,884.39l-20.34,9.44-10.16,4.74-10,5-20.06,10-19.82,10.5c-3.3,1.76-6.62,3.48-9.9,5.28l-9.77,5.51-19.54,11Z" style="fill:url(#未命名的渐变-2)"/><path d="M189.33,948.92C825.14,589,1234.76,1037.47,1580.66,889.64" style="fill:url(#未命名的渐变_2838-3)"/><path d="M189.31,948.87c52-29.34,105.72-55.65,161.52-76.95l10.44-4c3.5-1.31,7-2.52,10.53-3.79l10.54-3.76c3.52-1.23,7-2.57,10.57-3.68l21.29-6.93c3.53-1.2,7.14-2.18,10.71-3.25l10.74-3.17c3.59-1,7.14-2.16,10.75-3.11l10.82-2.86c7.22-1.88,14.42-3.87,21.71-5.48l10.9-2.54,5.45-1.27,2.73-.63,2.74-.56,21.94-4.48a988.23,988.23,0,0,1,178-17.22q44.77-.21,89.46,3.21c29.76,2.25,59.43,5.65,89,10,59.07,8.64,117.54,21,175.6,34.83S1170.53,882.14,1228.8,895c29.12,6.46,58.42,12.16,87.91,16.66,14.73,2.32,29.55,4.07,44.38,5.62l11.14.95,5.57.47c1.86.14,3.72.22,5.58.34l11.16.64c3.72.18,7.45.23,11.18.35,7.45.32,14.91.16,22.36.16,1.86,0,3.73,0,5.59-.13l5.59-.21,5.59-.21,2.79-.11,2.79-.21,11.15-.83,2.79-.21c.93-.08,1.85-.2,2.78-.3l5.56-.63,5.56-.63c1.85-.2,3.71-.41,5.54-.72l11.05-1.71c3.7-.5,7.33-1.33,11-2l5.49-1.09c1.83-.37,3.67-.69,5.47-1.16,7.23-1.81,14.53-3.37,21.65-5.6,3.57-1.07,7.18-2,10.72-3.19l10.58-3.63c1.76-.62,3.54-1.18,5.28-1.85l5.2-2.06,10.4-4.13,0,.09-10.38,4.18L1565.1,896c-1.74.68-3.52,1.25-5.27,1.87l-10.57,3.68c-3.54,1.17-7.14,2.16-10.71,3.24-7.11,2.27-14.41,3.87-21.65,5.71-1.8.49-3.64.81-5.47,1.19l-5.49,1.1c-3.66.71-7.3,1.55-11,2.06l-11.06,1.74c-1.84.32-3.69.53-5.55.74l-5.56.64-5.56.64c-.93.1-1.85.22-2.78.31l-2.79.21-11.16.86-2.79.21-2.8.11-5.59.23-5.59.23c-1.86.08-3.73.16-5.6.14-7.46,0-14.93.19-22.39-.1-3.73-.11-7.46-.15-11.19-.33l-11.18-.62c-1.86-.11-3.73-.19-5.59-.32l-5.58-.46-11.16-.92c-14.85-1.51-29.68-3.23-44.44-5.51-29.53-4.41-58.83-10.2-88-16.65-58.29-12.91-116-28.1-174.08-41.89-29-6.9-58.12-13.52-87.36-19.49S908.55,823.29,879,818.9c-59-8.75-118.65-13.84-178.33-13.36a989.33,989.33,0,0,0-177.88,17.58c-29.29,5.65-58.27,12.83-87,21l-10.74,3.14c-3.57,1.07-7.17,2-10.71,3.23l-21.29,6.88c-3.56,1.1-7,2.43-10.57,3.65L372,864.78c-3.51,1.26-7,2.46-10.53,3.76l-10.44,4-10.44,4-5.22,2c-1.74.66-3.45,1.42-5.17,2.13l-20.65,8.62c-3.46,1.4-6.84,3-10.24,4.49l-10.2,4.59L278.94,903c-3.4,1.54-6.73,3.22-10.1,4.82l-20.16,9.71-19.91,10.21-10,5.11L209,938.23,189.35,949Z" style="fill:url(#未命名的渐变-3)"/><path d="M189.33,952c624.64-341.55,1001,98.85,1391.33-60.57" style="fill:url(#未命名的渐变_2838-4)"/><path d="M189.31,951.92,209,941.4l9.86-5.25,10-5c6.66-3.32,13.29-6.72,20-10l20.23-9.47c6.71-3.24,13.59-6.09,20.4-9.1s13.61-6,20.55-8.76l20.71-8.38,20.92-7.83c28-10.15,56.36-19.35,85.14-27.08s57.93-14,87.29-19a949.08,949.08,0,0,1,178-13.14q44.67.83,89.17,5.2c29.64,2.88,59.18,6.87,88.57,11.69,58.8,9.62,117,22.58,174.94,36.26s115.83,27.85,174.37,38.77c29.27,5.43,58.72,9.88,88.33,12.93l5.55.59c1.85.19,3.71.32,5.56.48l11.12.92,2.78.23,2.79.16,5.57.32c3.71.2,7.43.46,11.14.61,14.87.51,29.76.84,44.63.3a496.6,496.6,0,0,0,174-35.49l0,.09a482.75,482.75,0,0,1-85.37,26l-5.47,1.16c-1.83.35-3.67.64-5.5,1l-11,1.89c-1.83.34-3.68.59-5.52.83l-5.54.74c-3.69.47-7.38,1-11.08,1.43l-11.12,1.09-5.56.55-5.58.36-11.15.71c-3.72.23-7.44.26-11.17.41-14.89.57-29.8.28-44.69-.19-3.72-.14-7.44-.39-11.16-.58l-5.58-.31-2.79-.15-2.78-.22-11.14-.89c-1.86-.16-3.71-.28-5.57-.46l-5.56-.57c-29.65-3-59.12-7.5-88.41-12.92-58.58-10.95-116.44-25.19-174.41-38.85s-116.06-26.87-174.82-36.61-118.1-16.16-177.66-17a950.06,950.06,0,0,0-177.84,13.51c-29.34,5-58.42,11.52-87.19,19.11s-57.12,16.8-85.13,26.89L331,886.06l-20.71,8.33c-6.94,2.69-13.72,5.78-20.56,8.71s-13.7,5.83-20.41,9.05L249,921.57c-6.71,3.21-13.35,6.58-20,9.87l-10,5-9.88,5.2L189.35,952Z" style="fill:url(#未命名的渐变-4)"/><path d="M189.33,955c613.48-323.18,956.51,109.15,1391.33-61.87" style="fill:url(#未命名的渐变_2838-5)"/><path d="M189.31,955l19.82-10.2c3.31-1.69,6.59-3.43,9.93-5.07l10-4.85,10-4.85c3.35-1.6,6.67-3.28,10.08-4.77l20.33-9.16c1.7-.75,3.38-1.55,5.09-2.27l5.14-2.16,10.28-4.31L300.33,903c3.45-1.39,6.92-2.7,10.38-4.06l10.39-4c3.47-1.33,6.91-2.74,10.43-4l21-7.52c28.13-9.64,56.64-18.15,85.49-25.35a884.08,884.08,0,0,1,87.5-17.18A948.91,948.91,0,0,1,703.42,832q44.55,1.9,88.87,7.23c29.52,3.5,58.91,8,88.17,13.3C939,863.06,997,876.4,1054.91,889.62s116,26.1,174.85,34.69c29.4,4.27,59,7.39,88.64,9l5.56.32,5.57.18,11.13.36,2.78.09,2.78,0,5.57,0,11.14.06,11.14-.24c3.71-.11,7.43-.09,11.13-.33l11.13-.57,5.56-.29,5.55-.46a605.67,605.67,0,0,0,88.05-13.2,597.22,597.22,0,0,0,85.14-26.14l0,.09a590.11,590.11,0,0,1-85.07,26.52,606.28,606.28,0,0,1-88.11,13.44l-5.56.47-5.57.31-11.14.6c-3.71.25-7.43.24-11.15.36l-11.15.27-11.15,0-5.58,0h-2.79l-2.79-.08-11.15-.33-5.57-.17-5.57-.3c-29.71-1.48-59.31-4.68-88.73-8.94-58.86-8.62-117-21.58-174.91-34.76S938.86,863.7,880.37,853.1s-117.54-18.39-177-20.69a949.88,949.88,0,0,0-177.78,9.26C466.82,850.27,409,865,352.75,884.1l-21,7.47c-3.52,1.2-7,2.6-10.43,3.93l-10.39,4c-3.46,1.35-6.94,2.66-10.39,4l-10.28,4.29L280,912.13l-5.14,2.14c-1.71.71-3.4,1.51-5.09,2.25l-20.35,9.1c-3.41,1.47-6.74,3.13-10.1,4.72l-10.06,4.8-10.06,4.8c-3.34,1.62-6.63,3.35-10,5l-19.87,10.1Z" style="fill:url(#未命名的渐变-5)"/><path d="M189.33,958.05c602.32-304.81,912.05,119.45,1391.33-63.17" style="fill:url(#未命名的渐变_2838-6)"/><path d="M189.31,958l20-9.86c3.34-1.62,6.63-3.34,10-4.88l10.09-4.68,10.1-4.68,5-2.34,5.1-2.22L270,920.5c27.41-11.38,55.22-21.81,83.43-31a914.17,914.17,0,0,1,351.32-43.29c29.61,2,59.14,5.16,88.53,9.26s58.65,9.15,87.79,14.77c58.29,11.21,116.11,24.69,174.13,37.11,29,6.2,58.1,12.08,87.32,17.2,3.65.67,7.31,1.28,11,1.87l11,1.81c7.32,1.17,14.66,2.23,22,3.35s14.69,2,22.05,2.93l11,1.29c3.68.44,7.36.87,11.06,1.21,59,6.06,118.63,7,177.58.17a724.59,724.59,0,0,0,172.42-42.29l0,.09a738.86,738.86,0,0,1-84.84,26.84,704.75,704.75,0,0,1-87.53,16.08,741.84,741.84,0,0,1-88.88,5,889.88,889.88,0,0,1-88.89-4.9c-3.7-.34-7.38-.77-11.07-1.21l-11.06-1.3c-7.36-.92-14.71-2-22.07-2.94s-14.68-2.18-22-3.36l-11-1.82c-3.66-.6-7.32-1.21-11-1.88-29.24-5.13-58.33-11-87.35-17.24s-58-12.75-86.94-19.15-58-12.64-87.1-18.31c-58.23-11.32-117-20.41-176.24-24.19a936.63,936.63,0,0,0-177.65,4.85c-29.44,3.66-58.67,8.87-87.61,15.33S381.9,881,353.67,890.1s-56,19.54-83.44,30.86-54.29,24-80.87,37.13Z" style="fill:url(#未命名的渐变-6)"/><path d="M189.33,961.1c591.15-286.44,867.59,129.75,1391.33-64.47" style="fill:url(#未命名的渐变_2838-7)"/><path d="M189.31,961.05c26.69-12.86,53.74-25,81.24-36,27.57-10.87,55.54-20.73,83.9-29.35l10.66-3.16c3.56-1,7.09-2.16,10.68-3.07l21.48-5.74,21.62-5.16,2.7-.64,2.72-.57,5.44-1.14,10.88-2.29a872.56,872.56,0,0,1,87.92-13.06q44.25-4.3,88.78-4.15c29.64.07,59.26,1.57,88.77,4.25s58.92,6.49,88.17,11.17,58.39,10.14,87.43,16c58.09,11.73,115.85,25,174,36.28,29.08,5.63,58.27,10.73,87.6,14.86s58.81,7.22,88.37,9c59.11,3.53,118.61,1.54,177.2-7.24s116.12-24.06,171.76-44.4l0,.09c-27.78,10.3-56,19.39-84.68,26.95a825.8,825.8,0,0,1-87,18.07,812.2,812.2,0,0,1-88.48,8.47,880.67,880.67,0,0,1-88.89-1c-29.59-1.78-59.09-4.86-88.44-9s-58.55-9.26-87.64-14.9c-58.19-11.26-115.9-24.8-174-36.64-29-5.92-58.14-11.45-87.39-16.16s-58.64-8.59-88.15-11.18c-59-5.28-118.5-5.61-177.44.28-29.47,2.9-58.78,7.38-87.82,13.15L429.92,877l-5.44,1.13-2.72.57-2.7.64-21.61,5.11L376,890.13c-3.59.9-7.12,2-10.68,3l-10.66,3.13c-28.35,8.56-56.33,18.36-83.91,29.17Q229.47,942,189.35,961.15Z" style="fill:url(#未命名的渐变-7)"/><path d="M189.33,964.15c580-268.06,823.13,140,1391.33-65.77" style="fill:url(#未命名的渐变_2838-8)"/><path d="M189.31,964.1c26.88-12.36,54.11-24,81.8-34.46L292,922c7-2.47,14-4.74,21-7.12s14.1-4.48,21.17-6.69c3.54-1.08,7.07-2.19,10.62-3.24l10.69-3c28.5-8,57.37-14.66,86.52-19.84a837.91,837.91,0,0,1,88.1-10.85,884.48,884.48,0,0,1,88.74-1.7c29.58.89,59.12,3.19,88.51,6.59s58.67,7.83,87.81,13,58.16,11,87.13,17,57.91,12.19,86.9,18.09,58,11.49,87.22,16.41,58.47,9.08,87.89,12.09,59,4.89,88.53,5.39a926.71,926.71,0,0,0,176.63-13.76l10.91-2,5.45-1c1.82-.33,3.64-.67,5.44-1.07l21.71-4.58,21.58-5.14c3.61-.81,7.16-1.84,10.74-2.76L1496,925q42.81-11.68,84.64-26.64l0,.09c-55.64,20.09-112.77,36.43-171.1,46.66q-43.71,7.78-88,11.35c-29.51,2.37-59.14,3.18-88.73,2.67s-59.17-2.41-88.61-5.43-58.76-7.22-87.95-12.13c-58.39-9.79-116.17-22.73-174.08-34.86s-116-23.51-174.87-30.1c-29.39-3.33-58.92-5.57-88.49-6.39a873.41,873.41,0,0,0-263.16,32.48l-10.69,3c-3.55,1-7.08,2.15-10.61,3.22-7.06,2.19-14.18,4.21-21.17,6.64s-14,4.62-21,7.08l-20.86,7.55q-41.53,15.63-81.93,34.07Z" style="fill:url(#未命名的渐变-8)"/><path d="M189.33,967.19C758.16,717.5,968,1117.53,1580.66,900.12" style="fill:url(#未命名的渐变_2838-9)"/><path d="M189.31,967.15c27.08-11.84,54.51-22.9,82.37-32.78s56.18-18.49,84.81-25.83a886.44,886.44,0,0,1,86.88-17.69,823.4,823.4,0,0,1,88.25-8.46c29.54-1.26,59.14-.95,88.65.74s58.93,4.85,88.21,8.93,58.41,9.1,87.44,14.64,58,11.55,86.91,17.55,57.89,11.94,86.94,17.36S1028,951.93,1057.24,956c58.52,8.13,117.65,12.17,176.73,10.82a1015.61,1015.61,0,0,0,175.94-19.48q43.46-8.65,86.2-20.55t84.53-26.68l0,.09c-27.87,9.83-56,19-84.43,27.07S1439,942.17,1410.06,948s-58.2,10.54-87.59,13.82-58.92,5.26-88.48,5.92c-59.13,1.33-118.32-2.74-176.87-10.89s-116.55-20-174.39-32.09S767,900.42,708.43,892.43c-29.27-4-58.69-7.08-88.19-8.73s-59.08-1.87-88.59-.56a868.23,868.23,0,0,0-175,26.06c-57.33,14.39-113.06,34.64-167.31,58Z" style="fill:url(#未命名的渐变-9)"/><path d="M189.33,970.24C747,738.92,923.54,1130.87,1580.66,901.87" style="fill:url(#未命名的渐变_2838-10)"/><path d="M189.31,970.19c54.53-22.61,110.63-41.76,168.24-54.94a861.4,861.4,0,0,1,87.22-15.45,787.51,787.51,0,0,1,88.38-5.92c59.1-.73,118.12,5,176.37,14.58s116,22.11,173.9,33.75c28.95,5.8,58,11.31,87.09,16.09s58.38,8.84,87.74,11.88a1093.91,1093.91,0,0,0,176.83,4.14l22.08-1.52,22-2,22-2.46c3.67-.38,7.32-.93,11-1.4l11-1.47c29.23-4.1,58.29-9.33,87.16-15.49s57.46-13.57,85.87-21.57l21.25-6.21c3.55-1,7.06-2.17,10.58-3.25l10.56-3.31,10.57-3.31c3.51-1.13,7-2.33,10.5-3.5l21-7,0,.09-21,7.14c-3.5,1.18-7,2.4-10.49,3.55L1538.67,916l-10.55,3.36c-3.52,1.1-7,2.29-10.57,3.3l-21.24,6.28c-28.4,8.07-57,15.51-85.86,21.8-57.72,12.48-116.32,21.26-175.32,24.59a1094.87,1094.87,0,0,1-177-4.2c-58.78-6-117-16.59-174.84-28.34L796.55,924.9c-28.93-5.88-57.94-11.42-87.09-16.06-58.26-9.46-117.26-15-176.3-14.19-3.69,0-7.38.16-11.06.26l-11.06.34c-7.37.34-14.73.79-22.1,1.2-7.35.62-14.71,1.15-22.06,1.83s-14.68,1.48-22,2.39a860.62,860.62,0,0,0-87.17,15.26c-28.79,6.52-57.22,14.56-85.27,23.75s-55.75,19.45-83.08,30.61Z" style="fill:url(#未命名的渐变-10)"/><path d="M189.33,973.28c546.5-212.95,689.75,170.93,1391.33-69.67" style="fill:url(#未命名的渐变_2838-11)"/><path d="M189.31,973.24c27.49-10.7,55.33-20.55,83.56-29.13s56.84-16,85.76-21.85a821.52,821.52,0,0,1,87.54-13A795.85,795.85,0,0,1,534.62,906c29.52.47,59,2.73,88.29,6.11,14.66,1.64,29.27,3.74,43.86,5.92s29.13,4.72,43.63,7.4C768.46,936,826,949,884,959.86c29,5.42,58.09,10.32,87.32,14.31s58.57,7.07,88,9a1117.21,1117.21,0,0,0,176.74-2.31c29.37-2.72,58.62-6.6,87.72-11.34l10.91-1.83c3.64-.61,7.28-1.19,10.89-1.91l21.74-4.1c7.23-1.44,14.44-3,21.66-4.51s14.41-3.15,21.59-4.81c14.4-3.2,28.67-6.91,43-10.5,7.13-1.87,14.24-3.85,21.36-5.77l10.67-2.91,10.62-3.1,21.23-6.22,21.13-6.57,10.56-3.3,10.5-3.47,21-6.94,0,.09-21,7-10.49,3.52-10.54,3.35-21.1,6.67-21.22,6.29-10.61,3.13-10.67,2.93c-7.12,1.94-14.22,3.94-21.35,5.83-14.3,3.62-28.57,7.38-43,10.61-7.18,1.68-14.36,3.4-21.59,4.87s-14.43,3.11-21.66,4.57l-21.74,4.16c-3.62.73-7.26,1.31-10.9,1.94L1324,970.46q-43.67,7.25-87.79,11.37a1118.17,1118.17,0,0,1-176.89,2.25c-58.93-3.81-117.4-12.69-175.36-23.68-29-5.48-57.87-11.51-86.77-17.49S739.38,931,710.34,925.77c-14.51-2.65-29.07-5-43.64-7.3s-29.2-4.21-43.86-5.82c-29.3-3.31-58.75-5.51-88.24-5.92a819.71,819.71,0,0,0-175.83,16.21c-57.84,11.66-114.35,29.29-169.43,50.39Z" style="fill:url(#未命名的渐变-11)"/><path d="M189.33,976.33c535.34-194.57,645.29,181.23,1391.33-71" style="fill:url(#未命名的渐变_2838-12)"/><path d="M189.31,976.28C217,966.21,245.07,957,273.49,949.15s57.19-14.5,86.25-19.59A802.63,802.63,0,0,1,447.56,919a756.15,756.15,0,0,1,88.45-.38c3.68.2,7.37.36,11,.6l11,.81,5.52.41,5.51.51,11,1c3.67.36,7.33.81,11,1.21s7.33.78,11,1.29c7.31,1,14.63,1.85,21.92,3,14.6,2.05,29.14,4.53,43.67,7.05s29,5.34,43.46,8.25c28.92,5.78,57.76,11.9,86.65,17.78S855.62,972.13,884.7,977,943,986,972.29,989s58.75,5,88.21,5.88,59,.55,88.39-.86,58.82-4,88.08-7.54,58.41-8,87.39-13.4c3.63-.62,7.24-1.34,10.86-2.06l10.84-2.14,10.84-2.14,10.8-2.34c7.2-1.58,14.42-3.08,21.59-4.74l21.52-5.08c28.63-7,57.15-14.51,85.42-22.89l10.61-3.1,5.31-1.55,5.28-1.63,21.13-6.53c7.06-2.13,14-4.46,21.06-6.75l21-6.87,0,.09c-28,9.34-56,18.57-84.3,26.8-28.25,8.45-56.76,16-85.38,23.12l-21.51,5.14c-7.18,1.68-14.4,3.19-21.59,4.79l-10.8,2.37-10.85,2.17L1335.39,972c-3.61.72-7.23,1.46-10.86,2.09L1302.76,978c-7.27,1.23-14.56,2.33-21.84,3.5s-14.59,2.15-21.89,3.18l-11,1.52c-3.66.47-7.32.88-11,1.32-29.28,3.53-58.68,6.14-88.15,7.51s-59,1.69-88.46.83-58.93-2.88-88.26-6-58.53-7.34-87.6-12.28-58-10.61-86.89-16.56S740,948.84,711.07,943.17c-14.46-2.88-29-5.56-43.46-8.15s-29.07-4.93-43.67-7c-7.29-1.1-14.61-2-21.91-2.92-3.65-.5-7.32-.85-11-1.27s-7.32-.83-11-1.19l-11-1-5.5-.5L558,920.8,547,920c-3.68-.24-7.36-.39-11-.58a791.51,791.51,0,0,0-176.12,10.81c-58.11,10.05-115,26.3-170.51,46.14Z" style="fill:url(#未命名的渐变-12)"/><path d="M189.33,979.38c524.18-176.2,600.82,191.53,1391.33-72.27" style="fill:url(#未命名的渐变_2838-13)"/><path d="M189.31,979.33c27.93-9.4,56.19-17.9,84.8-25s57.54-13,86.72-17.21a753,753,0,0,1,88.07-7.75c7.37-.16,14.74-.41,22.11-.3,3.69,0,7.37,0,11.06.06l11.05.3,5.53.15,5.52.26,11,.55c3.68.2,7.35.51,11,.76s7.36.48,11,.85c58.81,5,116.8,16.39,174.43,28.61s115.34,24.57,173.72,32.81c29.17,4.14,58.48,7.38,87.88,9.36s58.86,2.9,88.32,2.7,58.92-1.49,88.28-3.9,58.65-5.8,87.8-10,58.17-9.47,87.06-15.23l21.64-4.46L1368,967c7.2-1.55,14.36-3.32,21.52-5s14.34-3.4,21.47-5.23c57.13-14.47,113.68-31.24,169.66-49.7l0,.09c-55.88,18.77-112.39,35.69-169.51,50.3-57.15,14.45-114.93,26.62-173.3,35-29.18,4.22-58.48,7.62-87.87,10s-58.87,3.65-88.35,3.87a1158,1158,0,0,1-176.29-12.43c-29.18-4.22-58.22-9.32-87.13-15.06S740.49,967,711.63,961C654,948.87,596,937.61,537.22,932.74a774.09,774.09,0,0,0-176.29,5c-58.35,8.36-115.64,23.14-171.58,41.64Z" style="fill:url(#未命名的渐变-13)"/><path d="M1995.52,948c-398.93-137.18-806.74,211-1045.73,14.43L950.94,924c354,54.52,730.53-277.31,1044.59-37.93Z" style="stroke-miterlimit:10;fill:url(#未命名的渐变_2841);stroke:url(#未命名的渐变-14)"/><path d="M950.94,924c354,54.52,730.53-277.31,1044.59-37.93" style="fill:url(#未命名的渐变_2841-2)"/><path d="M950.95,923.92c44.48,6.67,89.71,7.34,134.49,3.84,22.4-1.75,44.72-4.53,66.91-8.07s44.27-7.74,66.23-12.53C1262.5,897.61,1306,886,1349.28,874c21.67-6,43.28-12.19,64.91-18.3s43.29-12.15,65-17.91c43.45-11.52,87.23-22.07,131.61-29.45s89.35-11.68,134.36-10.28a474.27,474.27,0,0,1,67.12,6.71,415.26,415.26,0,0,1,65.26,17,409.56,409.56,0,0,1,61.58,27.41A443.84,443.84,0,0,1,1995.55,886l-.06.08C1959.64,859,1919.81,837,1877.31,822.4a414.42,414.42,0,0,0-65.19-16.71,485.61,485.61,0,0,0-67-6.67c-44.92-1.42-89.87,2.86-134.18,10.21s-88.14,17.67-131.62,29.08c-21.74,5.71-43.41,11.7-65.05,17.76l-64.91,18.29c-43.28,12.15-86.71,23.88-130.64,33.54s-88.38,17.15-133.25,20.54a650.83,650.83,0,0,1-67.42,1.72A528.76,528.76,0,0,1,950.93,924Z" style="fill:url(#未命名的渐变-15)"/><path d="M950.75,930.38c334.87,78.19,716.58-256.36,1044.78-34" style="fill:url(#未命名的渐变_2841-3)"/><path d="M950.76,930.33c43.67,10,88.7,13.1,133.39,11.33,22.36-.88,44.66-2.94,66.84-5.88s44.26-6.65,66.21-11c43.92-8.69,87.34-19.68,130.6-31.21,21.64-5.74,43.21-11.72,64.8-17.63s43.2-11.77,64.88-17.39c43.34-11.22,87-21.55,131.16-28.92s88.93-11.91,133.76-11.21a514.13,514.13,0,0,1,67,5.27,453.22,453.22,0,0,1,65.55,14.61,433.41,433.41,0,0,1,62.54,24.4,456,456,0,0,1,58.09,33.63l-.06.08A446.67,446.67,0,0,0,1874.71,839c-42.87-12.88-87.62-18.88-132.32-19.59s-89.47,3.79-133.59,11.13S1521,848,1477.62,859.09c-21.68,5.56-43.3,11.37-64.91,17.23l-64.81,17.62c-43.23,11.65-86.63,22.78-130.55,31.58-22,4.38-44,8.24-66.25,11.11s-44.54,4.89-66.93,5.71a557.38,557.38,0,0,1-67.14-1.44,454.19,454.19,0,0,1-66.3-10.48Z" style="fill:url(#未命名的渐变-16)"/><path d="M950.56,936.79c315.69,101.87,702.63-235.41,1045-30.09" style="fill:url(#未命名的渐变_2841-4)"/><path d="M950.57,936.74c42.59,13.52,87.35,19.27,131.93,19.32a629.11,629.11,0,0,0,66.8-3.62c22.19-2.34,44.28-5.56,66.24-9.51,43.94-7.89,87.37-18.36,130.6-29.45,21.63-5.53,43.19-11.32,64.75-17.07s43.15-11.46,64.79-17c43.27-11,86.8-21.14,130.85-28.56s88.6-12.22,133.29-12.27a560.85,560.85,0,0,1,66.88,3.77,491.57,491.57,0,0,1,65.82,12.34,461.8,461.8,0,0,1,63.4,21.5,473,473,0,0,1,59.62,30.42l-.05.09a470.13,470.13,0,0,0-123.15-51.3c-43.23-11.12-87.93-15.86-132.51-15.84s-89.15,4.8-133.14,12.2-87.57,17.33-130.87,28.2c-21.65,5.44-43.24,11.1-64.82,16.8l-64.76,17.06c-43.21,11.22-86.62,21.82-130.56,29.83s-88.48,13.27-133.18,13.07a479.68,479.68,0,0,1-66.78-4.79,394.36,394.36,0,0,1-65.18-15.12Z" style="fill:url(#未命名的渐变-17)"/><path d="M950.36,943.2C1246.88,1068.74,1639,728.74,1995.52,917" style="fill:url(#未命名的渐变_2841-5)"/><path d="M950.38,943.16a353.11,353.11,0,0,0,63.79,19.61,414.81,414.81,0,0,0,66.24,8.18,551.51,551.51,0,0,0,66.76-1.4c22.2-1.75,44.33-4.5,66.32-8.06,44-7.11,87.48-17.11,130.74-27.83,21.64-5.34,43.2-11,64.77-16.59s43.14-11.22,64.77-16.62c43.24-10.81,86.71-20.91,130.66-28.47s88.38-12.67,133-13.47a612.43,612.43,0,0,1,66.84,2.32A534.88,534.88,0,0,1,1870.35,871a490,490,0,0,1,125.2,46l0,.09a498.65,498.65,0,0,0-125.3-45.35c-43.55-9.45-88.24-13-132.76-12.24s-89,5.85-132.85,13.39-87.42,17.4-130.68,28.1c-21.63,5.35-43.22,10.91-64.8,16.47s-43.17,11.13-64.78,16.58c-43.23,10.85-86.69,21-130.71,28.21-22,3.59-44.13,6.5-66.38,8.17a552.3,552.3,0,0,1-66.86,1.23,415.42,415.42,0,0,1-66.31-8.37,347,347,0,0,1-63.72-20Z" style="fill:url(#未命名的渐变-18)"/><path d="M950.17,949.62c277.35,149.21,674.72-193.51,1045.35-22.26" style="fill:url(#未命名的渐变_2841-6)"/><path d="M950.2,949.57a315.12,315.12,0,0,0,61.94,24.73c5.32,1.65,10.77,2.81,16.17,4.15,2.69.7,5.43,1.2,8.16,1.74l8.19,1.62c2.74.48,5.5.87,8.25,1.31l4.13.64c1.37.22,2.75.44,4.13.58l8.29,1,4.15.49,4.16.35a485.32,485.32,0,0,0,66.74,1c22.24-1.12,44.42-3.41,66.46-6.62,44.1-6.41,87.68-16,131-26.4,21.67-5.19,43.26-10.7,64.86-16.22s43.18-11.05,64.81-16.41c43.26-10.72,86.71-20.8,130.63-28.53s88.26-13.25,132.84-14.83A662.29,662.29,0,0,1,1802,879a583.59,583.59,0,0,1,66.37,8.12,533.89,533.89,0,0,1,64.89,16,522.52,522.52,0,0,1,62.3,24.17l0,.09a532.66,532.66,0,0,0-127.28-39.59c-43.86-7.85-88.58-10.27-133.08-8.7s-88.85,7-132.72,14.75S1515,911.42,1471.77,922c-21.64,5.31-43.24,10.79-64.85,16.26s-43.22,10.91-64.86,16.21c-43.3,10.54-86.86,20.26-131,26.78s-88.9,9.56-133.37,5.55l-4.17-.36-4.15-.5-8.3-1c-1.39-.14-2.76-.37-4.14-.59l-4.13-.66c-2.75-.45-5.51-.85-8.26-1.34l-8.2-1.64c-2.73-.55-5.48-1.06-8.17-1.77-5.41-1.35-10.86-2.54-16.19-4.2a310.33,310.33,0,0,1-61.85-25.13Z" style="fill:url(#未命名的渐变-19)"/><path d="M950,956c258.17,172.88,660.76-172.56,1045.54-18.34" style="fill:url(#未命名的渐变_2841-7)"/><path d="M950,956a286.7,286.7,0,0,0,59.63,30,307.23,307.23,0,0,0,64.86,15.76,412.81,412.81,0,0,0,66.72,3.47,650.73,650.73,0,0,0,66.66-5.24c44.26-5.68,88-14.93,131.42-25.09,21.73-5.07,43.37-10.5,65-16s43.27-10.95,64.93-16.29c43.33-10.69,86.82-20.84,130.75-28.85s88.26-13.9,132.87-16.24,89.44-1,133.64,5.46a578.5,578.5,0,0,1,65.57,13.47,555.91,555.91,0,0,1,63.48,21.17l0,.09a572.71,572.71,0,0,0-129.12-34,619.6,619.6,0,0,0-66.62-5.81q-33.43-1.16-66.87.61c-44.55,2.31-88.87,8.19-132.75,16.17s-87.43,17.9-130.78,28.48-86.57,21.72-130,32.08-87.12,19.67-131.41,25.48a621.58,621.58,0,0,1-66.74,5.36,413.58,413.58,0,0,1-66.83-3.66,307.83,307.83,0,0,1-64.94-16A282.78,282.78,0,0,1,950,956.07Z" style="fill:url(#未命名的渐变-20)"/><path d="M949.79,962.44C1188.79,1159,1596.6,810.83,1995.52,948" style="fill:url(#未命名的渐变_2841-8)"/><path d="M949.82,962.4a266.53,266.53,0,0,0,56.83,35.31c2.5,1.26,5.12,2.23,7.69,3.32s5.15,2.17,7.76,3.16l7.9,2.8,4,1.4,4,1.21,8,2.4c2.68.77,5.42,1.37,8.12,2.07l4.07,1,2,.5,2.05.41,8.22,1.65c2.73.6,5.5,1,8.26,1.42l8.28,1.29,8.33,1c2.78.31,5.55.68,8.34.85,5.57.4,11.14.94,16.73,1.07l8.38.34,8.38.07a565.86,565.86,0,0,0,66.93-3.79c44.46-5.06,88.39-14,132-24,21.81-5,43.54-10.35,65.25-15.77l65.13-16.27c43.44-10.75,87-21,131-29.3s88.36-14.8,133-17.86c22.33-1.54,44.73-2.3,67.12-2s44.76,1.61,67,4a627.72,627.72,0,0,1,66.23,11A595.69,595.69,0,0,1,1995.54,948l0,.09a618.9,618.9,0,0,0-130.86-28.61c-44.5-4.7-89.39-4.85-134-1.8s-89,9.54-132.95,17.78-87.6,18.3-131.07,28.94-86.84,21.7-130.43,31.88-87.5,19.19-132,24.37c-5.56.63-11.14,1.15-16.7,1.73-5.58.41-11.16.92-16.75,1.25-11.18.63-22.37,1.09-33.57.92l-8.4-.09-8.39-.36c-5.6-.15-11.18-.7-16.76-1.12-2.8-.17-5.57-.56-8.35-.87l-8.34-1-8.3-1.32c-2.77-.44-5.54-.84-8.27-1.45l-8.23-1.67-2.06-.42-2-.51-4.07-1c-2.71-.7-5.45-1.31-8.13-2.1l-8-2.43-4-1.22-4-1.41-7.91-2.83c-2.61-1-5.18-2.13-7.77-3.19s-5.2-2.08-7.7-3.35a263.21,263.21,0,0,1-56.68-35.69Z" style="fill:url(#未命名的渐变-21)"/><rect width="2606.82" height="1415.86" style="fill:none"/></g></g></svg>
