<svg xmlns="http://www.w3.org/2000/svg" viewBox="0 0 1921.1 1082.52"><title>资源 6lighthouse</title><g id="图层_2" data-name="图层 2"><g id="图层_1-2" data-name="图层 1"><path d="M493.54,872.07c44.28,1.15,50.1,59.35,104.48,57.66s73.32-34.61,133.87-34.61c61.36,0,94.1,40.58,169.16,43.91s68.39-38.07,110.3-43.91c52.56-7.33,119.42,37.41,181.28,44s66.34-60.76,132.16-67.08c64.15-6.17,51.17,82.65,134.64,78.86,66-3,77.18-32.65,142.14-37.66,48.57-3.75,126.47,69.66,203.24,29.12,87.9-46.42,115.71,108.15,115.71,108.15L34.78,1043.6s-38.09-38.47-34-68.16,10.48-76.88,35.05-81.94,97.66,33.7,146.77,32,54.95-27.18,92.78-30.4c23.71-2,52.66,30.66,94.4,31.62C407,927.59,451.67,871,493.54,872.07Z" style="fill:#55dcff;stroke:#fff;stroke-miterlimit:10"/><rect x="0.5" width="1920" height="1082.52" style="fill:none"/></g></g></svg>