<svg xmlns="http://www.w3.org/2000/svg" viewBox="0 0 1922.7 1082.52"><title>资源 7lighthouse</title><g id="图层_2" data-name="图层 2"><g id="图层_1-2" data-name="图层 1"><path d="M518.79,919.41c46.21,1.15,63.18,51,119.94,49.36S717,907.56,780.38,914.52s83.37,51,161.72,54.29,110.43-76.21,153.47-67.79,86.29,61.29,150.85,67.89,101-57.14,169.91-52.09,54.45,71.2,141.57,67.41c68.87-3,47.95-55.66,115.74-60.67,50.7-3.75,129.78,78.48,158.79,59.17,83.22-55.4,89.76,97.26,89.76,97.26H2.18s-4-45.1.33-74.79,10.94-76.88,36.59-81.94S141,957,192.27,955.29s79.24-49,118-42.21c12,2.12,56.23,53,99.79,53.93C448.82,967.86,475.09,918.32,518.79,919.41Z" style="fill:#079dff;stroke:#fff;stroke-miterlimit:10"/><rect x="2.18" width="1920" height="1082.52" style="fill:none"/></g></g></svg>