<svg xmlns="http://www.w3.org/2000/svg" xmlns:xlink="http://www.w3.org/1999/xlink" viewBox="0 0 2606.82 1415.86"><defs><linearGradient id="未命名的渐变_47311" x1="1527.76" y1="460.8" x2="1830.52" y2="635.6" gradientUnits="userSpaceOnUse"><stop offset="0" stop-color="#f7fc86" stop-opacity="0"/><stop offset="0.11" stop-color="#f7fc86" stop-opacity="0.21"/><stop offset="0.24" stop-color="#f7fc86" stop-opacity="0.42"/><stop offset="0.37" stop-color="#f7fc86" stop-opacity="0.6"/><stop offset="0.5" stop-color="#f7fc86" stop-opacity="0.74"/><stop offset="0.62" stop-color="#f7fc86" stop-opacity="0.86"/><stop offset="0.75" stop-color="#f7fc86" stop-opacity="0.94"/><stop offset="0.88" stop-color="#f7fc86" stop-opacity="0.98"/><stop offset="1" stop-color="#f7fc86"/></linearGradient><linearGradient id="未命名的渐变_47311-2" x1="1522.27" y1="483.72" x2="1820.86" y2="656.11" xlink:href="#未命名的渐变_47311"/><linearGradient id="未命名的渐变_47311-3" x1="1519.75" y1="504.29" x2="1813.04" y2="673.62" xlink:href="#未命名的渐变_47311"/><linearGradient id="未命名的渐变_47311-4" x1="2028.6" y1="623.81" x2="1860.52" y2="623.81" xlink:href="#未命名的渐变_47311"/><linearGradient id="未命名的渐变_47311-5" x1="2005.77" y1="604.64" x2="1889.67" y2="671.67" xlink:href="#未命名的渐变_47311"/><linearGradient id="未命名的渐变_47311-6" x1="2001.45" y1="618.39" x2="1893.37" y2="680.79" xlink:href="#未命名的渐变_47311"/></defs><title>资源 8lighthouse</title><g id="图层_2" data-name="图层 2"><g id="图层_1-2" data-name="图层 1"><path d="M1841.4,641.34c1.86-1,2.3-.66,5-.77a27.09,27.09,0,0,1,13.68,3.19c2.24,1.38,2.61,1.58,3.88,3.07.52.6.9,4.8-.1,4.38-1.18-.49-4.18-2.91-7.32-3.74a44.67,44.67,0,0,0-10.75-1.29,24.5,24.5,0,0,0-4,.64,5,5,0,0,1-.35-2.29Z" style="fill:#e9e8e7"/><path d="M1840.33,623c1.86-1,2.3-.66,5-.77a27.09,27.09,0,0,1,13.68,3.19c2.24,1.38,2.61,1.58,3.88,3.07.52.6.9,4.8-.1,4.38-1.18-.49-4.18-2.91-7.32-3.74a44.67,44.67,0,0,0-10.75-1.29,24.5,24.5,0,0,0-4,.64,5,5,0,0,1-.35-2.29Z" style="fill:#e9e8e7"/><path d="M1843.19,603.67a8.92,8.92,0,0,1,4.24-.65,20.65,20.65,0,0,1,9.17,2.24,21.41,21.41,0,0,1,4.12,2.88c.32.37.44,4-.18,3.74s-4.61-3.08-6.55-3.59a35.35,35.35,0,0,0-6.18-1.05c-1.31-.06-4.42.2-4.42.2a4.64,4.64,0,0,1-.49-1.82A9.78,9.78,0,0,1,1843.19,603.67Z" style="fill:#fafcff"/><path d="M1840.77,703.86a71.42,71.42,0,0,1,11.63,1.71c4.66,1.35,9.85,4.8,11.2,6.33s4.66,5.7,4.66,5.7l1.3,18s-5.58-3.69-8.79-6.23a22.07,22.07,0,0,0-9.09-4.34c-2-.51-11.57-1.44-11.57-1.44Z" style="fill:#ff3e32"/><path d="M1842.18,677.44c1.54.11,4.09-.62,8.11.93a61.15,61.15,0,0,1,12.93,7.49,22.65,22.65,0,0,1,4,5.21l1.06,26.53a26,26,0,0,0-4.79-6c-3.45-3.35-15.53-7.41-18.58-7.62-.86-.06-3.85-.17-3.85-.17Z" style="fill:#e3e6e6"/><path d="M1840.11,723.26c1.54.11,7.12.11,11.3,1.42a48.1,48.1,0,0,1,12.7,6.31c2.5,1.61,5.4,3.73,5.4,3.73l2.69,29.92s-3.53-5.26-8.61-7.71c-4.33-2.09-16.29-6.17-19-6.39-.86-.07-4.62.09-4.62.09Z" style="fill:#eef0f2"/><path d="M1842.18,660.85c.59.25,3.49-.41,7.07,1,4.59,1.78,11.15,7,12.32,8s3.17,3,3.32,4.11,2.05,16.92,2.05,16.92-3.51-5-6.2-6.8c-2.35-1.6-9.3-5.9-12.56-6.33a33.43,33.43,0,0,0-6-.28Z" style="fill:#ff4733"/><path d="M1847.69,648.24a20.07,20.07,0,0,1,8.64,1.22c2.73,1.11,7.41,4.61,7.41,5.42,0,2.26,1,18.53,1,18.53a25.13,25.13,0,0,0-5-4.69c-1.52-1.27-6-5.41-10.19-6.78a20.66,20.66,0,0,0-7.16-1.05c-.34.05.29-11.39.29-11.39A15.11,15.11,0,0,1,1847.69,648.24Z" style="fill:#e9e8e7"/><path d="M1839.94,750.46a37.49,37.49,0,0,1,7.7.17c6.69.85,16.81,6.1,20.66,9.27,2.59,2.13,3.78,2.68,3.89,4.57.15,2.32,1.5,27.73.4,28.66s-30.06.91-31.31.41S1839.94,750.46,1839.94,750.46Z" style="fill:#fb0d21"/><path d="M1852.28,701.59c-.11.38-.85.56-1.25.47a41.09,41.09,0,0,1-6-1.79,2.13,2.13,0,0,1-1.37-2.17c.06-.8.55-1.47,1.36-1.24,2.92.84,6.19,1.69,7.23,2.07C1853,699.22,1852.44,701,1852.28,701.59Z" style="fill:#9ea2ad"/><path d="M1844.92,696.59c0-4.17,0-10.32.06-12.2a3.58,3.58,0,0,1,3.64-3.37,4.26,4.26,0,0,1,3.89,3.68c.07,1.31.13,4.86.13,7.68s-.13,6.48-.13,6.48a13.64,13.64,0,0,0-3.9-1.14A36.6,36.6,0,0,1,1844.92,696.59Z" style="fill:#676d75"/><path d="M1847.62,683.81c0,5,0,13.35,0,13.35.84.36,4,1.42,4,.9,0-1,0-11.79-.08-13.48,0-1-.75-2.36-1.76-2.52A2,2,0,0,0,1847.62,683.81Z" style="fill:#ffdf39"/><path d="M1841.27,631.54c2.1-1.15,2.59-1.08,5.91-1.36,4.44-.38,9.22.91,11.64,2.5,2.19,1.44,4.36,2.79,4.36,2.79,0,2.72.38,10.93.38,10.93a17,17,0,0,0-5.36-3.59c-3.24-1.33-5.71-2.31-9.62-2.22a33.13,33.13,0,0,0-7.18,1Z" style="fill:#f83b3d"/><path d="M1841.81,647.18s-.1,1.59.19,1.94.37.51.84.32,4.77-1.39,6.53-1.08,9.11,1.78,10.19,2.89,3.65,2.77,4,3.11,1-2.19.62-2.67a18.68,18.68,0,0,0-4.65-3.27,27,27,0,0,0-17.25-1.79A.81.81,0,0,0,1841.81,647.18Z" style="fill:#5e6167"/><path d="M1840.5,631.85a19.47,19.47,0,0,1,7.92-1.7,26.41,26.41,0,0,1,9.94,2.25c1.51.88,4.46,2.71,4.83,3.06s.68-2.11.33-2.58a17.21,17.21,0,0,0-4.34-3.06,25.89,25.89,0,0,0-10.42-2.25,46.14,46.14,0,0,0-8.45.9C1839.91,628.62,1840,632,1840.5,631.85Z" style="fill:#5e6167"/><path d="M1843.62,609.7a29.43,29.43,0,0,1,5.62-.16,17.31,17.31,0,0,1,6.68,1.59c1.06.62,4.39,3,4.65,3.21s.31-2,.06-2.35a20.53,20.53,0,0,0-4-2.83,18.73,18.73,0,0,0-7.48-1.94,50.2,50.2,0,0,0-5.57.22C1843.35,607.54,1843.29,609.84,1843.62,609.7Z" style="fill:#5e6167"/><path d="M1843.69,634.51a2.08,2.08,0,0,1,1.61-2.16,1.91,1.91,0,0,1,2.14,1.9c0,1,.06,5.13,0,5.49s-1.36.27-1.78.33-2.07.23-2.07.23S1843.63,635.51,1843.69,634.51Z" style="fill:#fdf84a;stroke:#f7d17d;stroke-miterlimit:10"/><path d="M1850.76,634.83c.05-.88.36-1.92,1.57-1.95a2.13,2.13,0,0,1,2.25,2c0,1,0,5.78,0,6.14s-1.35-.43-1.94-.55c-.41-.08-1.81-.22-1.81-.22S1850.7,635.83,1850.76,634.83Z" style="fill:#fdf84a;stroke:#fbed75;stroke-miterlimit:10"/><path d="M1857.81,637.65c0-.88.53-2,1.61-1.84a2.25,2.25,0,0,1,1.78,2.19c0,1.06.06,5.29,0,5.65s-1.07-.52-1.63-.76c-.38-.17-1.8-.72-1.8-.72S1857.78,638.66,1857.81,637.65Z" style="fill:#fdf84a;stroke:#ffec66;stroke-miterlimit:10"/><path d="M1843.62,609.58V622a70.66,70.66,0,0,1,8,.47c3.13.46,9.19,3.94,9.06,4s-.26-11.94-.26-11.94-4.21-3.6-8-4.4A41,41,0,0,0,1843.62,609.58Z" style="fill:#5d5b4b"/><ellipse cx="1851.43" cy="596.34" rx="3.19" ry="3.97" style="fill:#ff4241"/><path d="M1844.85,599.39s.63-1,1.27-1a30.34,30.34,0,0,1,6.39.87c1.51.59,4.71,1.71,5,2.25a6.48,6.48,0,0,1,.19,2.95c-.14.68-.3,1.24-.71,1.06a52.2,52.2,0,0,0-9.31-2.62c-1.49-.07-2.85.36-2.88-.72S1844.85,599.39,1844.85,599.39Z" style="fill:#ff3025"/><path d="M1851.17,614.63c.73,0,1.73,1.11,1.64,1.71s-1.2,1.71-1.58,1.71-1.69-1.16-1.67-1.71A1.86,1.86,0,0,1,1851.17,614.63Z" style="fill:#faed68"/><path d="M1849.71,610.41c.73,0,1.73,1.11,1.64,1.71s-1.2,1.71-1.58,1.71-1.69-1.16-1.67-1.71A1.86,1.86,0,0,1,1849.71,610.41Z" style="fill:#faed68"/><path d="M1846.74,613.74c.73,0,1.73,1.11,1.64,1.71s-1.2,1.71-1.58,1.71-1.69-1.16-1.67-1.71A1.86,1.86,0,0,1,1846.74,613.74Z" style="fill:#faed68"/><path d="M1850,618.33c.73,0,1.73,1.11,1.64,1.71s-1.2,1.71-1.58,1.71-1.69-1.16-1.67-1.71A1.86,1.86,0,0,1,1850,618.33Z" style="fill:#faed68"/><path d="M1855,619.71c.73,0,1.73,1.11,1.64,1.71s-1.2,1.71-1.58,1.71-1.69-1.16-1.67-1.71A1.86,1.86,0,0,1,1855,619.71Z" style="fill:#faed68"/><path d="M1858.33,613.67a1.78,1.78,0,0,1,1.39,1.52c-.07.46-1,1.52-1.34,1.52a2.31,2.31,0,0,1-1.41-1.52C1857,614.57,1857.58,613.67,1858.33,613.67Z" style="fill:#faed68"/><path d="M1855.19,616.13c.65,0,1.54,1,1.46,1.5s-1.07,1.49-1.4,1.5-1.5-1-1.48-1.5A1.64,1.64,0,0,1,1855.19,616.13Z" style="fill:#faed68"/><path d="M1858.49,617.9c.65,0,1.54,1,1.46,1.52s-1.07,1.51-1.4,1.52-1.5-1-1.48-1.52A1.65,1.65,0,0,1,1858.49,617.9Z" style="fill:#faed68"/><path d="M1858.89,622.08a1.63,1.63,0,0,1,1.28,1.4c-.06.42-.93,1.4-1.23,1.4a2.12,2.12,0,0,1-1.3-1.4C1857.66,622.91,1858.2,622.08,1858.89,622.08Z" style="fill:#faed68"/><path d="M1854.43,611.61c.73,0,1.73,1.11,1.64,1.71s-1.2,1.71-1.58,1.71-1.69-1.16-1.67-1.71A1.86,1.86,0,0,1,1854.43,611.61Z" style="fill:#faed68"/><path d="M1845.11,618c.73,0,1.73,1.11,1.64,1.71s-1.2,1.71-1.58,1.71-1.69-1.16-1.67-1.71A1.86,1.86,0,0,1,1845.11,618Z" style="fill:#faed68"/><path d="M1845.23,609.82c.68,0,1.61,1,1.52,1.53s-1.12,1.53-1.47,1.53-1.56-1-1.55-1.53A1.69,1.69,0,0,1,1845.23,609.82Z" style="fill:#faed68"/><path d="M1826.42,765.24s.25,2.29,7.37,4.57,10.92,3.81,12.19,7.62-.76,9.91,5.33,8.89.51-5.84,10.16-3.3,11.18,4.32,15,7.62,14.22,0,14.22,0,0-.51,3,4.83,7.37,11.18,10.16,16.51-2,12.45-4.06,14.22-72.9-1.52-75.69-1.52-15.75-7.11-18.8-9.91-7.87-5.59-5.59-8.89,5.08-5.06,4.57-9.9-6.35-8.64.25-7.88,16,4.83,18.29.51,2-18.54,2-18.54Z" style="fill:#aeb4c1;stroke:#fff;stroke-miterlimit:10"/><polygon points="1843.41 611.31 1843.41 613.27 1515.64 485.54 1530.49 456.07 1843.41 611.31" style="fill:url(#未命名的渐变_47311)"/><polygon points="1843.64 614.85 1843.64 616.66 1500.81 525.73 1512.77 500.17 1843.64 614.85" style="fill:url(#未命名的渐变_47311-2)"/><polygon points="1844.09 619.83 1497 563.94 1500.81 537.1 1843.34 618.32 1844.09 619.83" style="fill:url(#未命名的渐变_47311-3)"/><polygon points="1860.52 617.12 2028.6 615.63 2028.6 631.99 1860.52 618.92 1860.52 617.12" style="fill:url(#未命名的渐变_47311-4)"/><polygon points="1860.52 619.83 2028.6 644.19 2028.6 660.13 1860.52 621.18 1860.52 619.83" style="fill:url(#未命名的渐变_47311-5)"/><polygon points="1860.52 622.54 2028.6 665.43 2028.6 679.92 1860.52 623.9 1860.52 622.54" style="fill:url(#未命名的渐变_47311-6)"/><rect width="2606.82" height="1415.86" style="fill:none"/></g></g></svg>