<svg xmlns="http://www.w3.org/2000/svg" xmlns:xlink="http://www.w3.org/1999/xlink" viewBox="0 0 473.75 163.86"><defs><linearGradient id="未命名的渐变_2500" x1="117.92" y1="138.46" x2="146.52" y2="138.46" gradientUnits="userSpaceOnUse"><stop offset="0" stop-color="#0fa"/><stop offset="1" stop-color="#2a75ff"/></linearGradient><linearGradient id="未命名的渐变_2500-2" x1="84.55" y1="138.22" x2="107.76" y2="138.22" xlink:href="#未命名的渐变_2500"/><linearGradient id="未命名的渐变_2500-3" x1="11.15" y1="137.92" x2="35.47" y2="137.92" xlink:href="#未命名的渐变_2500"/><linearGradient id="未命名的渐变_2500-4" x1="51.46" y1="137.63" x2="73.88" y2="137.63" xlink:href="#未命名的渐变_2500"/><linearGradient id="未命名的渐变_2500-5" x1="0" y1="33.47" x2="53.61" y2="33.47" xlink:href="#未命名的渐变_2500"/><linearGradient id="未命名的渐变_2501" x1="172.62" y1="90.26" x2="191.07" y2="90.26" gradientUnits="userSpaceOnUse"><stop offset="0" stop-color="#0fa"/><stop offset="1" stop-color="#9401fe"/></linearGradient><linearGradient id="未命名的渐变_2501-2" x1="176.33" y1="31.66" x2="199.61" y2="31.66" xlink:href="#未命名的渐变_2501"/><linearGradient id="未命名的渐变_2500-6" x1="56.07" y1="23.7" x2="143.5" y2="23.7" xlink:href="#未命名的渐变_2500"/><linearGradient id="未命名的渐变_2500-7" x1="18.55" y1="107.7" x2="143.4" y2="107.7" xlink:href="#未命名的渐变_2500"/><linearGradient id="未命名的渐变_2500-8" x1="171.57" y1="52.75" x2="221.85" y2="52.75" xlink:href="#未命名的渐变_2500"/><linearGradient id="未命名的渐变_2501-3" x1="224.71" y1="71.9" x2="298.87" y2="71.9" xlink:href="#未命名的渐变_2501"/><linearGradient id="未命名的渐变_2501-4" x1="248.78" y1="87.43" x2="270.96" y2="87.43" xlink:href="#未命名的渐变_2501"/><linearGradient id="未命名的渐变_2500-9" x1="273.73" y1="138.46" x2="286.57" y2="138.46" xlink:href="#未命名的渐变_2500"/><linearGradient id="未命名的渐变_2500-10" x1="253.44" y1="131.69" x2="266.29" y2="131.69" xlink:href="#未命名的渐变_2500"/><linearGradient id="未命名的渐变_2501-5" x1="246.4" y1="21.51" x2="291.18" y2="21.51" xlink:href="#未命名的渐变_2501"/><linearGradient id="未命名的渐变_2501-6" x1="224.71" y1="42.72" x2="273.73" y2="42.72" xlink:href="#未命名的渐变_2501"/><linearGradient id="未命名的渐变_2501-7" x1="293.85" y1="45.06" x2="315.21" y2="45.06" xlink:href="#未命名的渐变_2501"/><linearGradient id="未命名的渐变_2501-8" x1="348.42" y1="38.95" x2="422.04" y2="38.95" xlink:href="#未命名的渐变_2501"/><linearGradient id="未命名的渐变_2500-11" x1="387.92" y1="22.79" x2="423.12" y2="22.79" xlink:href="#未命名的渐变_2500"/><linearGradient id="未命名的渐变_2500-12" x1="438.16" y1="37.91" x2="461.66" y2="37.91" xlink:href="#未命名的渐变_2500"/><linearGradient id="未命名的渐变_2500-13" x1="322.73" y1="104.19" x2="453.1" y2="104.19" xlink:href="#未命名的渐变_2500"/><linearGradient id="未命名的渐变_2501-9" x1="398.3" y1="79.11" x2="423.58" y2="79.11" xlink:href="#未命名的渐变_2501"/><linearGradient id="未命名的渐变_2500-14" x1="380.61" y1="101.38" x2="465.64" y2="101.38" xlink:href="#未命名的渐变_2500"/><linearGradient id="未命名的渐变_2500-15" x1="376.12" y1="83.95" x2="445.76" y2="83.95" xlink:href="#未命名的渐变_2500"/><linearGradient id="未命名的渐变_2501-10" x1="400.67" y1="115.95" x2="425.64" y2="115.95" xlink:href="#未命名的渐变_2501"/><linearGradient id="未命名的渐变_2500-16" x1="376.4" y1="126.6" x2="449.91" y2="126.6" xlink:href="#未命名的渐变_2500"/><linearGradient id="未命名的渐变_2500-17" x1="377.52" y1="143.63" x2="473.75" y2="143.63" xlink:href="#未命名的渐变_2500"/><linearGradient id="未命名的渐变_2501-11" x1="401.45" y1="130.28" x2="421.98" y2="130.28" xlink:href="#未命名的渐变_2501"/><linearGradient id="未命名的渐变_2501-12" x1="98.38" y1="49.89" x2="117.21" y2="49.89" xlink:href="#未命名的渐变_2501"/><linearGradient id="未命名的渐变_2501-13" x1="76.27" y1="59.17" x2="95.11" y2="59.17" xlink:href="#未命名的渐变_2501"/><linearGradient id="未命名的渐变_2501-14" x1="58.02" y1="49.89" x2="76.85" y2="49.89" xlink:href="#未命名的渐变_2501"/><linearGradient id="未命名的渐变_2501-15" x1="37.99" y1="60.41" x2="56.83" y2="60.41" xlink:href="#未命名的渐变_2501"/><linearGradient id="未命名的渐变_2501-16" x1="37.99" y1="94.62" x2="56.83" y2="94.62" xlink:href="#未命名的渐变_2501"/><linearGradient id="未命名的渐变_2501-17" x1="58.02" y1="90.88" x2="76.85" y2="90.88" xlink:href="#未命名的渐变_2501"/><linearGradient id="未命名的渐变_2501-18" x1="77.06" y1="94.62" x2="95.89" y2="94.62" xlink:href="#未命名的渐变_2501"/><linearGradient id="未命名的渐变_2501-19" x1="99.79" y1="90.88" x2="118.62" y2="90.88" xlink:href="#未命名的渐变_2501"/><linearGradient id="未命名的渐变_2501-20" x1="399.34" y1="89.41" x2="419.86" y2="89.41" xlink:href="#未命名的渐变_2501"/><linearGradient id="未命名的渐变_2500-18" x1="18.71" y1="68" x2="138.69" y2="68" xlink:href="#未命名的渐变_2500"/><linearGradient id="未命名的渐变_2501-21" x1="245.44" y1="117.62" x2="168.11" y2="117.62" xlink:href="#未命名的渐变_2501"/><linearGradient id="未命名的渐变_2501-22" x1="333.94" y1="121.22" x2="256.61" y2="121.22" xlink:href="#未命名的渐变_2501"/><linearGradient id="未命名的渐变_2500-19" x1="217.6" y1="133.68" x2="168.85" y2="133.68" xlink:href="#未命名的渐变_2500"/><linearGradient id="未命名的渐变_2500-20" x1="218.59" y1="94.62" x2="169.84" y2="94.62" xlink:href="#未命名的渐变_2500"/></defs><title>资源 3wuduanya</title><g id="图层_2" data-name="图层 2"><g id="图层_1-2" data-name="图层 1"><rect x="72.47" y="79.95" width="2.86" height="19.7" style="fill:none"/><path d="M72.47,51.1V71.5h2.86V49.89H73.55Z" style="fill:none"/><rect x="92.43" y="79.95" width="2.8" height="19.7" style="fill:none"/><path d="M22.84,71.56a91.9,91.9,0,0,0,11.69-10.3q-3.81,3.5-11.82,10.3Z" style="fill:none"/><rect x="52.45" y="49.89" width="2.86" height="21.61" style="fill:none"/><path d="M34.59,71.5l-.06-10.23a91.9,91.9,0,0,1-11.69,10.3Z" style="fill:none"/><rect x="52.45" y="79.95" width="2.86" height="19.7" style="fill:none"/><path d="M92.49,51.1l-.06,20.4h2.8V49.89H93.51A9,9,0,0,1,92.49,51.1Z" style="fill:none"/><path d="M242.11,121.71V98.19h-3.24V124Q242.11,125.27,242.11,121.71Z" style="fill:none"/><path d="M136.19,128.17a56.77,56.77,0,0,0-9.11-3.37c-2.28-.74-9.17-2.17-9.17-2.17a50.91,50.91,0,0,1,4.88,7c1.67,3.17,1,7.92,1.1,9.41l.19,4.58a14.82,14.82,0,0,0,1.24,5.69,8.61,8.61,0,0,0,2.64,3.27q2.73,2.1,8.42,1.62t7.88-4.39a15.41,15.41,0,0,0,2.26-7.09,13.3,13.3,0,0,0-3.05-8.52A22.93,22.93,0,0,0,136.19,128.17Z" style="fill:url(#未命名的渐变_2500)"/><path d="M99.85,129c-5-2.6-8.28-4-10.18-4.54-1.54-.4-5.11-1.55-5.11-1.55a45.53,45.53,0,0,1,3.74,4.86,11.27,11.27,0,0,1,1.6,7.85c-.08,1.16-.35,2.91-.69,5.63s-.59,4.21-.54,4.47q.06,7.18,7.5,7.75a10.4,10.4,0,0,0,6.2-1.21,10.78,10.78,0,0,0,4.23-4.32q1.59-3.05,1-8.93C107.22,135.1,104.75,131.56,99.85,129Z" style="fill:url(#未命名的渐变_2500-2)"/><path d="M31.5,121.22c-.8,2.38-3.69,7.15-5.92,9a48,48,0,0,1-6.2,4.58c-2.67,1.59-4.1,2.46-5.1,3.18a7.28,7.28,0,0,0-2.79,4.36,10.18,10.18,0,0,0,.85,7.44c1.46,2.94,5.35,5.07,10.09,4.82a12.88,12.88,0,0,0,6.94-2.35c2.22-1.46,3.67-2.85,4.34-4.44a22.27,22.27,0,0,0,1.59-6.37,51.07,51.07,0,0,0,.13-5.94L34.53,130C33.65,126.93,34,126.34,31.5,121.22Z" style="fill:url(#未命名的渐变_2500-3)"/><path d="M72.14,135c-.83-1.48-2.87-3.11-5.54-5.59s-5.81-3.81-9.81-5.19c-1.53-.52-5.32-1.67-5.32-1.67A31.17,31.17,0,0,1,55,128.34a10.78,10.78,0,0,1,.88,6.72c-.12,1.54-.21,3.38-.49,5.59S55,144.1,55,144.4a8.48,8.48,0,0,0,1.37,5.72q1.56,2,5.34,2.48a11.6,11.6,0,0,0,6.61-1,9.81,9.81,0,0,0,4.35-4.2,11,11,0,0,0,1.11-6.55A15.85,15.85,0,0,0,72.14,135Z" style="fill:url(#未命名的渐变_2500-4)"/><path d="M9.44,57.84a53.17,53.17,0,0,0,11.63-8.25C30.57,40.17,37.84,31.76,40,29.44A59.47,59.47,0,0,1,45.4,24c1.87-1.33,2.35-2.28,8.21-4.77a107.33,107.33,0,0,1-20.42-8.81C28,7.5,26,4.12,26,4.13c.21-.16.18,13.62-2.57,20.95l-3.74,8.39c-1.74,3.94-2.75,5.34-5.12,9.74A95.56,95.56,0,0,1,7.63,53.67C6,56,0,62.81,0,62.81S7.51,58.9,9.44,57.84Z" style="fill:url(#未命名的渐变_2500-5)"/><path d="M174.75,93.47l-1.44,4.14c-.42,1.91-.86,3.1-.61,4.81a8.65,8.65,0,0,0,2.92,5,8.42,8.42,0,0,0,6.83,2,8,8,0,0,0,6.39-3.65,15.17,15.17,0,0,0,2.22-7.91,33.16,33.16,0,0,0-1.27-8.58,25.4,25.4,0,0,0-4.65-8.68c-2.18-2.9-5.32-4.65-6.33-5.62l-5.41-3.84s3.58,4.8,3.54,10.32A58.14,58.14,0,0,1,175.81,89C175.49,90.77,175,92.53,174.75,93.47Z" style="fill:url(#未命名的渐变_2501)"/><path d="M181.69,26.19c.86,3-.45,6.09-.69,8.41a33.87,33.87,0,0,0-.29,3.53,9.5,9.5,0,0,0,1.81,5q1.75,2.61,6.58,2.8a9.42,9.42,0,0,0,5.43-1.37,10.58,10.58,0,0,0,3.65-3.5,10.24,10.24,0,0,0,1.4-4.61Q200.1,26,185.23,20.27l-4.51-1.72c-1.23-.42-4.39-1.19-4.39-1.19A23.71,23.71,0,0,1,181.69,26.19Z" style="fill:url(#未命名的渐变_2501-2)"/><path d="M72.47,51.1V71.5h2.86V49.89H73.55Z" style="fill:none"/><rect x="52.45" y="79.95" width="2.86" height="19.7" style="fill:none"/><rect x="72.47" y="79.95" width="2.86" height="19.7" style="fill:none"/><rect x="52.45" y="49.89" width="2.86" height="21.61" style="fill:none"/><rect x="92.43" y="79.95" width="2.8" height="19.7" style="fill:none"/><path d="M92.49,51.1l-.06,20.4h2.8V49.89H93.51A9,9,0,0,1,92.49,51.1Z" style="fill:none"/><path d="M143.34,34.15a4.67,4.67,0,0,0-.38-3.3c-.55-1.23-1.46-1.71-3.73-4.29s-3-3.43-3.83-4.33c-2.88-3.14-4.46-10.38-4.46-10.38a32,32,0,0,1-7,13.28,4.81,4.81,0,0,1-3.68,1.66H64.47c-1.2,1.3-4.26,4.54-8.39,8.79h85.3A2,2,0,0,0,143.34,34.15Z" style="fill:url(#未命名的渐变_2500-6)"/><path d="M94.61,50.29a9,9,0,0,1-1,1.21l-.06,20.4h2.8V50.29Z" style="fill:none"/><path d="M74.65,50.29,73.57,51.5V71.9h2.86V50.29Z" style="fill:none"/><rect x="53.55" y="80.36" width="2.86" height="19.7" style="fill:none"/><rect x="53.55" y="50.29" width="2.86" height="21.61" style="fill:none"/><rect x="93.53" y="80.36" width="2.8" height="19.7" style="fill:none"/><rect x="73.57" y="80.36" width="2.86" height="19.7" style="fill:none"/><rect x="93.95" y="81.03" width="2.8" height="19.7" style="fill:none"/><rect x="53.97" y="81.03" width="2.86" height="19.7" style="fill:none"/><rect x="73.99" y="81.03" width="2.86" height="19.7" style="fill:none"/><path d="M142.93,114.52c-.51-1.12-2.48-2.78-4.76-4.39-5.68-4-6.37-14.75-6.37-14.75s-1.21,7-4.17,11a14.64,14.64,0,0,1-3.17,3.29,4.19,4.19,0,0,1-2.57.74H25.09l-6.55-.57L22.61,120l6.1-.83H140.83a2.2,2.2,0,0,0,2.38-1.49A4.32,4.32,0,0,0,142.93,114.52Z" style="fill:url(#未命名的渐变_2500-7)"/><path d="M242.11,121.71V98.19h-3.24V124Q242.11,125.27,242.11,121.71Z" style="fill:none"/><path d="M214.81,50a42.12,42.12,0,0,1-3.33-7.29s-1,4.8-2.42,6.25a10,10,0,0,1-5,3.37,3.51,3.51,0,0,1-1.2.2H178.76l-7.18-.7,4.7,10.93,6.1-.57h37.05a3.73,3.73,0,0,0,2.42-1s0-3.89-1.6-5.45A40.1,40.1,0,0,1,214.81,50Z" style="fill:url(#未命名的渐变_2500-8)"/><path d="M242.11,121.71V98.19h-3.24V124Q242.11,125.27,242.11,121.71Z" style="fill:none"/><path d="M242.11,121.71V98.19h-3.24V124Q242.11,125.27,242.11,121.71Z" style="fill:none"/><path d="M244.33,123V99.49h-3.24v25.8Q244.33,126.56,244.33,123Z" style="fill:none"/><path d="M296.82,72.41c-1.48-2.33-5.55-5.13-7.63-8.26,0,0-2.29,4.5-9.53,6.29-11.49,2.84-47.35,0-47.35,0a27.46,27.46,0,0,0-4.76,0,15.78,15.78,0,0,0-2.83,1.92s5.25,2.92,6.5,5.39c.34.67,18.32,1.8,18.32,1.8l19.45.13h27.46q2.22,0,2.42-1.87T296.82,72.41Z" style="fill:url(#未命名的渐变_2501-3)"/><path d="M241.09,125.29q3.24,1.27,3.24-2.29V99.49h-3.24Z" style="fill:none"/><path d="M271,82.76l-19.45-.13-.7,3.56a33.9,33.9,0,0,1-2,6h14.62Q267.27,87.78,271,82.76Z" style="fill:url(#未命名的渐变_2501-4)"/><path d="M244.33,124.68V101.16h-3.24V127Q244.33,128.24,244.33,124.68Z" style="fill:none"/><path d="M286.24,120.49a19.69,19.69,0,0,1-3.88-3,11.62,11.62,0,0,1-2.41-4.45,17.72,17.72,0,0,1-2,4.45,13.63,13.63,0,0,1-3.64,3l.06,25s-.06,4.92-.1,6.59a5.74,5.74,0,0,1-.59,2.38c0,.35,2.51,2.32,3.89,4.27a19.48,19.48,0,0,1,2.46,5.08,24.26,24.26,0,0,1,2.59-5.33c1.3-1.9,4-3.51,3.9-4a23,23,0,0,1-.33-3.9V120.49Z" style="fill:url(#未命名的渐变_2500-9)"/><path d="M266,114.61a19.65,19.65,0,0,1-3.88-2.83,10.86,10.86,0,0,1-2.41-4.23,16.42,16.42,0,0,1-2,4.23,13.56,13.56,0,0,1-3.64,2.83l.06,23.81s-.06,4.68-.1,6.27a5.26,5.26,0,0,1-.59,2.26c0,.33,2.51,2.2,3.89,4.06a18.11,18.11,0,0,1,2.46,4.83,22.56,22.56,0,0,1,2.59-5.07c1.3-1.81,4-3.34,3.9-3.79a20.81,20.81,0,0,1-.33-3.71V114.61Z" style="fill:url(#未命名的渐变_2500-10)"/><path d="M278,23.76c-.07-5.63,6.71-7.26,13.21-9.09C271.37,10.73,268.79,0,268.79,0s-4.17,12.69-22.39,14.69c9.31.84,14.25,5.4,14.18,9.35l.07,4L260.58,43h17.35Z" style="fill:url(#未命名的渐变_2501-5)"/><path d="M267.82,47.38H244.43v-16q4.32-3.11,4.19-4.83c-4,2-11.3,3-20.83-5l1.13,13.42s.23,8.44-.32,11.18-3,3.26-3.89,4.28c3.35.88,3.62,2.07,4.81,4.25,4.18,7.61,8.07,9.48,9.41,9.27a5.06,5.06,0,0,0,3.43-2.61q1.43-2.29,2.7-4.26h28.66l-.13-9.79Z" style="fill:url(#未命名的渐变_2501-6)"/><path d="M315.21,30.16c-4.26,1.66-10.85,1.32-21.36-4.39l.7,13.41-.06,10,.13,9.79-.06,1-.06.89a3.66,3.66,0,0,0,1.24,2.67q1.24,1.21,7.6.76l5-1.78,2.29-1.4q.57-.25,1.08-2.42L311,47.32V35.44Q315.4,31.82,315.21,30.16Z" style="fill:url(#未命名的渐变_2501-7)"/><path d="M322.83,44.23" style="fill:#0c1128"/><path d="M408.31,43.43H373V33a9.15,9.15,0,0,0,4.46-5.17s-11.08,3-25.69-5.44l.64,11.44v7.75c-1.32,2.24-1.86,2.38-4,4.29a48.7,48.7,0,0,1,8.41,5.53c2.23,1.69,7.52,3.15,8.71,3.53q2.86,1,4.19.35t3.5-3.78H422l-.19-8.07Z" style="fill:url(#未命名的渐变_2501-8)"/><path d="M416.34,32.24c0-4.08,0-4.72-.1-7.46,0-5.58,6.88-7.79,6.88-7.79a26.58,26.58,0,0,1-12.24-3.46c-5.06-3.13-6.13-6.79-6.13-6.79s-1.17,3.92-6,7C394.5,16.32,387.92,17,387.92,17c6.17,1.54,7.43,4.5,7.51,8.71l.07,6.42v6.67h20.85Z" style="fill:url(#未命名的渐变_2500-11)"/><path d="M460.25,47l-.72-5.93-.58-4.37c2.37-2,2.5-2.87,2.71-4.92-6,.89-13.25.79-23.5-8L438.83,35v7.44L439,50.5l.19.7q.06.76,5.43.79A44.53,44.53,0,0,0,454,51.2l4.77-1.46A3.48,3.48,0,0,0,460.25,47Z" style="fill:url(#未命名的渐变_2500-12)"/><path d="M444.57,62.45a48.08,48.08,0,0,1-4.34-3.76c-1.31-1.29-1.69-1.75-3.56-4.87,0,0-1.12,6.5-9.64,6.68H367.79a69.82,69.82,0,0,1-14.86-1.72A52.86,52.86,0,0,1,342.67,55s4.06,5.35,5.12,8.54c2.24,6.71,2.29,15.56,2.15,22.56-.13,6.32-1.08,19.67-1.92,23.83a123.64,123.64,0,0,1-6.42,20.79c-2,5.08-6.11,10.11-6.62,11-2.42,4.16-12.25,12.88-12.25,12.88s14-9.2,15.38-10.3l3.51-2.81c8-6.4,13.36-13.06,16.71-20.52a73.08,73.08,0,0,0,6.2-22.21q1.17-11,1.68-18.53t.54-9.31q0-1.81,0-2.83h79.38c1.44,0,6.94-.18,6.94-.18A93.74,93.74,0,0,1,444.57,62.45Z" style="fill:url(#未命名的渐变_2500-13)"/><path d="M420.15,83.72A9.47,9.47,0,0,0,423.58,77s-10.25,3.06-25.1-4c-.53,1.19.19,2.8.64,5.06a34.76,34.76,0,0,1,.31,7.22h20.72Z" style="fill:url(#未命名的渐变_2501-9)"/><path d="M461.65,102.53c-4-1.63-7.34-8.89-7.34-8.89a10.19,10.19,0,0,1-9.57,7.34H387.22l-6.61-.7,4.13,8.83,6.1-.57h72.39q2.1,0,2.38-1.37C465.81,106.27,464,103.5,461.65,102.53Z" style="fill:url(#未命名的渐变_2500-14)"/><path d="M443.24,91.45q2.16,0,2.51-1.62c.23-1.08-4.11-3.45-6.4-6.18a55.68,55.68,0,0,1-4.69-7.83A10,10,0,0,1,424.81,84H382.67l-6.55-.7,4.07,8.83,6.1-.64h56.95Z" style="fill:url(#未命名的渐变_2500-15)"/><path d="M422.38,119.7c2.67-2.25,3.6-5.85,3.15-5.66-3,1.25-9.3,2.75-24.56-3.37q-.57,1.14,0,4.13a31.1,31.1,0,0,1,.51,6.42h20.91Z" style="fill:url(#未命名的渐变_2501-10)"/><path d="M447.4,134.49c1.48,0,2.71-.45,2.48-1.3-.52-1.89-3.06-3.26-5.74-5.34s-6.3-9.78-6.3-9.78-.94,8.88-8.87,9H383l-6.55-.7,4.07,8.77,6.1-.63H447.4Z" style="fill:url(#未命名的渐变_2500-16)"/><path d="M470.88,144.91a19.88,19.88,0,0,1-8.7-9.21s-2.09,7.63-9.34,7.72H384.07l-6.55-.7,4.07,8.83,6.1-.57h83.58q2.16,0,2.45-1.37A5.15,5.15,0,0,0,470.88,144.91Z" style="fill:url(#未命名的渐变_2500-17)"/><polygon points="421.98 120.89 401.45 120.89 401.45 139.68 421.92 139.68 421.98 120.89" style="fill:url(#未命名的渐变_2501-11)"/><path d="M98.38,49.59a21.38,21.38,0,0,1,5.83,4.73c2.41,2.82,3.67,8.5,3.67,8.5a24.4,24.4,0,0,1,3.72-8.64,19.59,19.59,0,0,1,5.62-4.61s-4.54-1.87-6.33-4.1c-1.5-1.87-3.31-8.5-3.31-8.5s-1.46,6.31-3.46,8.67A16.13,16.13,0,0,1,98.38,49.59Z" style="fill:url(#未命名的渐变_2501-12)"/><path d="M76.27,58.87a21.38,21.38,0,0,1,5.83,4.73c2.41,2.82,3.67,8.5,3.67,8.5a24.4,24.4,0,0,1,3.72-8.64,19.59,19.59,0,0,1,5.62-4.61s-4.54-1.87-6.33-4.1c-1.5-1.87-3.31-8.5-3.31-8.5S84,52.55,82,54.91A16.13,16.13,0,0,1,76.27,58.87Z" style="fill:url(#未命名的渐变_2501-13)"/><path d="M58,49.59a21.38,21.38,0,0,1,5.83,4.73c2.41,2.82,3.67,8.5,3.67,8.5a24.4,24.4,0,0,1,3.72-8.64,19.59,19.59,0,0,1,5.62-4.61s-4.54-1.87-6.33-4.1C69,43.59,67.2,37,67.2,37s-1.46,6.31-3.46,8.67A16.13,16.13,0,0,1,58,49.59Z" style="fill:url(#未命名的渐变_2501-14)"/><path d="M38,60.1a21.38,21.38,0,0,1,5.83,4.73c2.41,2.82,3.67,8.5,3.67,8.5a24.4,24.4,0,0,1,3.72-8.64,19.59,19.59,0,0,1,5.62-4.61s-4.54-1.87-6.33-4.1c-1.5-1.87-3.31-8.5-3.31-8.5s-1.46,6.31-3.46,8.67A16.13,16.13,0,0,1,38,60.1Z" style="fill:url(#未命名的渐变_2501-15)"/><path d="M38,94.32A21.38,21.38,0,0,1,43.83,99c2.41,2.82,3.67,8.5,3.67,8.5a24.4,24.4,0,0,1,3.72-8.64,19.59,19.59,0,0,1,5.62-4.61s-4.54-1.87-6.33-4.1c-1.5-1.87-3.31-8.5-3.31-8.5S45.72,88,43.72,90.36A16.13,16.13,0,0,1,38,94.32Z" style="fill:url(#未命名的渐变_2501-16)"/><path d="M58,90.58a21.38,21.38,0,0,1,5.83,4.73c2.41,2.82,3.67,8.5,3.67,8.5a24.4,24.4,0,0,1,3.72-8.64,19.59,19.59,0,0,1,5.62-4.61s-4.54-1.87-6.33-4.1C69,84.58,67.2,78,67.2,78s-1.46,6.31-3.46,8.67A16.13,16.13,0,0,1,58,90.58Z" style="fill:url(#未命名的渐变_2501-17)"/><path d="M77.06,94.32A21.38,21.38,0,0,1,82.89,99c2.41,2.82,3.67,8.5,3.67,8.5a24.4,24.4,0,0,1,3.72-8.64,19.59,19.59,0,0,1,5.62-4.61s-4.54-1.87-6.33-4.1c-1.5-1.87-3.31-8.5-3.31-8.5S84.78,88,82.78,90.36A16.13,16.13,0,0,1,77.06,94.32Z" style="fill:url(#未命名的渐变_2501-18)"/><path d="M99.79,90.58a21.38,21.38,0,0,1,5.83,4.73c2.41,2.82,3.67,8.5,3.67,8.5A24.4,24.4,0,0,1,113,95.16a19.59,19.59,0,0,1,5.62-4.61s-4.54-1.87-6.33-4.1C110.78,84.58,109,78,109,78s-1.46,6.31-3.46,8.67A16.13,16.13,0,0,1,99.79,90.58Z" style="fill:url(#未命名的渐变_2501-19)"/><rect x="399.34" y="82.55" width="20.53" height="13.71" style="fill:url(#未命名的渐变_2501-20)"/><path d="M59.21,79.29h76.91q2,0,2.42-1.43a3.78,3.78,0,0,0-.35-3c-.53-1-3.29-2.07-5.47-4.85s-5.54-13.67-5.54-13.67-1.17,6.79-3.67,9.71c-.95,1.11-1.42,1.63-3.13,3.56a3.51,3.51,0,0,1-2.75,1.18H38.49l-11.95.43c-3.7-.37-6.49-2.27-7.83-1.54,0,0,4.93,5.21,6.54,9.13.58,1.42,6.5.44,6.5.44H59.21Z" style="fill:url(#未命名的渐变_2500-18)"/><path d="M231.32,89.75a22.43,22.43,0,0,0-4-1l.37,10.89.07,33-1,11.38a3.23,3.23,0,0,0,1,1.56,4.93,4.93,0,0,0,2.16.79,23.15,23.15,0,0,0,5.95,0,28.47,28.47,0,0,0,6.5-1.18,4.47,4.47,0,0,0,3.06-3.37l-.63-8.83V104.88l.42-9.47Z" style="fill:url(#未命名的渐变_2501-21)"/><path d="M305.89,96.05A22.79,22.79,0,0,0,300.73,93a6.23,6.23,0,0,0-2.68-.54,4.56,4.56,0,0,0-2.54,2.07q-1.29,1.81-2.68,3.59H257l-.42,9.47h3.27l13.14.13h20.45v23.52c0,2.37-2.21,3-4.58,2.16,0,0,3.31,3.33,4.46,6.13.92,2.24,1.42,8.12,1.42,8.12.32,1,.37,1.79.93,2.08a5.17,5.17,0,0,0,2.85.19,37.82,37.82,0,0,0,7.44-1.37q3.27-1,4.31-3a11.86,11.86,0,0,0,1-5.43V109.23q4.52-3.88,4.52-5.21C310.18,99.93,308.37,97.82,305.89,96.05Z" style="fill:url(#未命名的渐变_2501-22)"/><path d="M188.59,123.21l-9.53.38q-6.17.38-7.75.32c-1.06,0-2.45.05-2.45.05s2.43,6.25,2.84,7.75,1,4,1.44,6.44.17,4.38.59,5.78a10.77,10.77,0,0,0,1.65,3.43q1,1.33,1.78,1.4t3.5-1.91l4.26-3.05,6.86-4.39,7.31-4.77q2.1-1.33,6.07-3.69c2.65-1.57,3.79-2.59,4.94-3.31l2.08-1.92c1.23-.76,4.21-7.14,4.21-7.14s-6.13,2.81-10.54,3.28c-1.38.15-2.64.25-3.78.38l-9.72.57Z" style="fill:url(#未命名的渐变_2500-19)"/><path d="M217.8,76.62q-1-.86-5-1.75c-2.67-.59-5.43-.88-8.25-1.26s-5-.6-6.65-.85a17.4,17.4,0,0,1-3-.9A22.18,22.18,0,0,1,196,75l0,4.4c0,1.17-.21,3.48-.42,7.17l-.38,10.8q-.38,9-1.84,20l9.72-.57q2.67-7.12,4.58-13.41l2.8-9.47q.76-2.73,1.84-6.17t1.59-5.08l1.27-.64,2.35-1.59a4.79,4.79,0,0,0,1.08-1.72A2.25,2.25,0,0,0,217.8,76.62Z" style="fill:url(#未命名的渐变_2500-20)"/></g></g></svg>